<svg width="28" height="32" fill="none" xmlns="http://www.w3.org/2000/svg"><path d="M11.656 18.313c0 1.206-.875 1.587-1.95 1.587H6.888v-3.306h2.874c1.163.006 1.894.487 1.894 1.718Zm-.481-5.144c0-1.107-.856-1.369-1.806-1.369H6.894v2.8h2.668c.944 0 1.613-.412 1.613-1.431Zm8.269 1.45c-1.144 0-1.906.712-1.982 1.856h3.888c-.106-1.156-.706-1.856-1.906-1.856ZM28 5v22a3 3 0 0 1-3 3H3a3 3 0 0 1-3-3V5a3 3 0 0 1 3-3h22a3 3 0 0 1 3 3Zm-11.019 6.563h4.863V10.38H16.98v1.181Zm-2.687 6.893c0-1.506-.713-2.806-2.188-3.225 1.075-.512 1.638-1.106 1.638-2.312 0-2.388-1.781-2.969-3.838-2.969H4.25v12h5.819c2.181-.012 4.225-1.056 4.225-3.494Zm9.456-.925c0-2.568-1.506-4.712-4.225-4.712-2.65 0-4.444 1.987-4.444 4.6 0 2.706 1.707 4.562 4.444 4.562 2.075 0 3.419-.931 4.069-2.925h-2.107c-.23.744-1.162 1.131-1.887 1.131-1.4 0-2.131-.818-2.131-2.206h6.262c.006-.144.019-.3.019-.45Z" fill="#000"/></svg>