<svg width="30" height="29" viewBox="0 0 30 29" fill="none" xmlns="http://www.w3.org/2000/svg">
<path d="M29.2758 8.47065C29.2596 7.26572 29.0332 6.07278 28.6068 4.94519C28.2368 3.99356 27.6717 3.12937 26.9476 2.40789C26.2234 1.68641 25.3562 1.12353 24.4014 0.755228C23.2857 0.337925 22.1073 0.112164 20.9159 0.0875393C19.38 0.0190993 18.8938 0 14.9965 0C11.0992 0 10.5994 -2.72747e-07 9.07544 0.0875393C7.88333 0.111895 6.704 0.33766 5.58764 0.755228C4.63354 1.12325 3.76698 1.68571 3.04338 2.40664C2.31978 3.12757 1.75506 3.9911 1.38535 4.94201C0.965134 6.05448 0.738878 7.23041 0.716364 8.41892C0.647709 9.95166 0.626953 10.4363 0.626953 14.3215C0.626953 18.2066 0.626953 18.7032 0.716364 20.224C0.739498 21.4135 0.965728 22.5904 1.38535 23.7041C1.75545 24.6552 2.32047 25.5188 3.04432 26.2398C3.76817 26.9609 4.63493 27.5235 5.58923 27.8917C6.70249 28.3265 7.88203 28.5687 9.07704 28.6079C10.6146 28.6764 11.1008 28.6971 14.9981 28.6971C18.8954 28.6971 19.3952 28.6971 20.9191 28.6079C22.1118 28.5845 23.2918 28.359 24.4085 27.9411C25.3625 27.5721 26.2288 27.009 26.9524 26.2878C27.6759 25.5665 28.2407 24.7028 28.6108 23.7519C29.0304 22.6381 29.2566 21.4613 29.2798 20.2718C29.3485 18.7406 29.3692 18.256 29.3692 14.3692C29.3692 10.4825 29.3692 9.99225 29.2766 8.46826L29.2758 8.47065ZM14.9861 21.6716C13.5269 21.6716 12.1004 21.2403 10.8871 20.4321C9.67384 19.6239 8.72819 18.4752 8.16977 17.1313C7.61135 15.7874 7.46524 14.3085 7.74992 12.8818C8.0346 11.4551 8.73728 10.1446 9.76911 9.11599C10.8009 8.08739 12.1156 7.3869 13.5467 7.10311C14.9779 6.81932 16.4614 6.96497 17.8095 7.52165C19.1577 8.07832 20.31 9.02102 21.1207 10.2305C21.9314 11.44 22.3641 12.862 22.3641 14.3167C22.3643 15.2826 22.1736 16.2391 21.8029 17.1316C21.4322 18.024 20.8887 18.8349 20.2036 19.5179C19.5184 20.2009 18.705 20.7426 17.8098 21.1122C16.9146 21.4817 15.9551 21.6718 14.9861 21.6716ZM22.6579 8.4038C22.3176 8.40396 21.9849 8.30351 21.7019 8.11516C21.4188 7.92681 21.1982 7.65903 21.0679 7.34567C20.9376 7.03231 20.9034 6.68746 20.9697 6.35473C21.0359 6.02201 21.1997 5.71635 21.4403 5.47643C21.6809 5.23651 21.9874 5.07309 22.3211 5.00685C22.6549 4.94062 23.0008 4.97453 23.3152 5.10431C23.6296 5.23409 23.8984 5.4539 24.0874 5.73595C24.2765 6.01799 24.3774 6.3496 24.3774 6.68882C24.3777 6.91406 24.3335 7.13714 24.2472 7.3453C24.1609 7.55347 24.0342 7.74261 23.8745 7.90192C23.7148 8.06122 23.5251 8.18755 23.3163 8.27367C23.1076 8.35979 22.8838 8.40401 22.6579 8.4038Z" fill="black"/>
<path d="M19.779 14.3158C19.779 15.2602 19.4981 16.1834 18.9718 16.9686C18.4455 17.7538 17.6974 18.3658 16.8222 18.7272C15.947 19.0886 14.9839 19.1832 14.0548 18.9989C13.1257 18.8147 12.2722 18.3599 11.6024 17.6921C10.9325 17.0244 10.4763 16.1736 10.2915 15.2474C10.1067 14.3211 10.2015 13.3611 10.5641 12.4886C10.9266 11.6161 11.5405 10.8704 12.3282 10.3457C13.1159 9.82105 14.0419 9.54102 14.9893 9.54102C16.2596 9.54102 17.4779 10.0441 18.3762 10.9395C19.2744 11.835 19.779 13.0495 19.779 14.3158Z" fill="black"/>
</svg>
