<svg width="30" height="29" fill="none" xmlns="http://www.w3.org/2000/svg"><path d="M29.276 8.47a10.36 10.36 0 0 0-.67-3.525 7.333 7.333 0 0 0-4.205-4.19 10.573 10.573 0 0 0-3.485-.667C19.38.019 18.894 0 14.996 0 11.1 0 10.6 0 9.076.088c-1.193.024-2.372.25-3.488.667a7.355 7.355 0 0 0-4.203 4.187 10.396 10.396 0 0 0-.669 3.477C.648 9.952.627 10.436.627 14.32c0 3.886 0 4.382.09 5.903.022 1.19.249 2.366.668 3.48a7.36 7.36 0 0 0 4.204 4.188c1.113.434 2.293.677 3.488.716 1.538.068 2.024.09 5.921.09 3.897 0 4.397 0 5.921-.09a10.547 10.547 0 0 0 3.49-.667 7.34 7.34 0 0 0 4.202-4.19c.42-1.113.646-2.29.669-3.48.069-1.53.09-2.015.09-5.902 0-3.886 0-4.377-.093-5.9l-.001.002Zm-14.29 13.202a7.394 7.394 0 0 1-4.099-1.24 7.36 7.36 0 0 1-2.717-3.3 7.334 7.334 0 0 1 1.6-8.016 7.4 7.4 0 0 1 8.04-1.594c1.348.556 2.5 1.499 3.31 2.708a7.339 7.339 0 0 1-.916 9.288 7.38 7.38 0 0 1-5.218 2.154Zm7.672-13.268a1.724 1.724 0 0 1-1.59-1.058 1.71 1.71 0 0 1 .372-1.87 1.722 1.722 0 0 1 2.937 1.213 1.708 1.708 0 0 1-1.06 1.585c-.21.086-.433.13-.66.13Z" fill="#000"/><path d="M19.779 14.316c0 .944-.28 1.867-.807 2.653a4.803 4.803 0 0 1-7.37.724 4.77 4.77 0 0 1-1.038-5.204 4.778 4.778 0 0 1 1.764-2.143 4.8 4.8 0 0 1 6.048.594 4.768 4.768 0 0 1 1.403 3.376Z" fill="#000"/></svg>