<svg width="361" height="251" fill="none" xmlns="http://www.w3.org/2000/svg"><path d="M55.899 59.86a3.105 3.105 0 0 1 0-6.197c7.59 0 13.986-10.868 13.986-23.74a3.105 3.105 0 0 1 6.197 0c0 16.787-8.838 29.937-20.183 29.937ZM102.729 59.86a3.104 3.104 0 0 1-2.063-5.22 3.104 3.104 0 0 1 2.063-.977c7.591 0 13.987-10.868 13.987-23.74a3.104 3.104 0 0 1 6.197 0c.066 16.787-8.865 29.937-20.184 29.937ZM149.518 59.86a3.106 3.106 0 0 1 0-6.197c7.577 0 13.986-10.868 13.986-23.74a3.092 3.092 0 0 1 6.184 0c.04 16.787-8.811 29.937-20.17 29.937ZM196.385 59.86a3.105 3.105 0 1 1 0-6.197c7.577 0 13.987-10.868 13.987-23.74a3.095 3.095 0 0 1 3.092-3.092 3.091 3.091 0 0 1 3.092 3.092c0 16.787-8.865 29.937-20.171 29.937ZM243.203 59.86a3.106 3.106 0 0 1 0-6.197c7.591 0 13.987-10.868 13.987-23.74a3.104 3.104 0 0 1 6.197 0c0 16.787-8.865 29.937-20.184 29.937ZM290.031 59.86a3.104 3.104 0 0 1-2.063-5.22 3.104 3.104 0 0 1 2.063-.977c7.577 0 13.986-10.868 13.986-23.74a3.11 3.11 0 0 1 3.099-2.902 3.108 3.108 0 0 1 3.098 2.903c0 16.786-8.864 29.936-20.183 29.936Z" fill="#407BFF"/><g opacity=".3" fill="#000"><path opacity=".3" d="M55.899 59.86a3.105 3.105 0 0 1 0-6.198c7.59 0 13.986-10.868 13.986-23.74a3.105 3.105 0 0 1 6.197 0c0 16.787-8.837 29.937-20.183 29.937ZM102.728 59.86a3.106 3.106 0 0 1 0-6.197c7.591 0 13.987-10.868 13.987-23.74a3.103 3.103 0 0 1 6.197 0c.066 16.786-8.864 29.936-20.184 29.936ZM149.517 59.86a3.104 3.104 0 0 1-2.063-5.221 3.104 3.104 0 0 1 2.063-.976c7.577 0 13.986-10.868 13.986-23.74a3.091 3.091 0 0 1 6.184 0c.04 16.786-8.811 29.937-20.17 29.937ZM196.385 59.86a3.105 3.105 0 1 1 0-6.197c7.577 0 13.986-10.868 13.986-23.74a3.091 3.091 0 0 1 6.184 0c0 16.786-8.864 29.937-20.17 29.937ZM243.204 59.86a3.106 3.106 0 0 1 0-6.197c7.59 0 13.986-10.868 13.986-23.74a3.103 3.103 0 0 1 6.197 0c0 16.786-8.864 29.936-20.183 29.936ZM290.031 59.86a3.104 3.104 0 0 1-2.063-5.222 3.103 3.103 0 0 1 2.063-.975c7.577 0 13.987-10.868 13.987-23.74a3.104 3.104 0 0 1 6.197 0c0 16.786-8.865 29.936-20.184 29.936Z"/></g><path d="M26.558 33.095h301.464a16.599 16.599 0 0 1 16.176 14.849l16.693 188.206a13.418 13.418 0 0 1-13.535 14.849H45.879a16.629 16.629 0 0 1-16.176-14.849L13.023 47.944a13.403 13.403 0 0 1 13.535-14.85Z" fill="#407BFF"/><path opacity=".4" d="M26.558 33.095h301.464a16.599 16.599 0 0 1 16.176 14.849l16.693 188.206a13.418 13.418 0 0 1-13.535 14.849H45.879a16.629 16.629 0 0 1-16.176-14.849L13.023 47.944a13.403 13.403 0 0 1 13.535-14.85Z" fill="#FAFAFA"/><path d="M325.515 33.095H24.038A15.738 15.738 0 0 0 8.512 47.944L.02 236.15a14.108 14.108 0 0 0 14.145 14.849H315.67a15.738 15.738 0 0 0 15.525-14.849L339.7 47.944a14.11 14.11 0 0 0-3.891-10.483 14.116 14.116 0 0 0-10.294-4.366Z" fill="#407BFF"/><path opacity=".2" d="M325.515 33.095H24.038A15.738 15.738 0 0 0 8.512 47.944L.02 236.15a14.108 14.108 0 0 0 14.145 14.849H315.67a15.738 15.738 0 0 0 15.525-14.849L339.7 47.944a14.11 14.11 0 0 0-3.891-10.483 14.116 14.116 0 0 0-10.294-4.366Z" fill="#FAFAFA"/><path d="m29.57 201.263 7.02-155.43a6.01 6.01 0 0 1 5.945-5.679h263.844a5.4 5.4 0 0 1 5.427 5.68l-7.033 155.429a6.01 6.01 0 0 1-5.945 5.68H34.998a5.414 5.414 0 0 1-3.939-1.67 5.408 5.408 0 0 1-1.489-4.01Z" fill="#407BFF"/><path opacity=".1" d="m29.57 201.263 7.02-155.43a6.01 6.01 0 0 1 5.945-5.679h263.844a5.4 5.4 0 0 1 5.427 5.68l-7.033 155.429a6.01 6.01 0 0 1-5.945 5.68H34.998a5.414 5.414 0 0 1-3.939-1.67 5.408 5.408 0 0 1-1.489-4.01Z" fill="#FAFAFA"/><path opacity=".1" d="m22.128 213.949 7.365-163.218a6.29 6.29 0 0 1 6.237-5.959h277.074a5.65 5.65 0 0 1 5.692 5.959l-7.378 163.218a6.301 6.301 0 0 1-6.223 5.972h-277.1a5.645 5.645 0 0 1-5.334-3.705 5.64 5.64 0 0 1-.333-2.267Z" fill="#000"/><path d="m15.28 227.113 7.684-170.252a6.635 6.635 0 0 1 6.502-6.223h289.03a5.907 5.907 0 0 1 5.945 6.223l-7.724 170.252a6.633 6.633 0 0 1-6.502 6.224H21.225a5.892 5.892 0 0 1-5.945-6.224Z" fill="#FAFAFA"/><path d="M289.991 60.842a3.977 3.977 0 0 1-3.749-2.623 4 4 0 0 1-.232-1.597 4.183 4.183 0 0 1 4.127-3.98 3.98 3.98 0 0 1 3.981 4.22 4.177 4.177 0 0 1-4.127 3.98ZM243.163 60.842a3.977 3.977 0 0 1-3.749-2.623 4 4 0 0 1-.232-1.597 4.183 4.183 0 0 1 4.127-3.98 3.98 3.98 0 0 1 3.981 4.22 4.167 4.167 0 0 1-4.127 3.98ZM196.334 60.842a3.978 3.978 0 0 1-3.981-4.22 4.192 4.192 0 0 1 4.127-3.98 3.979 3.979 0 0 1 3.749 2.622c.186.511.264 1.055.232 1.597a4.168 4.168 0 0 1-4.127 3.981ZM149.516 60.842a3.985 3.985 0 0 1-2.903-1.249 3.974 3.974 0 0 1-1.078-2.97 4.209 4.209 0 0 1 4.14-3.982 3.98 3.98 0 0 1 3.981 4.22 4.166 4.166 0 0 1-4.14 3.981ZM102.688 60.842a3.977 3.977 0 0 1-3.749-2.623 3.981 3.981 0 0 1-.232-1.597 4.18 4.18 0 0 1 4.127-3.98 3.98 3.98 0 0 1 3.981 4.22 4.177 4.177 0 0 1-4.127 3.98ZM55.859 60.842a3.98 3.98 0 0 1-3.981-4.22 4.18 4.18 0 0 1 4.127-3.98 3.98 3.98 0 0 1 3.98 4.22 4.166 4.166 0 0 1-4.126 3.98Z" fill="#407BFF"/><g opacity=".1" fill="#FAFAFA"><path opacity=".1" d="M289.991 60.842a3.985 3.985 0 0 1-2.903-1.249 3.974 3.974 0 0 1-1.078-2.97 4.182 4.182 0 0 1 4.127-3.982 3.983 3.983 0 0 1 3.981 4.22 4.181 4.181 0 0 1-4.127 3.981ZM243.16 60.842a3.977 3.977 0 0 1-3.749-2.623 3.98 3.98 0 0 1-.231-1.597 4.177 4.177 0 0 1 4.126-3.98 3.98 3.98 0 0 1 3.981 4.22 4.167 4.167 0 0 1-4.127 3.98ZM196.333 60.842a3.978 3.978 0 0 1-3.981-4.22 4.192 4.192 0 0 1 4.127-3.98 3.987 3.987 0 0 1 2.903 1.248 3.974 3.974 0 0 1 1.078 2.971 4.168 4.168 0 0 1-4.127 3.981ZM149.516 60.842a3.978 3.978 0 0 1-3.981-4.22 4.204 4.204 0 0 1 4.14-3.98 3.98 3.98 0 0 1 3.981 4.22 4.169 4.169 0 0 1-4.14 3.98ZM102.688 60.842a3.977 3.977 0 0 1-3.749-2.623 3.981 3.981 0 0 1-.232-1.597 4.18 4.18 0 0 1 4.127-3.98 3.98 3.98 0 0 1 3.981 4.22 4.177 4.177 0 0 1-4.127 3.98ZM55.859 60.843a3.98 3.98 0 0 1-3.981-4.22 4.18 4.18 0 0 1 4.127-3.981 3.98 3.98 0 0 1 3.98 4.22 4.166 4.166 0 0 1-4.126 3.98Z"/></g><path d="M67.562 75.678H44.01a2.468 2.468 0 0 1-2.482-2.654 2.76 2.76 0 0 1 2.654-2.654h23.554a2.468 2.468 0 0 1 2.481 2.654 2.76 2.76 0 0 1-2.654 2.654ZM114.392 75.678H90.838a2.467 2.467 0 0 1-2.482-2.654 2.76 2.76 0 0 1 2.72-2.654h23.541a2.485 2.485 0 0 1 2.357 1.648c.115.322.162.665.138 1.006a2.758 2.758 0 0 1-2.72 2.654ZM161.222 75.678h-23.554a2.478 2.478 0 0 1-2.357-1.648 2.475 2.475 0 0 1-.138-1.006 2.76 2.76 0 0 1 2.721-2.654h23.567a2.464 2.464 0 0 1 2.348 1.649c.114.322.159.664.133 1.005a2.747 2.747 0 0 1-2.72 2.654ZM208.037 75.678h-23.554a2.464 2.464 0 0 1-2.348-1.65 2.452 2.452 0 0 1-.133-1.004 2.759 2.759 0 0 1 2.654-2.654h23.554a2.464 2.464 0 0 1 2.348 1.649c.114.322.159.664.133 1.005a2.759 2.759 0 0 1-2.654 2.654ZM254.867 75.678h-23.554a2.468 2.468 0 0 1-2.482-2.654 2.765 2.765 0 0 1 2.721-2.654h23.554a2.464 2.464 0 0 1 2.348 1.649c.114.322.159.664.133 1.005a2.76 2.76 0 0 1-2.72 2.654ZM301.695 75.678h-23.554a2.468 2.468 0 0 1-2.482-2.654 2.76 2.76 0 0 1 2.721-2.654h23.54a2.485 2.485 0 0 1 2.357 1.648c.115.322.162.665.138 1.006a2.758 2.758 0 0 1-2.72 2.654Z" fill="#407BFF"/><g opacity=".3" fill="#000"><path opacity=".3" d="M67.562 75.678H44.01a2.468 2.468 0 0 1-2.482-2.654 2.76 2.76 0 0 1 2.654-2.654h23.554a2.468 2.468 0 0 1 2.481 2.654 2.76 2.76 0 0 1-2.654 2.654ZM114.392 75.678H90.838a2.467 2.467 0 0 1-2.481-2.654 2.76 2.76 0 0 1 2.72-2.654h23.541a2.477 2.477 0 0 1 2.356 1.648c.115.322.162.665.139 1.006a2.765 2.765 0 0 1-2.721 2.654ZM161.221 75.678h-23.554a2.482 2.482 0 0 1-2.494-2.654 2.76 2.76 0 0 1 2.72-2.654h23.567a2.468 2.468 0 0 1 2.482 2.654 2.747 2.747 0 0 1-2.721 2.654ZM208.037 75.678h-23.554a2.472 2.472 0 0 1-2.349-1.65 2.468 2.468 0 0 1-.132-1.004 2.759 2.759 0 0 1 2.654-2.654h23.554a2.467 2.467 0 0 1 2.481 2.654 2.759 2.759 0 0 1-2.654 2.654ZM254.865 75.678h-23.554a2.468 2.468 0 0 1-2.482-2.654 2.76 2.76 0 0 1 2.721-2.654h23.554a2.467 2.467 0 0 1 2.481 2.654 2.758 2.758 0 0 1-2.72 2.654ZM301.695 75.678h-23.554a2.464 2.464 0 0 1-2.348-1.65 2.452 2.452 0 0 1-.133-1.004 2.76 2.76 0 0 1 2.72-2.654h23.541a2.477 2.477 0 0 1 2.356 1.648c.115.322.162.665.139 1.006a2.765 2.765 0 0 1-2.721 2.654Z"/></g><path d="M68.863 125.798h-30.68a4.954 4.954 0 0 1-4.66-3.227 4.95 4.95 0 0 1-.303-1.975l1.327-30.68a5.52 5.52 0 0 1 5.44-5.202h30.68a4.949 4.949 0 0 1 4.963 5.202l-1.327 30.68a5.532 5.532 0 0 1-5.44 5.202ZM115.693 125.798h-30.68a4.945 4.945 0 0 1-3.605-1.529 4.93 4.93 0 0 1-1.358-3.673l1.327-30.68a5.52 5.52 0 0 1 5.441-5.202h30.72a4.964 4.964 0 0 1 4.976 5.202l-1.394 30.68a5.505 5.505 0 0 1-5.427 5.202ZM162.51 125.798h-30.667a4.965 4.965 0 0 1-4.976-5.202l1.327-30.68a5.516 5.516 0 0 1 5.44-5.201h30.667a4.939 4.939 0 0 1 4.664 3.224c.233.632.335 1.305.299 1.977l-1.327 30.68a5.524 5.524 0 0 1-1.691 3.668 5.525 5.525 0 0 1-3.736 1.534ZM209.339 125.798h-30.627a4.953 4.953 0 0 1-4.976-5.202l1.327-30.68a5.508 5.508 0 0 1 5.427-5.202h30.68a4.95 4.95 0 0 1 4.963 5.202l-1.327 30.68a5.518 5.518 0 0 1-5.467 5.202ZM256.167 125.798h-30.679a4.956 4.956 0 0 1-4.66-3.227 4.942 4.942 0 0 1-.303-1.975l1.327-30.68a5.516 5.516 0 0 1 5.44-5.201h30.667a4.945 4.945 0 0 1 4.672 3.223c.235.632.338 1.305.304 1.978l-1.327 30.68a5.53 5.53 0 0 1-1.7 3.668 5.53 5.53 0 0 1-3.741 1.534ZM302.983 125.798h-30.667a4.948 4.948 0 0 1-3.605-1.529 4.937 4.937 0 0 1-1.358-3.673l1.327-30.68a5.522 5.522 0 0 1 5.441-5.202h30.666a4.957 4.957 0 0 1 3.605 1.533 4.947 4.947 0 0 1 1.371 3.67l-1.393 30.679a5.509 5.509 0 0 1-5.387 5.202Z" fill="#407BFF"/><g opacity=".8" fill="#FAFAFA"><path opacity=".8" d="M68.863 125.799h-30.68a4.954 4.954 0 0 1-4.66-3.227 4.95 4.95 0 0 1-.303-1.975l1.327-30.68a5.52 5.52 0 0 1 5.44-5.202h30.68a4.95 4.95 0 0 1 4.963 5.202l-1.327 30.68a5.532 5.532 0 0 1-5.44 5.202ZM115.692 125.798h-30.68a4.945 4.945 0 0 1-3.605-1.529 4.932 4.932 0 0 1-1.358-3.673l1.327-30.68a5.52 5.52 0 0 1 5.441-5.202h30.72a4.964 4.964 0 0 1 4.976 5.202l-1.394 30.68a5.505 5.505 0 0 1-5.427 5.202ZM162.508 125.798h-30.667a4.965 4.965 0 0 1-4.976-5.202l1.327-30.68a5.516 5.516 0 0 1 5.44-5.201h30.667a4.939 4.939 0 0 1 4.664 3.224c.233.632.335 1.305.299 1.977l-1.327 30.68a5.524 5.524 0 0 1-1.691 3.668 5.525 5.525 0 0 1-3.736 1.534ZM209.337 125.798H178.71a4.953 4.953 0 0 1-4.976-5.202l1.327-30.68a5.508 5.508 0 0 1 5.428-5.202h30.679a4.95 4.95 0 0 1 4.963 5.202l-1.327 30.68a5.52 5.52 0 0 1-5.467 5.202ZM256.165 125.798h-30.679a4.956 4.956 0 0 1-4.66-3.227 4.96 4.96 0 0 1-.303-1.975l1.327-30.68a5.516 5.516 0 0 1 5.44-5.201h30.667a4.945 4.945 0 0 1 4.672 3.223c.235.632.338 1.305.304 1.978l-1.327 30.68a5.535 5.535 0 0 1-5.441 5.202ZM302.983 125.798h-30.666a4.945 4.945 0 0 1-3.605-1.529 4.922 4.922 0 0 1-1.358-3.673l1.327-30.68a5.516 5.516 0 0 1 5.44-5.202h30.667a4.964 4.964 0 0 1 4.976 5.202l-1.393 30.68a5.51 5.51 0 0 1-5.388 5.202Z"/></g><path d="M66.713 173.397h-30.68a4.955 4.955 0 0 1-4.66-3.227 4.95 4.95 0 0 1-.303-1.975l1.327-30.68a5.532 5.532 0 0 1 5.44-5.202H68.57a4.955 4.955 0 0 1 4.66 3.227 4.95 4.95 0 0 1 .303 1.975l-1.327 30.68a5.533 5.533 0 0 1-5.493 5.202ZM113.542 173.397h-30.68a4.955 4.955 0 0 1-4.66-3.227 4.95 4.95 0 0 1-.302-1.975l1.326-30.68a5.523 5.523 0 0 1 5.441-5.202h30.667a4.973 4.973 0 0 1 3.634 1.546 4.96 4.96 0 0 1 1.355 3.709l-1.327 30.627a5.51 5.51 0 0 1-5.454 5.202ZM160.357 173.397h-30.666a4.945 4.945 0 0 1-3.606-1.529 4.935 4.935 0 0 1-1.357-3.673l1.327-30.68a5.519 5.519 0 0 1 5.44-5.202h30.667a4.948 4.948 0 0 1 3.605 1.529 4.947 4.947 0 0 1 1.358 3.673l-1.327 30.68a5.524 5.524 0 0 1-5.441 5.202ZM207.189 173.397h-30.667a4.965 4.965 0 0 1-4.976-5.202l1.327-30.68a5.51 5.51 0 0 1 5.427-5.202h30.68a4.947 4.947 0 0 1 4.737 3.248c.235.642.335 1.325.292 2.007l-1.327 30.68a5.52 5.52 0 0 1-5.493 5.149ZM254.017 173.396h-30.68a4.937 4.937 0 0 1-3.6-1.532 4.943 4.943 0 0 1-1.362-3.669l1.327-30.68a5.531 5.531 0 0 1 5.453-5.255h30.68a4.95 4.95 0 0 1 4.963 5.202l-1.327 30.68a5.534 5.534 0 0 1-5.454 5.254ZM300.793 173.397h-30.627a4.945 4.945 0 0 1-3.605-1.529 4.922 4.922 0 0 1-1.358-3.673l1.327-30.68a5.521 5.521 0 0 1 5.441-5.202h30.666a4.958 4.958 0 0 1 3.605 1.533 4.95 4.95 0 0 1 1.371 3.669l-1.393 30.68a5.51 5.51 0 0 1-5.427 5.202Z" fill="#407BFF"/><g opacity=".8" fill="#FAFAFA"><path opacity=".8" d="M66.713 173.397h-30.68a4.954 4.954 0 0 1-3.601-1.533 4.949 4.949 0 0 1-1.362-3.669l1.327-30.68a5.534 5.534 0 0 1 5.44-5.201H68.57a4.936 4.936 0 0 1 3.601 1.533 4.94 4.94 0 0 1 1.362 3.668l-1.327 30.68a5.533 5.533 0 0 1-5.493 5.202ZM113.541 173.396h-30.68a4.953 4.953 0 0 1-3.6-1.533 4.95 4.95 0 0 1-1.362-3.669l1.326-30.679a5.519 5.519 0 0 1 5.441-5.202h30.667a4.956 4.956 0 0 1 3.634 1.545 4.96 4.96 0 0 1 1.355 3.71l-1.327 30.626a5.5 5.5 0 0 1-1.698 3.68 5.502 5.502 0 0 1-3.756 1.522ZM160.356 173.396H129.69a4.926 4.926 0 0 1-3.605-1.528 4.936 4.936 0 0 1-1.358-3.674l1.327-30.679a5.52 5.52 0 0 1 5.44-5.202h30.667a4.93 4.93 0 0 1 4.664 3.225c.233.631.335 1.304.299 1.977l-1.327 30.679a5.524 5.524 0 0 1-5.441 5.202ZM207.185 173.396h-30.666a4.965 4.965 0 0 1-4.669-3.226 4.983 4.983 0 0 1-.308-1.976l1.327-30.679a5.51 5.51 0 0 1 5.428-5.202h30.68a4.95 4.95 0 0 1 5.029 5.255l-1.327 30.679a5.524 5.524 0 0 1-5.494 5.149ZM254.013 173.396h-30.679a4.938 4.938 0 0 1-3.601-1.532 4.943 4.943 0 0 1-1.362-3.669l1.327-30.68a5.531 5.531 0 0 1 5.454-5.255h30.679a4.955 4.955 0 0 1 3.601 1.533 4.938 4.938 0 0 1 1.362 3.669l-1.327 30.68a5.529 5.529 0 0 1-5.454 5.254ZM300.792 173.397h-30.627a4.945 4.945 0 0 1-3.605-1.529 4.932 4.932 0 0 1-1.358-3.673l1.327-30.68a5.52 5.52 0 0 1 5.441-5.202h30.666a4.958 4.958 0 0 1 3.605 1.532 4.949 4.949 0 0 1 1.371 3.67l-1.393 30.68a5.51 5.51 0 0 1-5.427 5.202Z"/></g><path d="M64.59 220.982H33.883a4.945 4.945 0 0 1-3.605-1.529 4.932 4.932 0 0 1-1.357-3.673l1.326-30.667a5.518 5.518 0 0 1 5.441-5.201h30.68a4.927 4.927 0 0 1 3.605 1.528 4.945 4.945 0 0 1 1.358 3.673l-1.327 30.667a5.51 5.51 0 0 1-5.414 5.202ZM111.393 220.982h-30.68a4.945 4.945 0 0 1-3.605-1.529 4.93 4.93 0 0 1-1.358-3.673l1.327-30.666a5.508 5.508 0 0 1 5.44-5.202h30.667a4.928 4.928 0 0 1 4.676 3.222c.234.632.336 1.306.3 1.98l-1.327 30.666a5.49 5.49 0 0 1-5.44 5.202ZM158.21 220.982h-30.667a4.943 4.943 0 0 1-4.664-3.225 4.949 4.949 0 0 1-.299-1.977l1.327-30.667a5.511 5.511 0 0 1 5.441-5.201h30.786a4.956 4.956 0 0 1 4.672 3.224c.235.631.339 1.304.304 1.977l-1.393 30.667a5.507 5.507 0 0 1-5.507 5.202ZM205.039 220.982h-30.666a4.958 4.958 0 0 1-3.61-1.528 4.945 4.945 0 0 1-1.366-3.674l1.327-30.667a5.492 5.492 0 0 1 5.427-5.201h30.68a4.925 4.925 0 0 1 3.605 1.528 4.95 4.95 0 0 1 1.358 3.673l-1.327 30.667a5.507 5.507 0 0 1-5.428 5.202ZM251.868 220.982h-30.693a4.948 4.948 0 0 1-3.605-1.529 4.937 4.937 0 0 1-1.358-3.673l1.327-30.667a5.523 5.523 0 0 1 5.441-5.201h30.68a4.925 4.925 0 0 1 3.605 1.528 4.95 4.95 0 0 1 1.358 3.673l-1.327 30.667a5.525 5.525 0 0 1-5.428 5.202ZM298.697 220.982h-30.68a4.943 4.943 0 0 1-3.605-1.529 4.92 4.92 0 0 1-1.058-1.696 4.914 4.914 0 0 1-.299-1.977l1.326-30.667a5.511 5.511 0 0 1 5.441-5.201h30.667a4.935 4.935 0 0 1 3.609 1.528 4.948 4.948 0 0 1 1.367 3.673l-1.393 30.667a5.499 5.499 0 0 1-5.375 5.202Z" fill="#407BFF"/><g opacity=".8" fill="#FAFAFA"><path opacity=".8" d="M64.59 220.982H33.883a4.945 4.945 0 0 1-3.605-1.529 4.932 4.932 0 0 1-1.357-3.673l1.326-30.667a5.518 5.518 0 0 1 5.441-5.201h30.68a4.927 4.927 0 0 1 3.605 1.528 4.945 4.945 0 0 1 1.358 3.673l-1.327 30.667a5.51 5.51 0 0 1-5.414 5.202ZM111.392 220.982h-30.68a4.93 4.93 0 0 1-4.664-3.225 4.938 4.938 0 0 1-.299-1.977l1.327-30.666a5.508 5.508 0 0 1 5.44-5.202h30.667a4.925 4.925 0 0 1 3.614 1.524 4.932 4.932 0 0 1 1.363 3.678l-1.327 30.666a5.495 5.495 0 0 1-5.441 5.202ZM158.206 220.982H127.54a4.927 4.927 0 0 1-3.605-1.529 4.922 4.922 0 0 1-1.358-3.673l1.327-30.666a5.507 5.507 0 0 1 5.441-5.202h30.786a4.952 4.952 0 0 1 4.672 3.224c.235.631.338 1.304.304 1.978l-1.394 30.666a5.504 5.504 0 0 1-5.507 5.202ZM205.036 220.982h-30.667a4.95 4.95 0 0 1-4.976-5.202l1.327-30.666a5.494 5.494 0 0 1 5.427-5.202h30.68a4.944 4.944 0 0 1 3.606 1.529 4.935 4.935 0 0 1 1.357 3.673l-1.327 30.666a5.504 5.504 0 0 1-5.427 5.202ZM251.865 220.982h-30.693a4.927 4.927 0 0 1-3.606-1.529 4.935 4.935 0 0 1-1.357-3.673l1.327-30.666a5.52 5.52 0 0 1 5.44-5.202h30.68a4.919 4.919 0 0 1 3.605 1.529 4.922 4.922 0 0 1 1.358 3.673l-1.327 30.666a5.52 5.52 0 0 1-5.427 5.202ZM298.695 220.982h-30.68a4.93 4.93 0 0 1-3.605-1.529 4.937 4.937 0 0 1-1.358-3.673l1.327-30.666a5.507 5.507 0 0 1 5.441-5.202h30.666a4.957 4.957 0 0 1 3.61 1.528 4.945 4.945 0 0 1 1.366 3.674l-1.393 30.666a5.49 5.49 0 0 1-5.374 5.202Z"/></g><path d="M55.898 59.86c-11.306 0-20.17-13.15-20.17-29.937C35.728 13.137 44.592 0 55.898 0c11.306 0 20.184 13.15 20.184 29.923a3.105 3.105 0 0 1-6.197 0c0-12.858-6.397-23.74-13.987-23.74s-13.986 10.882-13.986 23.74c0 12.859 6.41 23.74 13.986 23.74a3.106 3.106 0 1 1 0 6.197ZM102.728 59.86c-11.306 0-20.17-13.15-20.17-29.937C82.558 13.137 91.422 0 102.728 0c11.306 0 20.249 13.15 20.249 29.923a3.104 3.104 0 0 1-6.197 0c0-12.858-6.396-23.74-13.986-23.74-7.59 0-13.986 10.882-13.986 23.74 0 12.859 6.409 23.74 13.986 23.74a3.104 3.104 0 0 1 2.063 5.221 3.103 3.103 0 0 1-2.063.976h-.066ZM149.517 59.86c-11.319 0-20.184-13.15-20.184-29.937C129.333 13.137 138.198 0 149.517 0s20.17 13.15 20.17 29.923a3.091 3.091 0 0 1-6.184 0c0-12.858-6.409-23.74-13.986-23.74-7.577 0-13.986 10.882-13.986 23.74 0 12.859 6.409 23.74 13.986 23.74a3.104 3.104 0 0 1 2.063 5.221 3.103 3.103 0 0 1-2.063.976ZM196.386 59.86c-11.32 0-20.184-13.15-20.184-29.937C176.202 13.137 185.066 0 196.386 0c11.319 0 20.17 13.15 20.17 29.923a3.091 3.091 0 0 1-6.184 0c0-12.858-6.409-23.74-13.986-23.74-7.577 0-13.987 10.882-13.987 23.74 0 12.859 6.396 23.74 13.987 23.74a3.106 3.106 0 0 1 0 6.197ZM243.203 59.86c-11.306 0-20.171-13.15-20.171-29.937C223.032 13.137 231.897 0 243.203 0c11.305 0 20.183 13.15 20.183 29.923a3.105 3.105 0 0 1-6.197 0c0-12.858-6.396-23.74-13.986-23.74-7.591 0-13.987 10.882-13.987 23.74 0 12.859 6.41 23.74 13.987 23.74a3.105 3.105 0 1 1 0 6.197ZM290.032 59.86c-11.306 0-20.17-13.15-20.17-29.937 0-16.786 8.864-29.923 20.17-29.923 11.306 0 20.184 13.15 20.184 29.923a3.11 3.11 0 0 1-3.099 2.903 3.108 3.108 0 0 1-3.098-2.903c0-12.858-6.41-23.74-13.987-23.74s-13.986 10.882-13.986 23.74c0 12.859 6.409 23.74 13.986 23.74a3.106 3.106 0 0 1 0 6.197Z" fill="#407BFF"/><g opacity=".3" fill="#000"><path opacity=".3" d="M55.898 59.86c-11.306 0-20.17-13.15-20.17-29.936C35.728 13.137 44.592 0 55.898 0c11.306 0 20.184 13.15 20.184 29.924a3.105 3.105 0 0 1-6.197 0c0-12.859-6.397-23.74-13.987-23.74s-13.986 10.881-13.986 23.74c0 12.858 6.41 23.74 13.986 23.74a3.106 3.106 0 1 1 0 6.197ZM102.728 59.86c-11.306 0-20.17-13.15-20.17-29.936C82.558 13.137 91.422 0 102.728 0c11.306 0 20.25 13.15 20.25 29.924a3.11 3.11 0 0 1-3.099 2.902 3.104 3.104 0 0 1-3.098-2.902c0-12.859-6.396-23.74-13.987-23.74-7.59 0-13.986 10.881-13.986 23.74 0 12.858 6.41 23.74 13.986 23.74a3.106 3.106 0 0 1 0 6.196h-.066ZM149.517 59.86c-11.319 0-20.183-13.15-20.183-29.936C129.334 13.137 138.198 0 149.517 0c11.319 0 20.17 13.15 20.17 29.924a3.095 3.095 0 0 1-3.092 3.092 3.092 3.092 0 0 1-3.091-3.092c0-12.859-6.41-23.74-13.987-23.74s-13.986 10.881-13.986 23.74c0 12.858 6.409 23.74 13.986 23.74a3.106 3.106 0 0 1 0 6.196ZM196.386 59.86c-11.319 0-20.184-13.15-20.184-29.936C176.202 13.137 185.067 0 196.386 0s20.17 13.15 20.17 29.924a3.092 3.092 0 0 1-6.184 0c0-12.859-6.409-23.74-13.986-23.74-7.577 0-13.987 10.881-13.987 23.74 0 12.858 6.396 23.74 13.987 23.74a3.103 3.103 0 0 1 2.063 5.22 3.104 3.104 0 0 1-2.063.976ZM243.2 59.86c-11.305 0-20.17-13.15-20.17-29.936C223.03 13.137 231.895 0 243.2 0c11.306 0 20.184 13.15 20.184 29.924a3.11 3.11 0 0 1-3.099 2.902 3.103 3.103 0 0 1-3.098-2.902c0-12.859-6.396-23.74-13.987-23.74-7.59 0-13.986 10.881-13.986 23.74 0 12.858 6.409 23.74 13.986 23.74a3.112 3.112 0 0 1 2.326.832 3.106 3.106 0 0 1-2.326 5.364ZM290.03 59.86c-11.306 0-20.17-13.15-20.17-29.936C269.86 13.137 278.724 0 290.03 0c11.306 0 20.183 13.15 20.183 29.924a3.104 3.104 0 0 1-6.197 0c0-12.859-6.409-23.74-13.986-23.74-7.577 0-13.986 10.881-13.986 23.74 0 12.858 6.409 23.74 13.986 23.74a3.103 3.103 0 0 1 2.063 5.22 3.104 3.104 0 0 1-2.063.976Z"/></g><path d="M199.518 127.509c-10.828-2.149-22.983.359-27.322 11.771-3.49 9.182.982 19.135 10.616 21.563 8.492 2.137 23.142-.478 26.168-10.271 3.463-11.199-10.616-14.835-18.512-15.499-2.375-.199-2.362 3.517 0 3.716 3.596.305 7.71.504 10.895 2.481 6.635 4.154 3.901 10.815-1.752 14-5.653 3.185-14.318 3.981-19.905.451-6.104-3.888-6.303-12.434-2.654-18.007 4.791-7.365 13.536-8.188 21.418-6.635 2.335.464 3.331-3.119.982-3.583l.066.013Z" fill="#407BFF"/><path opacity=".1" d="M199.518 127.509c-10.828-2.149-22.983.359-27.322 11.771-3.49 9.182.982 19.135 10.616 21.563 8.492 2.137 23.142-.478 26.168-10.271 3.463-11.199-10.616-14.835-18.512-15.499-2.375-.199-2.362 3.517 0 3.716 3.596.305 7.71.504 10.895 2.481 6.635 4.154 3.901 10.815-1.752 14-5.653 3.185-14.318 3.981-19.905.451-6.104-3.888-6.303-12.434-2.654-18.007 4.791-7.365 13.536-8.188 21.418-6.635 2.335.464 3.331-3.119.982-3.583l.066.013Z" fill="#FAFAFA"/><path d="M80.05 84.767a292.674 292.674 0 0 0 34.502 38.218c1.752 1.632 4.392-.996 2.654-2.654a288.368 288.368 0 0 1-33.93-37.461c-1.42-1.885-4.645 0-3.199 1.87l-.026.027Z" fill="#407BFF"/><path d="M83.885 121.432c7.829-13.92 21.537-25.796 34.501-34.886 1.938-1.327.093-4.591-1.871-3.211-13.482 9.474-27.654 21.709-35.828 36.213a1.858 1.858 0 0 0 3.198 1.884Z" fill="#407BFF"/><g opacity=".2" fill="#000"><path opacity=".2" d="M80.05 84.767a292.674 292.674 0 0 0 34.502 38.218c1.752 1.632 4.392-.996 2.654-2.654a288.368 288.368 0 0 1-33.93-37.461c-1.42-1.885-4.645 0-3.199 1.87l-.026.027Z"/><path opacity=".2" d="M83.883 121.431c7.83-13.92 21.537-25.796 34.502-34.886 1.937-1.327.093-4.591-1.871-3.211-13.482 9.474-27.654 21.709-35.829 36.213a1.859 1.859 0 0 0 3.198 1.884Z"/></g><path d="M227.637 96.644h24.218a1.86 1.86 0 0 0 1.211-3.108 1.86 1.86 0 0 0-1.211-.594h-24.218a1.857 1.857 0 0 0 0 3.702ZM227.359 103.531h14.039a1.859 1.859 0 0 0 1.314-3.171 1.855 1.855 0 0 0-1.314-.544h-14.039a1.857 1.857 0 1 0 0 3.715Z" fill="#407BFF"/><g opacity=".1" fill="#FAFAFA"><path opacity=".1" d="M227.636 96.644h24.218a1.857 1.857 0 0 0 0-3.702h-24.218a1.86 1.86 0 0 0-1.211 3.108 1.86 1.86 0 0 0 1.211.594ZM227.358 103.531h14.04a1.858 1.858 0 0 0 0-3.715h-14.04a1.855 1.855 0 1 0 0 3.715Z"/></g><path d="M82.584 191.709h20.767a1.856 1.856 0 1 0 0-3.715H82.584a1.86 1.86 0 0 0-1.314 3.171c.348.349.82.544 1.314.544ZM81.84 199.684h26.939a1.858 1.858 0 0 0 0-3.715H81.841a1.855 1.855 0 0 0-1.858 1.857 1.857 1.857 0 0 0 1.858 1.858ZM81.84 207.899h13.47a1.856 1.856 0 0 0 1.858-1.858 1.86 1.86 0 0 0-1.858-1.858H81.84a1.86 1.86 0 0 0-1.313 3.171c.349.349.821.545 1.314.545Z" fill="#407BFF"/><g opacity=".1" fill="#FAFAFA"><path opacity=".1" d="M82.584 191.709h20.768a1.854 1.854 0 0 0 1.857-1.857 1.855 1.855 0 0 0-1.857-1.858H82.584a1.86 1.86 0 0 0-1.313 3.171c.348.349.82.544 1.313.544ZM81.842 199.684h26.938a1.858 1.858 0 0 0 0-3.715H81.842a1.855 1.855 0 0 0-1.858 1.857 1.857 1.857 0 0 0 1.858 1.858ZM81.842 207.899H95.31a1.86 1.86 0 0 0 1.313-3.172 1.86 1.86 0 0 0-1.313-.544H81.84a1.86 1.86 0 0 0-1.313 3.172c.349.348.821.544 1.314.544Z"/></g></svg>