<svg width="361" height="251" viewBox="0 0 361 251" fill="none" xmlns="http://www.w3.org/2000/svg">
<path d="M55.8986 59.8603C55.1119 59.8088 54.3742 59.4599 53.8352 58.8845C53.2962 58.3091 52.9963 57.5503 52.9963 56.7618C52.9963 55.9734 53.2962 55.2145 53.8352 54.6391C54.3742 54.0637 55.1119 53.7148 55.8986 53.6633C63.4889 53.6633 69.885 42.7953 69.885 29.9236C69.9365 29.1369 70.2853 28.3992 70.8608 27.8602C71.4362 27.3213 72.1951 27.0214 72.9835 27.0214C73.7719 27.0214 74.5308 27.3213 75.1062 27.8602C75.6816 28.3992 76.0305 29.1369 76.082 29.9236C76.082 46.7099 67.2443 59.8603 55.8986 59.8603Z" fill="#407BFF"/>
<path d="M102.729 59.8603C101.942 59.8088 101.205 59.4599 100.666 58.8845C100.127 58.3091 99.8269 57.5503 99.8269 56.7618C99.8269 55.9734 100.127 55.2145 100.666 54.6391C101.205 54.0637 101.942 53.7148 102.729 53.6633C110.32 53.6633 116.716 42.7953 116.716 29.9236C116.767 29.1369 117.116 28.3992 117.691 27.8602C118.267 27.3213 119.026 27.0214 119.814 27.0214C120.602 27.0214 121.361 27.3213 121.937 27.8602C122.512 28.3992 122.861 29.1369 122.913 29.9236C122.979 46.7099 114.048 59.8603 102.729 59.8603Z" fill="#407BFF"/>
<path d="M149.518 59.8599C148.731 59.8084 147.993 59.4595 147.454 58.8841C146.915 58.3087 146.615 57.5498 146.615 56.7614C146.615 55.973 146.915 55.2141 147.454 54.6386C147.993 54.0632 148.731 53.7144 149.518 53.6628C157.095 53.6628 163.504 42.7949 163.504 29.9232C163.504 29.1032 163.83 28.3167 164.41 27.7369C164.99 27.157 165.776 26.8313 166.596 26.8313C167.416 26.8313 168.202 27.157 168.782 27.7369C169.362 28.3167 169.688 29.1032 169.688 29.9232C169.728 46.7095 160.877 59.8599 149.518 59.8599Z" fill="#407BFF"/>
<path d="M196.385 59.8599C195.961 59.8876 195.536 59.8281 195.136 59.6849C194.736 59.5418 194.37 59.3181 194.06 59.0276C193.75 58.7372 193.503 58.3862 193.334 57.9964C193.165 57.6066 193.077 57.1862 193.077 56.7614C193.077 56.3365 193.165 55.9162 193.334 55.5264C193.503 55.1365 193.75 54.7855 194.06 54.4951C194.37 54.2046 194.736 53.9809 195.136 53.8378C195.536 53.6946 195.961 53.6351 196.385 53.6628C203.962 53.6628 210.372 42.7949 210.372 29.9232C210.372 29.1032 210.698 28.3167 211.277 27.7369C211.857 27.157 212.644 26.8313 213.464 26.8313C214.284 26.8313 215.07 27.157 215.65 27.7369C216.23 28.3167 216.556 29.1032 216.556 29.9232C216.556 46.7095 207.691 59.8599 196.385 59.8599Z" fill="#407BFF"/>
<path d="M243.203 59.8603C242.417 59.8088 241.679 59.4599 241.14 58.8845C240.601 58.3091 240.301 57.5503 240.301 56.7618C240.301 55.9734 240.601 55.2145 241.14 54.6391C241.679 54.0637 242.417 53.7148 243.203 53.6633C250.794 53.6633 257.19 42.7953 257.19 29.9236C257.241 29.1369 257.59 28.3992 258.165 27.8602C258.741 27.3213 259.5 27.0214 260.288 27.0214C261.077 27.0214 261.835 27.3213 262.411 27.8602C262.986 28.3992 263.335 29.1369 263.387 29.9236C263.387 46.7099 254.522 59.8603 243.203 59.8603Z" fill="#407BFF"/>
<path d="M290.031 59.8603C289.244 59.8088 288.507 59.4599 287.968 58.8845C287.429 58.3091 287.129 57.5503 287.129 56.7618C287.129 55.9734 287.429 55.2145 287.968 54.6391C288.507 54.0637 289.244 53.7148 290.031 53.6633C297.608 53.6633 304.017 42.7953 304.017 29.9236C304.069 29.1369 304.418 28.3992 304.993 27.8602C305.569 27.3213 306.327 27.0214 307.116 27.0214C307.904 27.0214 308.663 27.3213 309.239 27.8602C309.814 28.3992 310.163 29.1369 310.214 29.9236C310.214 46.7099 301.35 59.8603 290.031 59.8603Z" fill="#407BFF"/>
<g opacity="0.3">
<path opacity="0.3" d="M55.8988 59.8594C55.1121 59.8078 54.3744 59.459 53.8355 58.8836C53.2965 58.3081 52.9966 57.5493 52.9966 56.7609C52.9966 55.9724 53.2965 55.2135 53.8355 54.6381C54.3744 54.0627 55.1121 53.7138 55.8988 53.6623C63.4892 53.6623 69.8852 42.7944 69.8852 29.9227C69.9367 29.1359 70.2856 28.3982 70.861 27.8593C71.4364 27.3203 72.1953 27.0204 72.9837 27.0204C73.7721 27.0204 74.531 27.3203 75.1064 27.8593C75.6819 28.3982 76.0307 29.1359 76.0822 29.9227C76.0822 46.709 67.2445 59.8594 55.8988 59.8594Z" fill="black"/>
<path opacity="0.3" d="M102.728 59.8595C101.942 59.808 101.204 59.4591 100.665 58.8837C100.126 58.3083 99.8262 57.5494 99.8262 56.761C99.8262 55.9726 100.126 55.2137 100.665 54.6383C101.204 54.0628 101.942 53.714 102.728 53.6625C110.319 53.6625 116.715 42.7945 116.715 29.9228C116.766 29.136 117.115 28.3984 117.691 27.8594C118.266 27.3204 119.025 27.0205 119.813 27.0205C120.602 27.0205 121.361 27.3204 121.936 27.8594C122.511 28.3984 122.86 29.136 122.912 29.9228C122.978 46.7091 114.048 59.8595 102.728 59.8595Z" fill="black"/>
<path opacity="0.3" d="M149.517 59.8597C148.73 59.8082 147.993 59.4594 147.454 58.884C146.915 58.3085 146.615 57.5497 146.615 56.7613C146.615 55.9728 146.915 55.2139 147.454 54.6385C147.993 54.0631 148.73 53.7142 149.517 53.6627C157.094 53.6627 163.503 42.7948 163.503 29.923C163.503 29.103 163.829 28.3166 164.409 27.7368C164.989 27.1569 165.775 26.8312 166.595 26.8312C167.415 26.8312 168.202 27.1569 168.782 27.7368C169.361 28.3166 169.687 29.103 169.687 29.923C169.727 46.7094 160.876 59.8597 149.517 59.8597Z" fill="black"/>
<path opacity="0.3" d="M196.385 59.8597C195.961 59.8875 195.536 59.8279 195.136 59.6848C194.736 59.5416 194.369 59.3179 194.059 59.0275C193.749 58.7371 193.502 58.3861 193.333 57.9963C193.164 57.6065 193.077 57.1861 193.077 56.7613C193.077 56.3364 193.164 55.916 193.333 55.5262C193.502 55.1364 193.749 54.7854 194.059 54.495C194.369 54.2045 194.736 53.9808 195.136 53.8377C195.536 53.6945 195.961 53.635 196.385 53.6627C203.962 53.6627 210.371 42.7948 210.371 29.923C210.371 29.103 210.697 28.3166 211.277 27.7368C211.856 27.1569 212.643 26.8312 213.463 26.8312C214.283 26.8312 215.069 27.1569 215.649 27.7368C216.229 28.3166 216.555 29.103 216.555 29.923C216.555 46.7094 207.691 59.8597 196.385 59.8597Z" fill="black"/>
<path opacity="0.3" d="M243.204 59.8595C242.417 59.808 241.679 59.4591 241.14 58.8837C240.601 58.3083 240.301 57.5494 240.301 56.761C240.301 55.9726 240.601 55.2137 241.14 54.6383C241.679 54.0628 242.417 53.714 243.204 53.6625C250.794 53.6625 257.19 42.7945 257.19 29.9228C257.241 29.136 257.59 28.3984 258.166 27.8594C258.741 27.3204 259.5 27.0205 260.288 27.0205C261.077 27.0205 261.836 27.3204 262.411 27.8594C262.987 28.3984 263.335 29.136 263.387 29.9228C263.387 46.7091 254.523 59.8595 243.204 59.8595Z" fill="black"/>
<path opacity="0.3" d="M290.031 59.8595C289.244 59.808 288.507 59.4591 287.968 58.8837C287.429 58.3083 287.129 57.5494 287.129 56.761C287.129 55.9726 287.429 55.2137 287.968 54.6383C288.507 54.0628 289.244 53.714 290.031 53.6625C297.608 53.6625 304.018 42.7945 304.018 29.9228C304.069 29.136 304.418 28.3984 304.993 27.8594C305.569 27.3204 306.328 27.0205 307.116 27.0205C307.904 27.0205 308.663 27.3204 309.239 27.8594C309.814 28.3984 310.163 29.136 310.215 29.9228C310.215 46.7091 301.35 59.8595 290.031 59.8595Z" fill="black"/>
</g>
<path d="M26.558 33.0949H328.022C332.064 33.1759 335.937 34.729 338.915 37.4629C341.894 40.1968 343.772 43.9235 344.198 47.9438L360.891 236.15C361.094 238.038 360.894 239.948 360.304 241.753C359.713 243.559 358.747 245.218 357.467 246.622C356.188 248.026 354.625 249.142 352.881 249.896C351.138 250.651 349.255 251.026 347.356 250.999H45.8789C41.8386 250.912 37.9682 249.357 34.9911 246.624C32.0141 243.891 30.1342 240.168 29.703 236.15L13.0228 47.9438C12.8175 46.055 13.0162 44.144 13.6056 42.3378C14.1951 40.5315 15.1619 38.8712 16.4418 37.4671C17.7218 36.0629 19.2857 34.9469 21.0297 34.1931C22.7738 33.4393 24.6582 33.065 26.558 33.0949Z" fill="#407BFF"/>
<path opacity="0.4" d="M26.558 33.0949H328.022C332.064 33.1759 335.937 34.729 338.915 37.4629C341.894 40.1968 343.772 43.9235 344.198 47.9438L360.891 236.15C361.094 238.038 360.894 239.948 360.304 241.753C359.713 243.559 358.747 245.218 357.467 246.622C356.188 248.026 354.625 249.142 352.881 249.896C351.138 250.651 349.255 251.026 347.356 250.999H45.8789C41.8386 250.912 37.9682 249.357 34.9911 246.624C32.0141 243.891 30.1342 240.168 29.703 236.15L13.0228 47.9438C12.8175 46.055 13.0162 44.144 13.6056 42.3378C14.1951 40.5315 15.1619 38.8712 16.4418 37.4671C17.7218 36.0629 19.2857 34.9469 21.0297 34.1931C22.7738 33.4393 24.6582 33.065 26.558 33.0949Z" fill="#FAFAFA"/>
<path d="M325.515 33.0951H24.038C20.0503 33.1426 16.2294 34.702 13.3474 37.4584C10.4654 40.2148 8.73729 43.9624 8.51229 47.944L0.0195951 236.15C-0.0815691 238.067 0.209748 239.985 0.875706 241.786C1.54167 243.587 2.56826 245.232 3.89258 246.623C5.21689 248.013 6.81106 249.118 8.57745 249.87C10.3438 250.623 12.2452 251.007 14.1652 250.999H315.669C319.656 250.951 323.477 249.392 326.359 246.635C329.241 243.879 330.969 240.131 331.194 236.15L339.7 47.944C339.8 46.0238 339.506 44.1035 338.837 42.3009C338.168 40.4982 337.138 38.8513 335.809 37.4609C334.481 36.0706 332.883 34.9662 331.113 34.2155C329.343 33.4647 327.438 33.0835 325.515 33.0951Z" fill="#407BFF"/>
<path opacity="0.2" d="M325.515 33.0951H24.038C20.0503 33.1426 16.2294 34.702 13.3474 37.4584C10.4654 40.2148 8.73729 43.9624 8.51229 47.944L0.0195951 236.15C-0.0815691 238.067 0.209748 239.985 0.875706 241.786C1.54167 243.587 2.56826 245.232 3.89258 246.623C5.21689 248.013 6.81106 249.118 8.57745 249.87C10.3438 250.623 12.2452 251.007 14.1652 250.999H315.669C319.656 250.951 323.477 249.392 326.359 246.635C329.241 243.879 330.969 240.131 331.194 236.15L339.7 47.944C339.8 46.0238 339.506 44.1035 338.837 42.3009C338.168 40.4982 337.138 38.8513 335.809 37.4609C334.481 36.0706 332.883 34.9662 331.113 34.2155C329.343 33.4647 327.438 33.0835 325.515 33.0951Z" fill="#FAFAFA"/>
<path d="M29.5702 201.263L36.5899 45.8338C36.6741 44.3091 37.3354 42.8736 38.4396 41.8188C39.5437 40.7639 41.0079 40.1688 42.5348 40.1543H306.379C307.114 40.1497 307.843 40.2954 308.52 40.5824C309.197 40.8695 309.809 41.2919 310.317 41.8237C310.825 42.3555 311.219 42.9855 311.475 43.675C311.731 44.3646 311.844 45.0992 311.806 45.8338L304.773 201.263C304.689 202.788 304.027 204.223 302.923 205.278C301.819 206.333 300.355 206.928 298.828 206.943H34.9975C34.262 206.947 33.5333 206.801 32.856 206.514C32.1788 206.227 31.5674 205.805 31.0592 205.273C30.551 204.741 30.1568 204.111 29.9007 203.422C29.6447 202.732 29.5322 201.998 29.5702 201.263Z" fill="#407BFF"/>
<path opacity="0.1" d="M29.5702 201.263L36.5899 45.8338C36.6741 44.3091 37.3354 42.8736 38.4396 41.8188C39.5437 40.7639 41.0079 40.1688 42.5348 40.1543H306.379C307.114 40.1497 307.843 40.2954 308.52 40.5824C309.197 40.8695 309.809 41.2919 310.317 41.8237C310.825 42.3555 311.219 42.9855 311.475 43.675C311.731 44.3646 311.844 45.0992 311.806 45.8338L304.773 201.263C304.689 202.788 304.027 204.223 302.923 205.278C301.819 206.333 300.355 206.928 298.828 206.943H34.9975C34.262 206.947 33.5333 206.801 32.856 206.514C32.1788 206.227 31.5674 205.805 31.0592 205.273C30.551 204.741 30.1568 204.111 29.9007 203.422C29.6447 202.732 29.5322 201.998 29.5702 201.263Z" fill="#FAFAFA"/>
<path opacity="0.1" d="M22.1284 213.949L29.4932 50.7306C29.5777 49.1297 30.2703 47.6215 31.4295 46.5141C32.5886 45.4067 34.1269 44.7837 35.73 44.7724H312.804C313.576 44.7659 314.341 44.9175 315.052 45.2181C315.764 45.5186 316.406 45.9617 316.939 46.52C317.472 47.0783 317.886 47.7399 318.154 48.464C318.422 49.1882 318.538 49.9596 318.496 50.7306L311.118 213.949C311.034 215.549 310.344 217.057 309.188 218.166C308.032 219.275 306.497 219.903 304.895 219.921H27.7946C27.023 219.926 26.2586 219.772 25.5487 219.47C24.8388 219.168 24.1984 218.723 23.6673 218.163C23.1362 217.603 22.7256 216.941 22.4609 216.216C22.1962 215.491 22.083 214.72 22.1284 213.949Z" fill="black"/>
<path d="M15.2804 227.113L22.9636 56.8613C23.0667 55.1966 23.7931 53.6318 24.998 52.4784C26.203 51.3251 27.7981 50.6679 29.4658 50.6378H318.496C319.302 50.6312 320.101 50.7898 320.844 51.1038C321.587 51.4179 322.257 51.8807 322.814 52.4638C323.371 53.0469 323.803 53.7379 324.082 54.4942C324.362 55.2505 324.484 56.0561 324.441 56.8613L316.717 227.113C316.614 228.778 315.888 230.343 314.683 231.496C313.478 232.649 311.883 233.306 310.215 233.337H21.2253C20.4184 233.345 19.6183 233.188 18.8747 232.874C18.1311 232.561 17.4598 232.098 16.9024 231.515C16.345 230.931 15.9134 230.24 15.6344 229.482C15.3554 228.725 15.2349 227.919 15.2804 227.113Z" fill="#FAFAFA"/>
<path d="M289.991 60.8421C289.448 60.8431 288.91 60.7328 288.411 60.5179C287.911 60.3031 287.461 59.9883 287.088 59.593C286.715 59.1976 286.427 58.7301 286.242 58.2192C286.057 57.7083 285.978 57.1648 286.01 56.6223C286.061 55.5577 286.517 54.5526 287.284 53.8126C288.051 53.0727 289.072 52.6537 290.137 52.6414C290.681 52.6404 291.219 52.7507 291.718 52.9655C292.217 53.1804 292.667 53.4952 293.04 53.8905C293.413 54.2859 293.701 54.7534 293.887 55.2643C294.072 55.7752 294.151 56.3186 294.118 56.8612C294.068 57.9258 293.612 58.9309 292.845 59.6708C292.078 60.4108 291.057 60.8298 289.991 60.8421Z" fill="#407BFF"/>
<path d="M243.163 60.8421C242.62 60.8431 242.082 60.7328 241.583 60.5179C241.083 60.3031 240.633 59.9883 240.261 59.593C239.888 59.1976 239.599 58.7301 239.414 58.2192C239.229 57.7083 239.15 57.1648 239.182 56.6223C239.233 55.5577 239.689 54.5526 240.456 53.8126C241.223 53.0727 242.244 52.6537 243.309 52.6414C243.853 52.6404 244.391 52.7507 244.89 52.9655C245.389 53.1804 245.839 53.4952 246.212 53.8905C246.585 54.2859 246.873 54.7534 247.059 55.2643C247.244 55.7752 247.323 56.3186 247.29 56.8612C247.243 57.9269 246.788 58.9338 246.021 59.6744C245.253 60.4151 244.23 60.833 243.163 60.8421Z" fill="#407BFF"/>
<path d="M196.334 60.8421C195.79 60.8431 195.252 60.7328 194.753 60.5179C194.254 60.3031 193.804 59.9883 193.431 59.593C193.058 59.1976 192.77 58.7301 192.585 58.2192C192.399 57.7083 192.32 57.1648 192.353 56.6223C192.407 55.5588 192.863 54.5555 193.63 53.8162C194.396 53.0769 195.415 52.6569 196.48 52.6414C197.023 52.6404 197.561 52.7507 198.06 52.9655C198.56 53.1804 199.01 53.4952 199.383 53.8905C199.756 54.2859 200.044 54.7534 200.229 55.2643C200.415 55.7752 200.493 56.3186 200.461 56.8612C200.413 57.9269 199.959 58.9338 199.191 59.6744C198.423 60.4151 197.401 60.833 196.334 60.8421Z" fill="#407BFF"/>
<path d="M149.516 60.8421C148.973 60.8431 148.435 60.7328 147.935 60.5179C147.436 60.3031 146.986 59.9883 146.613 59.593C146.24 59.1976 145.952 58.7301 145.767 58.2192C145.581 57.7083 145.503 57.1648 145.535 56.6223C145.592 55.5576 146.052 54.5543 146.82 53.8153C147.589 53.0762 148.609 52.6567 149.675 52.6414C150.219 52.6404 150.757 52.7507 151.256 52.9655C151.755 53.1804 152.205 53.4952 152.578 53.8905C152.951 54.2859 153.239 54.7534 153.425 55.2643C153.61 55.7752 153.689 56.3186 153.656 56.8612C153.609 57.9292 153.152 58.938 152.382 59.679C151.611 60.4199 150.585 60.8364 149.516 60.8421Z" fill="#407BFF"/>
<path d="M102.688 60.8421C102.145 60.8431 101.607 60.7328 101.108 60.5179C100.608 60.3031 100.158 59.9883 99.7854 59.593C99.4125 59.1976 99.1244 58.7301 98.939 58.2192C98.7536 57.7083 98.6748 57.1648 98.7074 56.6223C98.7581 55.5577 99.2135 54.5526 99.9806 53.8126C100.748 53.0727 101.769 52.6537 102.834 52.6414C103.378 52.6404 103.916 52.7507 104.415 52.9655C104.914 53.1804 105.364 53.4952 105.737 53.8905C106.11 54.2859 106.398 54.7534 106.584 55.2643C106.769 55.7752 106.848 56.3186 106.815 56.8612C106.765 57.9258 106.309 58.9309 105.542 59.6708C104.775 60.4108 103.754 60.8298 102.688 60.8421Z" fill="#407BFF"/>
<path d="M55.859 60.8421C55.3155 60.8431 54.7775 60.7328 54.2783 60.5179C53.779 60.3031 53.329 59.9883 52.9561 59.593C52.5831 59.1976 52.295 58.7301 52.1096 58.2192C51.9242 57.7083 51.8454 57.1648 51.878 56.6223C51.9287 55.5577 52.3842 54.5526 53.1513 53.8126C53.9184 53.0727 54.9392 52.6537 56.0049 52.6414C56.5484 52.6404 57.0864 52.7507 57.5856 52.9655C58.0849 53.1804 58.5349 53.4952 58.9078 53.8905C59.2808 54.2859 59.5689 54.7534 59.7543 55.2643C59.9397 55.7752 60.0185 56.3186 59.9859 56.8612C59.9384 57.9269 59.4839 58.9338 58.7161 59.6744C57.9483 60.4151 56.9257 60.833 55.859 60.8421Z" fill="#407BFF"/>
<g opacity="0.1">
<path opacity="0.1" d="M289.991 60.8421C289.448 60.8431 288.91 60.7328 288.41 60.5179C287.911 60.3031 287.461 59.9883 287.088 59.593C286.715 59.1976 286.427 58.7301 286.242 58.2192C286.056 57.7083 285.977 57.1648 286.01 56.6223C286.061 55.5577 286.516 54.5526 287.283 53.8126C288.05 53.0727 289.071 52.6537 290.137 52.6414C290.681 52.6404 291.218 52.7507 291.718 52.9655C292.217 53.1804 292.667 53.4952 293.04 53.8905C293.413 54.2859 293.701 54.7534 293.886 55.2643C294.072 55.7752 294.151 56.3186 294.118 56.8612C294.067 57.9258 293.612 58.9309 292.845 59.6708C292.078 60.4108 291.057 60.8298 289.991 60.8421Z" fill="#FAFAFA"/>
<path opacity="0.1" d="M243.16 60.8421C242.617 60.8431 242.079 60.7328 241.58 60.5179C241.081 60.3031 240.631 59.9883 240.258 59.593C239.885 59.1976 239.597 58.7301 239.411 58.2192C239.226 57.7083 239.147 57.1648 239.18 56.6223C239.23 55.5577 239.686 54.5526 240.453 53.8126C241.22 53.0727 242.241 52.6537 243.306 52.6414C243.85 52.6404 244.388 52.7507 244.887 52.9655C245.386 53.1804 245.836 53.4952 246.209 53.8905C246.582 54.2859 246.87 54.7534 247.056 55.2643C247.241 55.7752 247.32 56.3186 247.287 56.8612C247.24 57.9269 246.785 58.9338 246.018 59.6744C245.25 60.4151 244.227 60.833 243.16 60.8421Z" fill="#FAFAFA"/>
<path opacity="0.1" d="M196.333 60.8421C195.789 60.8431 195.251 60.7328 194.752 60.5179C194.253 60.3031 193.803 59.9883 193.43 59.593C193.057 59.1976 192.769 58.7301 192.584 58.2192C192.398 57.7083 192.319 57.1648 192.352 56.6223C192.406 55.5588 192.862 54.5555 193.629 53.8162C194.395 53.0769 195.414 52.6569 196.479 52.6414C197.022 52.6404 197.56 52.7507 198.06 52.9655C198.559 53.1804 199.009 53.4952 199.382 53.8905C199.755 54.2859 200.043 54.7534 200.228 55.2643C200.414 55.7752 200.492 56.3186 200.46 56.8612C200.412 57.9269 199.958 58.9338 199.19 59.6744C198.422 60.4151 197.4 60.833 196.333 60.8421Z" fill="#FAFAFA"/>
<path opacity="0.1" d="M149.516 60.8421C148.972 60.8431 148.434 60.7328 147.935 60.5179C147.436 60.3031 146.986 59.9883 146.613 59.593C146.24 59.1976 145.952 58.7301 145.767 58.2192C145.581 57.7083 145.502 57.1648 145.535 56.6223C145.592 55.5576 146.051 54.5543 146.82 53.8153C147.589 53.0762 148.609 52.6567 149.675 52.6414C150.219 52.6404 150.757 52.7507 151.256 52.9655C151.755 53.1804 152.205 53.4952 152.578 53.8905C152.951 54.2859 153.239 54.7534 153.425 55.2643C153.61 55.7752 153.689 56.3186 153.656 56.8612C153.608 57.9292 153.152 58.938 152.382 59.679C151.611 60.4199 150.585 60.8364 149.516 60.8421Z" fill="#FAFAFA"/>
<path opacity="0.1" d="M102.688 60.8421C102.145 60.8431 101.607 60.7328 101.108 60.5179C100.608 60.3031 100.158 59.9883 99.7854 59.593C99.4125 59.1976 99.1244 58.7301 98.939 58.2192C98.7536 57.7083 98.6748 57.1648 98.7074 56.6223C98.7581 55.5577 99.2135 54.5526 99.9806 53.8126C100.748 53.0727 101.769 52.6537 102.834 52.6414C103.378 52.6404 103.916 52.7507 104.415 52.9655C104.914 53.1804 105.364 53.4952 105.737 53.8905C106.11 54.2859 106.398 54.7534 106.584 55.2643C106.769 55.7752 106.848 56.3186 106.815 56.8612C106.765 57.9258 106.309 58.9309 105.542 59.6708C104.775 60.4108 103.754 60.8298 102.688 60.8421Z" fill="#FAFAFA"/>
<path opacity="0.1" d="M55.859 60.8427C55.3155 60.8437 54.7775 60.7334 54.2783 60.5185C53.779 60.3037 53.329 59.9889 52.9561 59.5936C52.5831 59.1983 52.295 58.7307 52.1096 58.2198C51.9242 57.7089 51.8454 57.1654 51.878 56.6229C51.9287 55.5583 52.3842 54.5532 53.1513 53.8132C53.9184 53.0733 54.9392 52.6543 56.0049 52.642C56.5484 52.641 57.0864 52.7513 57.5856 52.9661C58.0849 53.181 58.5349 53.4958 58.9078 53.8911C59.2808 54.2865 59.5689 54.754 59.7543 55.2649C59.9397 55.7758 60.0185 56.3192 59.9859 56.8618C59.9384 57.9275 59.4839 58.9344 58.7161 59.675C57.9483 60.4157 56.9257 60.8336 55.859 60.8427Z" fill="#FAFAFA"/>
</g>
<path d="M67.5624 75.6776H44.0085C43.667 75.6804 43.3287 75.6124 43.0148 75.4777C42.701 75.343 42.4186 75.1447 42.1853 74.8953C41.9521 74.6458 41.7732 74.3507 41.6599 74.0285C41.5465 73.7064 41.5013 73.3642 41.527 73.0237C41.5533 72.3282 41.8414 71.6683 42.3335 71.1762C42.8256 70.6841 43.4855 70.396 44.181 70.3697H67.7349C68.0764 70.3669 68.4148 70.435 68.7286 70.5697C69.0424 70.7044 69.3248 70.9027 69.5581 71.1521C69.7913 71.4016 69.9702 71.6967 70.0836 72.0189C70.1969 72.341 70.2421 72.6831 70.2164 73.0237C70.1901 73.7192 69.9021 74.3791 69.4099 74.8712C68.9178 75.3633 68.2579 75.6514 67.5624 75.6776Z" fill="#407BFF"/>
<path d="M114.392 75.6776H90.8378C90.4963 75.6804 90.158 75.6124 89.8442 75.4777C89.5303 75.343 89.2479 75.1447 89.0147 74.8952C88.7814 74.6458 88.6025 74.3506 88.4892 74.0285C88.3759 73.7064 88.3307 73.3642 88.3564 73.0237C88.3835 72.317 88.6808 71.6478 89.187 71.154C89.6932 70.6601 90.3696 70.3794 91.0767 70.3697H114.617C114.959 70.367 115.298 70.4351 115.613 70.5697C115.927 70.7042 116.21 70.9023 116.445 71.1515C116.679 71.4007 116.859 71.6957 116.974 72.0179C117.089 72.34 117.136 72.6825 117.112 73.0237C117.085 73.7303 116.788 74.3996 116.281 74.8934C115.775 75.3872 115.099 75.668 114.392 75.6776Z" fill="#407BFF"/>
<path d="M161.222 75.6776H137.668C137.326 75.6803 136.987 75.6122 136.673 75.4777C136.358 75.3432 136.075 75.1451 135.841 74.8959C135.606 74.6466 135.426 74.3517 135.311 74.0295C135.196 73.7073 135.149 73.3649 135.173 73.0237C135.2 72.317 135.498 71.6478 136.004 71.154C136.51 70.6601 137.186 70.3794 137.894 70.3697H161.461C161.802 70.3669 162.141 70.435 162.454 70.5697C162.768 70.7044 163.051 70.9027 163.284 71.1521C163.517 71.4016 163.696 71.6967 163.809 72.0189C163.923 72.341 163.968 72.6831 163.942 73.0237C163.918 73.7314 163.622 74.4026 163.115 74.8971C162.608 75.3916 161.93 75.6712 161.222 75.6776Z" fill="#407BFF"/>
<path d="M208.037 75.6776H184.483C184.142 75.6804 183.803 75.6124 183.49 75.4777C183.176 75.343 182.893 75.1447 182.66 74.8953C182.427 74.6458 182.248 74.3507 182.135 74.0285C182.021 73.7064 181.976 73.3642 182.002 73.0237C182.028 72.3282 182.316 71.6683 182.808 71.1762C183.3 70.6841 183.96 70.396 184.656 70.3697H208.21C208.551 70.3669 208.89 70.435 209.203 70.5697C209.517 70.7044 209.8 70.9027 210.033 71.1521C210.266 71.4016 210.445 71.6967 210.558 72.0189C210.672 72.341 210.717 72.6831 210.691 73.0237C210.665 73.7192 210.377 74.3791 209.885 74.8712C209.393 75.3633 208.733 75.6514 208.037 75.6776Z" fill="#407BFF"/>
<path d="M254.867 75.6776H231.313C230.971 75.6804 230.633 75.6124 230.319 75.4777C230.005 75.343 229.723 75.1447 229.49 74.8953C229.257 74.6458 229.078 74.3507 228.964 74.0285C228.851 73.7064 228.806 73.3642 228.831 73.0237C228.859 72.317 229.156 71.6478 229.662 71.154C230.168 70.6601 230.845 70.3794 231.552 70.3697H255.106C255.447 70.3669 255.786 70.435 256.099 70.5697C256.413 70.7044 256.696 70.9027 256.929 71.1521C257.162 71.4016 257.341 71.6967 257.454 72.0189C257.568 72.341 257.613 72.6831 257.587 73.0237C257.56 73.7303 257.263 74.3996 256.757 74.8934C256.25 75.3873 255.574 75.668 254.867 75.6776Z" fill="#407BFF"/>
<path d="M301.695 75.6776H278.141C277.799 75.6804 277.461 75.6124 277.147 75.4777C276.833 75.343 276.551 75.1447 276.318 74.8952C276.084 74.6458 275.905 74.3506 275.792 74.0285C275.679 73.7064 275.634 73.3642 275.659 73.0237C275.686 72.317 275.984 71.6478 276.49 71.154C276.996 70.6601 277.673 70.3794 278.38 70.3697H301.92C302.262 70.367 302.601 70.4351 302.916 70.5697C303.23 70.7042 303.513 70.9023 303.748 71.1515C303.982 71.4007 304.162 71.6957 304.277 72.0179C304.392 72.34 304.439 72.6825 304.415 73.0237C304.388 73.7303 304.091 74.3996 303.584 74.8934C303.078 75.3872 302.402 75.668 301.695 75.6776Z" fill="#407BFF"/>
<g opacity="0.3">
<path opacity="0.3" d="M67.5624 75.6776H44.0085C43.667 75.6804 43.3287 75.6124 43.0148 75.4777C42.701 75.343 42.4186 75.1447 42.1853 74.8953C41.9521 74.6458 41.7732 74.3507 41.6599 74.0285C41.5465 73.7064 41.5013 73.3642 41.527 73.0237C41.5533 72.3282 41.8414 71.6683 42.3335 71.1762C42.8256 70.6841 43.4855 70.396 44.181 70.3697H67.7349C68.0764 70.3669 68.4148 70.435 68.7286 70.5697C69.0424 70.7044 69.3248 70.9027 69.5581 71.1521C69.7913 71.4016 69.9702 71.6967 70.0836 72.0189C70.1969 72.341 70.2421 72.6831 70.2164 73.0237C70.1901 73.7192 69.9021 74.3791 69.4099 74.8712C68.9178 75.3633 68.2579 75.6514 67.5624 75.6776Z" fill="black"/>
<path opacity="0.3" d="M114.392 75.6776H90.8383C90.4968 75.6804 90.1585 75.6124 89.8447 75.4777C89.5308 75.343 89.2484 75.1447 89.0151 74.8952C88.7819 74.6458 88.603 74.3506 88.4897 74.0285C88.3764 73.7064 88.3311 73.3642 88.3569 73.0237C88.384 72.317 88.6813 71.6478 89.1875 71.154C89.6937 70.6601 90.3701 70.3794 91.0772 70.3697H114.618C114.96 70.367 115.299 70.4351 115.613 70.5697C115.928 70.7042 116.211 70.9023 116.445 71.1515C116.679 71.4007 116.86 71.6957 116.974 72.0179C117.089 72.34 117.136 72.6825 117.113 73.0237C117.085 73.7303 116.788 74.3996 116.282 74.8934C115.776 75.3872 115.099 75.668 114.392 75.6776Z" fill="black"/>
<path opacity="0.3" d="M161.221 75.6776H137.667C137.325 75.6803 136.987 75.6122 136.672 75.4777C136.358 75.3432 136.074 75.1451 135.84 74.8959C135.606 74.6466 135.426 74.3517 135.311 74.0295C135.196 73.7073 135.149 73.3649 135.173 73.0237C135.2 72.317 135.497 71.6478 136.003 71.154C136.51 70.6601 137.186 70.3794 137.893 70.3697H161.46C161.802 70.3669 162.14 70.435 162.454 70.5697C162.768 70.7044 163.05 70.9027 163.283 71.1521C163.517 71.4016 163.696 71.6967 163.809 72.0189C163.922 72.341 163.967 72.6831 163.942 73.0237C163.918 73.7314 163.621 74.4026 163.115 74.8971C162.608 75.3916 161.93 75.6712 161.221 75.6776Z" fill="black"/>
<path opacity="0.3" d="M208.037 75.6776H184.483C184.142 75.6804 183.803 75.6124 183.489 75.4777C183.176 75.343 182.893 75.1447 182.66 74.8953C182.427 74.6458 182.248 74.3507 182.134 74.0285C182.021 73.7064 181.976 73.3642 182.002 73.0237C182.028 72.3282 182.316 71.6683 182.808 71.1762C183.3 70.6841 183.96 70.396 184.656 70.3697H208.21C208.551 70.3669 208.889 70.435 209.203 70.5697C209.517 70.7044 209.799 70.9027 210.033 71.1521C210.266 71.4016 210.445 71.6967 210.558 72.0189C210.671 72.341 210.717 72.6831 210.691 73.0237C210.665 73.7192 210.377 74.3791 209.885 74.8712C209.392 75.3633 208.732 75.6514 208.037 75.6776Z" fill="black"/>
<path opacity="0.3" d="M254.865 75.6776H231.311C230.969 75.6804 230.631 75.6124 230.317 75.4777C230.003 75.343 229.721 75.1447 229.488 74.8953C229.254 74.6458 229.075 74.3507 228.962 74.0285C228.849 73.7064 228.804 73.3642 228.829 73.0237C228.856 72.317 229.154 71.6478 229.66 71.154C230.166 70.6601 230.843 70.3794 231.55 70.3697H255.104C255.445 70.3669 255.783 70.435 256.097 70.5697C256.411 70.7044 256.693 70.9027 256.927 71.1521C257.16 71.4016 257.339 71.6967 257.452 72.0189C257.565 72.341 257.611 72.6831 257.585 73.0237C257.558 73.7303 257.261 74.3996 256.754 74.8934C256.248 75.3873 255.572 75.668 254.865 75.6776Z" fill="black"/>
<path opacity="0.3" d="M301.695 75.6776H278.141C277.8 75.6804 277.461 75.6124 277.148 75.4777C276.834 75.343 276.551 75.1447 276.318 74.8952C276.085 74.6458 275.906 74.3506 275.793 74.0285C275.679 73.7064 275.634 73.3642 275.66 73.0237C275.687 72.317 275.984 71.6478 276.49 71.154C276.997 70.6601 277.673 70.3794 278.38 70.3697H301.921C302.263 70.367 302.602 70.4351 302.916 70.5697C303.231 70.7042 303.514 70.9023 303.748 71.1515C303.982 71.4007 304.163 71.6957 304.277 72.0179C304.392 72.34 304.439 72.6825 304.416 73.0237C304.388 73.7303 304.091 74.3996 303.585 74.8934C303.079 75.3872 302.402 75.668 301.695 75.6776Z" fill="black"/>
</g>
<path d="M68.8628 125.798H38.183C37.5101 125.8 36.8437 125.666 36.2246 125.402C35.6055 125.139 35.0466 124.752 34.5821 124.265C34.1176 123.778 33.7572 123.202 33.5231 122.571C33.2889 121.94 33.1858 121.268 33.2201 120.596L34.547 89.9161C34.6275 88.5216 35.2337 87.2095 36.2433 86.2442C37.2529 85.2789 38.5909 84.7322 39.9877 84.7144H70.6675C71.3404 84.7117 72.0067 84.8462 72.6259 85.1098C73.245 85.3734 73.8038 85.7604 74.2683 86.2473C74.7328 86.7341 75.0932 87.3106 75.3274 87.9414C75.5616 88.5722 75.6647 89.2441 75.6304 89.9161L74.3034 120.596C74.2199 121.989 73.6128 123.3 72.6038 124.264C71.5948 125.229 70.2586 125.777 68.8628 125.798Z" fill="#407BFF"/>
<path d="M115.693 125.798H85.0133C84.3398 125.802 83.6726 125.669 83.0526 125.406C82.4326 125.143 81.8729 124.756 81.408 124.269C80.9431 123.782 80.5829 123.205 80.3494 122.573C80.1159 121.941 80.0141 121.268 80.0504 120.596L81.3773 89.9161C81.4578 88.5216 82.064 87.2095 83.0736 86.2442C84.0832 85.2789 85.4212 84.7322 86.818 84.7144H117.538C118.211 84.7118 118.878 84.8463 119.498 85.1097C120.118 85.3731 120.677 85.7599 121.143 86.2466C121.608 86.7332 121.97 87.3095 122.206 87.9404C122.441 88.5712 122.546 89.2435 122.514 89.9161L121.12 120.596C121.043 121.989 120.44 123.301 119.432 124.267C118.425 125.233 117.088 125.78 115.693 125.798Z" fill="#407BFF"/>
<path d="M162.51 125.798H131.843C131.17 125.8 130.503 125.666 129.883 125.402C129.263 125.139 128.703 124.752 128.238 124.266C127.772 123.779 127.411 123.203 127.175 122.572C126.939 121.941 126.834 121.269 126.867 120.596L128.194 89.9162C128.274 88.5217 128.88 87.2096 129.89 86.2443C130.9 85.279 132.238 84.7323 133.634 84.7145H164.301C164.974 84.7099 165.642 84.8431 166.262 85.106C166.882 85.3689 167.441 85.7559 167.906 86.2431C168.371 86.7304 168.731 87.3076 168.965 87.9393C169.198 88.571 169.3 89.2437 169.264 89.9162L167.937 120.596C167.857 121.988 167.252 123.299 166.246 124.264C165.239 125.228 163.904 125.777 162.51 125.798Z" fill="#407BFF"/>
<path d="M209.339 125.798H178.712C178.038 125.802 177.371 125.669 176.75 125.406C176.129 125.143 175.569 124.757 175.103 124.27C174.637 123.783 174.275 123.206 174.04 122.574C173.805 121.942 173.702 121.269 173.736 120.596L175.063 89.9161C175.14 88.5228 175.744 87.2107 176.751 86.2451C177.759 85.2795 179.095 84.7324 180.49 84.7144H211.17C211.843 84.7117 212.51 84.8462 213.129 85.1098C213.748 85.3734 214.307 85.7604 214.771 86.2473C215.236 86.7341 215.596 87.3106 215.83 87.9414C216.064 88.5722 216.168 89.2441 216.133 89.9161L214.806 120.596C214.725 121.995 214.116 123.311 213.1 124.277C212.085 125.243 210.74 125.787 209.339 125.798Z" fill="#407BFF"/>
<path d="M256.167 125.798H225.488C224.815 125.8 224.148 125.666 223.529 125.402C222.91 125.139 222.351 124.752 221.887 124.265C221.422 123.778 221.062 123.202 220.828 122.571C220.594 121.94 220.49 121.268 220.525 120.596L221.852 89.9162C221.932 88.5217 222.538 87.2096 223.548 86.2443C224.558 85.279 225.896 84.7323 227.292 84.7145H257.959C258.633 84.71 259.301 84.8432 259.921 85.1059C260.542 85.3687 261.103 85.7554 261.568 86.2425C262.034 86.7295 262.396 87.3066 262.631 87.9383C262.866 88.57 262.969 89.2431 262.935 89.9162L261.608 120.596C261.525 121.989 260.917 123.3 259.908 124.264C258.9 125.229 257.563 125.777 256.167 125.798Z" fill="#407BFF"/>
<path d="M302.983 125.798H272.316C271.643 125.802 270.975 125.669 270.355 125.406C269.735 125.143 269.176 124.756 268.711 124.269C268.246 123.782 267.886 123.205 267.652 122.573C267.419 121.941 267.317 121.268 267.353 120.596L268.68 89.9161C268.761 88.5216 269.367 87.2095 270.376 86.2442C271.386 85.2789 272.724 84.7322 274.121 84.7144H304.787C305.461 84.7118 306.128 84.8463 306.747 85.1097C307.367 85.3731 307.927 85.7599 308.392 86.2466C308.858 86.7332 309.22 87.3095 309.455 87.9404C309.691 88.5712 309.796 89.2435 309.763 89.9161L308.37 120.596C308.293 121.983 307.696 123.289 306.697 124.254C305.698 125.218 304.371 125.77 302.983 125.798Z" fill="#407BFF"/>
<g opacity="0.8">
<path opacity="0.8" d="M68.8628 125.799H38.183C37.5101 125.801 36.8437 125.667 36.2246 125.403C35.6055 125.14 35.0466 124.753 34.5821 124.266C34.1176 123.779 33.7572 123.202 33.5231 122.572C33.2889 121.941 33.1858 121.269 33.2201 120.597L34.547 89.917C34.6275 88.5225 35.2337 87.2103 36.2433 86.245C37.2529 85.2797 38.5909 84.7331 39.9877 84.7152H70.6675C71.3404 84.7126 72.0067 84.8471 72.6259 85.1107C73.245 85.3742 73.8038 85.7613 74.2683 86.2481C74.7328 86.735 75.0932 87.3114 75.3274 87.9422C75.5616 88.5731 75.6647 89.245 75.6304 89.917L74.3034 120.597C74.2199 121.99 73.6128 123.301 72.6038 124.265C71.5948 125.23 70.2586 125.778 68.8628 125.799Z" fill="#FAFAFA"/>
<path opacity="0.8" d="M115.692 125.798H85.0123C84.3389 125.802 83.6716 125.669 83.0516 125.406C82.4316 125.143 81.8719 124.756 81.407 124.269C80.9422 123.782 80.5819 123.205 80.3484 122.573C80.1149 121.941 80.0132 121.268 80.0494 120.596L81.3764 89.9161C81.4568 88.5216 82.063 87.2095 83.0726 86.2442C84.0822 85.2789 85.4203 84.7322 86.817 84.7144H117.537C118.21 84.7118 118.877 84.8463 119.497 85.1097C120.117 85.3731 120.676 85.7599 121.142 86.2466C121.607 86.7332 121.969 87.3095 122.205 87.9404C122.44 88.5712 122.545 89.2435 122.513 89.9161L121.119 120.596C121.042 121.989 120.439 123.301 119.431 124.267C118.424 125.233 117.087 125.78 115.692 125.798Z" fill="#FAFAFA"/>
<path opacity="0.8" d="M162.508 125.798H131.841C131.168 125.8 130.501 125.666 129.881 125.402C129.261 125.139 128.701 124.752 128.236 124.266C127.77 123.779 127.409 123.203 127.173 122.572C126.937 121.941 126.832 121.269 126.865 120.596L128.192 89.9162C128.272 88.5217 128.878 87.2096 129.888 86.2443C130.898 85.279 132.236 84.7323 133.632 84.7145H164.299C164.972 84.7099 165.64 84.8431 166.26 85.106C166.88 85.3689 167.439 85.7559 167.904 86.2431C168.369 86.7304 168.729 87.3076 168.963 87.9393C169.196 88.571 169.298 89.2437 169.262 89.9162L167.935 120.596C167.855 121.988 167.25 123.299 166.244 124.264C165.237 125.228 163.902 125.777 162.508 125.798Z" fill="#FAFAFA"/>
<path opacity="0.8" d="M209.337 125.798H178.71C178.036 125.802 177.369 125.669 176.748 125.406C176.127 125.143 175.567 124.757 175.101 124.27C174.635 123.783 174.273 123.206 174.038 122.574C173.803 121.942 173.7 121.269 173.734 120.596L175.061 89.9161C175.138 88.5228 175.742 87.2107 176.749 86.2451C177.757 85.2795 179.093 84.7324 180.489 84.7144H211.168C211.841 84.7117 212.508 84.8462 213.127 85.1098C213.746 85.3734 214.305 85.7604 214.769 86.2473C215.234 86.7341 215.594 87.3106 215.828 87.9414C216.062 88.5722 216.166 89.2441 216.131 89.9161L214.804 120.596C214.724 121.995 214.114 123.311 213.098 124.277C212.083 125.243 210.738 125.787 209.337 125.798Z" fill="#FAFAFA"/>
<path opacity="0.8" d="M256.165 125.798H225.486C224.813 125.8 224.146 125.666 223.527 125.402C222.908 125.139 222.349 124.752 221.885 124.265C221.42 123.778 221.06 123.202 220.826 122.571C220.592 121.94 220.489 121.268 220.523 120.596L221.85 89.9162C221.93 88.5217 222.536 87.2096 223.546 86.2443C224.556 85.279 225.894 84.7323 227.29 84.7145H257.957C258.631 84.71 259.299 84.8432 259.919 85.1059C260.54 85.3687 261.101 85.7554 261.567 86.2425C262.032 86.7295 262.394 87.3066 262.629 87.9383C262.864 88.57 262.967 89.2431 262.933 89.9162L261.606 120.596C261.523 121.989 260.916 123.3 259.907 124.264C258.898 125.229 257.561 125.777 256.165 125.798Z" fill="#FAFAFA"/>
<path opacity="0.8" d="M302.983 125.798H272.317C271.643 125.802 270.976 125.669 270.356 125.406C269.736 125.143 269.176 124.756 268.712 124.269C268.247 123.782 267.886 123.205 267.653 122.573C267.419 121.941 267.318 121.268 267.354 120.596L268.681 89.9161C268.761 88.5216 269.367 87.2095 270.377 86.2442C271.387 85.2789 272.725 84.7322 274.121 84.7144H304.788C305.461 84.7118 306.128 84.8463 306.748 85.1097C307.368 85.3731 307.928 85.7599 308.393 86.2466C308.859 86.7332 309.22 87.3095 309.456 87.9404C309.692 88.5712 309.797 89.2435 309.764 89.9161L308.371 120.596C308.294 121.983 307.696 123.289 306.697 124.254C305.698 125.218 304.372 125.77 302.983 125.798Z" fill="#FAFAFA"/>
</g>
<path d="M66.7126 173.397H36.0328C35.3599 173.399 34.6936 173.265 34.0744 173.001C33.4553 172.738 32.8964 172.351 32.4319 171.864C31.9674 171.377 31.6071 170.801 31.3729 170.17C31.1387 169.539 31.0356 168.867 31.0699 168.195L32.3969 137.515C32.4804 136.122 33.0875 134.811 34.0965 133.847C35.1054 132.882 36.4417 132.334 37.8375 132.313H68.5704C69.2433 132.311 69.9096 132.445 70.5288 132.709C71.1479 132.972 71.7068 133.359 72.1713 133.846C72.6358 134.333 72.9961 134.91 73.2303 135.54C73.4645 136.171 73.5676 136.843 73.5333 137.515L72.2063 168.195C72.1221 169.597 71.5076 170.915 70.4873 171.881C69.4671 172.847 68.1176 173.389 66.7126 173.397Z" fill="#407BFF"/>
<path d="M113.542 173.397H82.8624C82.1895 173.399 81.5232 173.265 80.904 173.001C80.2849 172.738 79.726 172.351 79.2615 171.864C78.797 171.377 78.4367 170.801 78.2025 170.17C77.9683 169.539 77.8652 168.867 77.8995 168.195L79.2265 137.515C79.3069 136.121 79.9131 134.809 80.9227 133.843C81.9323 132.878 83.2704 132.331 84.6671 132.313H115.334C116.013 132.309 116.686 132.443 117.311 132.709C117.936 132.975 118.5 133.366 118.968 133.859C119.436 134.352 119.797 134.935 120.03 135.573C120.263 136.211 120.363 136.89 120.323 137.568L118.996 168.195C118.919 169.593 118.312 170.909 117.298 171.875C116.285 172.841 114.942 173.385 113.542 173.397Z" fill="#407BFF"/>
<path d="M160.357 173.397H129.691C129.017 173.401 128.35 173.268 127.73 173.005C127.11 172.742 126.55 172.355 126.085 171.868C125.621 171.381 125.26 170.804 125.027 170.172C124.793 169.54 124.692 168.867 124.728 168.195L126.055 137.515C126.135 136.121 126.741 134.809 127.751 133.843C128.761 132.878 130.099 132.331 131.495 132.313H162.162C162.835 132.309 163.503 132.442 164.123 132.705C164.743 132.968 165.302 133.355 165.767 133.842C166.232 134.329 166.592 134.907 166.826 135.538C167.059 136.17 167.161 136.843 167.125 137.515L165.798 168.195C165.717 169.59 165.111 170.902 164.102 171.867C163.092 172.832 161.754 173.379 160.357 173.397Z" fill="#407BFF"/>
<path d="M207.189 173.397H176.522C175.849 173.399 175.182 173.265 174.562 173.001C173.942 172.738 173.383 172.351 172.917 171.865C172.451 171.378 172.09 170.802 171.854 170.171C171.618 169.54 171.514 168.868 171.546 168.195L172.873 137.515C172.95 136.122 173.554 134.81 174.561 133.844C175.568 132.879 176.905 132.331 178.3 132.313H208.98C209.663 132.301 210.342 132.43 210.972 132.693C211.603 132.956 212.173 133.346 212.645 133.84C213.118 134.334 213.483 134.92 213.717 135.561C213.952 136.203 214.052 136.886 214.009 137.568L212.682 168.248C212.588 169.642 211.969 170.949 210.95 171.904C209.93 172.86 208.586 173.393 207.189 173.397Z" fill="#407BFF"/>
<path d="M254.017 173.396H223.337C222.665 173.399 221.998 173.265 221.379 173.001C220.76 172.737 220.201 172.35 219.737 171.864C219.272 171.377 218.912 170.8 218.678 170.169C218.443 169.539 218.34 168.867 218.375 168.195L219.702 137.515C219.772 136.11 220.376 134.784 221.389 133.808C222.402 132.832 223.749 132.279 225.155 132.26H255.835C256.508 132.257 257.174 132.392 257.794 132.655C258.413 132.919 258.972 133.306 259.436 133.793C259.901 134.28 260.261 134.856 260.495 135.487C260.729 136.118 260.832 136.79 260.798 137.462L259.471 168.142C259.4 169.547 258.797 170.872 257.784 171.848C256.771 172.824 255.424 173.378 254.017 173.396Z" fill="#407BFF"/>
<path d="M300.793 173.397H270.166C269.492 173.401 268.825 173.268 268.205 173.005C267.585 172.742 267.025 172.355 266.561 171.868C266.096 171.381 265.735 170.804 265.502 170.172C265.268 169.54 265.167 168.867 265.203 168.195L266.53 137.515C266.61 136.121 267.217 134.808 268.226 133.843C269.236 132.878 270.574 132.331 271.971 132.313H302.637C303.311 132.311 303.978 132.445 304.597 132.709C305.217 132.972 305.777 133.359 306.242 133.846C306.708 134.332 307.069 134.908 307.305 135.539C307.541 136.17 307.646 136.842 307.613 137.515L306.22 168.195C306.143 169.588 305.539 170.9 304.532 171.866C303.524 172.832 302.188 173.379 300.793 173.397Z" fill="#407BFF"/>
<g opacity="0.8">
<path opacity="0.8" d="M66.7126 173.397H36.0328C35.3599 173.4 34.6936 173.265 34.0744 173.002C33.4553 172.738 32.8964 172.351 32.4319 171.864C31.9674 171.377 31.6071 170.801 31.3729 170.17C31.1387 169.539 31.0356 168.867 31.0699 168.195L32.3969 137.515C32.4804 136.122 33.0875 134.812 34.0965 133.847C35.1054 132.882 36.4417 132.335 37.8375 132.314H68.5704C69.2433 132.311 69.9096 132.445 70.5288 132.709C71.1479 132.973 71.7068 133.36 72.1713 133.847C72.6358 134.333 72.9961 134.91 73.2303 135.541C73.4645 136.171 73.5676 136.843 73.5333 137.515L72.2063 168.195C72.1221 169.598 71.5076 170.916 70.4873 171.882C69.4671 172.848 68.1176 173.389 66.7126 173.397Z" fill="#FAFAFA"/>
<path opacity="0.8" d="M113.541 173.396H82.8614C82.1886 173.399 81.5222 173.264 80.9031 173.001C80.2839 172.737 79.725 172.35 79.2605 171.863C78.7961 171.376 78.4357 170.8 78.2015 170.169C77.9673 169.538 77.8642 168.866 77.8985 168.194L79.2255 137.515C79.306 136.12 79.9121 134.808 80.9217 133.843C81.9314 132.877 83.2694 132.331 84.6661 132.313H115.333C116.012 132.308 116.685 132.443 117.31 132.709C117.935 132.974 118.499 133.366 118.967 133.858C119.435 134.351 119.796 134.934 120.029 135.572C120.262 136.21 120.362 136.89 120.322 137.568L118.995 168.194C118.918 169.592 118.311 170.908 117.297 171.874C116.284 172.841 114.941 173.385 113.541 173.396Z" fill="#FAFAFA"/>
<path opacity="0.8" d="M160.356 173.396H129.69C129.016 173.401 128.349 173.268 127.729 173.005C127.109 172.742 126.549 172.355 126.085 171.868C125.62 171.38 125.259 170.803 125.026 170.171C124.792 169.54 124.691 168.867 124.727 168.194L126.054 137.515C126.134 136.12 126.74 134.808 127.75 133.843C128.76 132.877 130.098 132.331 131.494 132.313H162.161C162.834 132.308 163.502 132.441 164.122 132.704C164.742 132.967 165.301 133.354 165.766 133.842C166.231 134.329 166.591 134.906 166.825 135.538C167.058 136.169 167.16 136.842 167.124 137.515L165.797 168.194C165.716 169.589 165.11 170.901 164.101 171.866C163.091 172.832 161.753 173.378 160.356 173.396Z" fill="#FAFAFA"/>
<path opacity="0.8" d="M207.185 173.396H176.519C175.845 173.399 175.178 173.264 174.558 173.001C173.939 172.737 173.379 172.351 172.913 171.864C172.448 171.377 172.086 170.801 171.85 170.17C171.615 169.539 171.51 168.867 171.542 168.194L172.869 137.515C172.947 136.121 173.55 134.809 174.557 133.844C175.565 132.878 176.901 132.331 178.297 132.313H208.977C209.66 132.301 210.338 132.43 210.969 132.693C211.599 132.955 212.169 133.346 212.641 133.839C213.114 134.333 213.479 134.919 213.714 135.561C213.949 136.202 214.048 136.886 214.006 137.568L212.679 168.247C212.585 169.642 211.965 170.948 210.946 171.904C209.926 172.859 208.582 173.393 207.185 173.396Z" fill="#FAFAFA"/>
<path opacity="0.8" d="M254.013 173.396H223.334C222.661 173.399 221.994 173.265 221.375 173.001C220.756 172.737 220.197 172.35 219.733 171.864C219.268 171.377 218.908 170.8 218.674 170.169C218.439 169.539 218.336 168.867 218.371 168.195L219.698 137.515C219.768 136.11 220.372 134.784 221.385 133.808C222.398 132.832 223.745 132.279 225.152 132.26H255.831C256.504 132.257 257.171 132.392 257.79 132.655C258.409 132.919 258.968 133.306 259.432 133.793C259.897 134.28 260.257 134.856 260.491 135.487C260.725 136.118 260.829 136.79 260.794 137.462L259.467 168.142C259.397 169.547 258.793 170.872 257.78 171.848C256.767 172.824 255.42 173.378 254.013 173.396Z" fill="#FAFAFA"/>
<path opacity="0.8" d="M300.792 173.397H270.165C269.491 173.401 268.824 173.268 268.204 173.005C267.584 172.742 267.024 172.355 266.56 171.868C266.095 171.381 265.734 170.803 265.501 170.172C265.268 169.54 265.166 168.867 265.202 168.195L266.529 137.515C266.609 136.12 267.216 134.808 268.225 133.843C269.235 132.878 270.573 132.331 271.97 132.313H302.636C303.31 132.311 303.977 132.445 304.596 132.709C305.216 132.972 305.776 133.359 306.241 133.845C306.707 134.332 307.069 134.908 307.304 135.539C307.54 136.17 307.645 136.842 307.612 137.515L306.219 168.195C306.142 169.588 305.538 170.9 304.531 171.866C303.523 172.831 302.187 173.379 300.792 173.397Z" fill="#FAFAFA"/>
</g>
<path d="M64.5897 220.982H33.8834C33.21 220.986 32.5427 220.853 31.9227 220.59C31.3027 220.327 30.743 219.94 30.2781 219.453C29.8133 218.966 29.453 218.389 29.2195 217.757C28.986 217.125 28.8843 216.453 28.9205 215.78L30.2475 185.113C30.3279 183.719 30.9341 182.407 31.9437 181.442C32.9533 180.476 34.2914 179.93 35.6881 179.912H66.3679C67.0413 179.907 67.7086 180.04 68.3286 180.303C68.9486 180.566 69.5083 180.953 69.9732 181.44C70.438 181.928 70.7983 182.505 71.0318 183.137C71.2653 183.768 71.367 184.441 71.3308 185.113L70.0038 215.78C69.9268 217.171 69.3253 218.481 68.3207 219.447C67.316 220.412 65.9828 220.96 64.5897 220.982Z" fill="#407BFF"/>
<path d="M111.393 220.982H80.7127C80.0393 220.986 79.372 220.853 78.752 220.59C78.132 220.327 77.5723 219.941 77.1075 219.453C76.6426 218.966 76.2823 218.389 76.0488 217.757C75.8153 217.125 75.7136 216.453 75.7498 215.78L77.0768 185.114C77.1542 183.718 77.7594 182.404 78.7697 181.438C79.78 180.472 81.1197 179.927 82.5174 179.912H113.184C113.859 179.905 114.527 180.037 115.149 180.299C115.77 180.561 116.332 180.948 116.798 181.436C117.264 181.923 117.626 182.501 117.86 183.134C118.094 183.766 118.196 184.44 118.16 185.114L116.833 215.78C116.759 217.177 116.155 218.493 115.144 219.459C114.133 220.426 112.791 220.97 111.393 220.982Z" fill="#407BFF"/>
<path d="M158.21 220.982H127.543C126.87 220.986 126.203 220.853 125.583 220.59C124.963 220.327 124.403 219.94 123.938 219.453C123.473 218.966 123.113 218.389 122.879 217.757C122.646 217.125 122.544 216.453 122.58 215.78L123.907 185.113C123.985 183.718 124.59 182.404 125.6 181.438C126.611 180.472 127.95 179.926 129.348 179.912H160.134C160.808 179.907 161.476 180.04 162.096 180.303C162.717 180.566 163.278 180.953 163.744 181.44C164.209 181.927 164.571 182.504 164.806 183.136C165.041 183.767 165.145 184.44 165.11 185.113L163.717 215.78C163.639 217.187 163.024 218.511 162 219.478C160.975 220.446 159.619 220.984 158.21 220.982Z" fill="#407BFF"/>
<path d="M205.039 220.982H174.373C173.699 220.986 173.031 220.853 172.41 220.59C171.79 220.328 171.229 219.941 170.763 219.454C170.297 218.967 169.936 218.39 169.701 217.758C169.466 217.126 169.362 216.453 169.397 215.78L170.724 185.113C170.798 183.719 171.4 182.405 172.408 181.439C173.416 180.473 174.755 179.927 176.151 179.912H206.831C207.504 179.907 208.171 180.04 208.791 180.303C209.411 180.566 209.971 180.953 210.436 181.44C210.901 181.928 211.261 182.505 211.495 183.137C211.728 183.768 211.83 184.441 211.794 185.113L210.467 215.78C210.389 217.173 209.786 218.485 208.779 219.451C207.771 220.417 206.435 220.964 205.039 220.982Z" fill="#407BFF"/>
<path d="M251.868 220.982H221.175C220.502 220.986 219.834 220.853 219.214 220.59C218.594 220.327 218.035 219.94 217.57 219.453C217.105 218.966 216.745 218.389 216.511 217.757C216.278 217.125 216.176 216.453 216.212 215.78L217.539 185.113C217.62 183.719 218.226 182.407 219.235 181.442C220.245 180.476 221.583 179.93 222.98 179.912H253.66C254.333 179.907 255 180.04 255.62 180.303C256.24 180.566 256.8 180.953 257.265 181.44C257.73 181.928 258.09 182.505 258.324 183.137C258.557 183.768 258.659 184.441 258.623 185.113L257.296 215.78C257.215 217.172 256.611 218.483 255.604 219.448C254.597 220.413 253.263 220.961 251.868 220.982Z" fill="#407BFF"/>
<path d="M298.697 220.982H268.017C267.344 220.986 266.677 220.853 266.057 220.59C265.437 220.327 264.877 219.94 264.412 219.453C263.947 218.966 263.587 218.389 263.354 217.757C263.12 217.125 263.018 216.453 263.055 215.78L264.381 185.113C264.459 183.718 265.064 182.404 266.074 181.438C267.085 180.472 268.424 179.926 269.822 179.912H300.489C301.163 179.907 301.83 180.04 302.451 180.303C303.072 180.566 303.632 180.953 304.098 181.44C304.564 181.927 304.926 182.504 305.161 183.136C305.396 183.767 305.499 184.44 305.465 185.113L304.072 215.78C303.998 217.165 303.403 218.472 302.406 219.437C301.409 220.402 300.084 220.954 298.697 220.982Z" fill="#407BFF"/>
<g opacity="0.8">
<path opacity="0.8" d="M64.5897 220.982H33.8834C33.21 220.986 32.5427 220.853 31.9227 220.59C31.3027 220.327 30.743 219.94 30.2781 219.453C29.8133 218.966 29.453 218.389 29.2195 217.757C28.986 217.125 28.8843 216.453 28.9205 215.78L30.2475 185.113C30.3279 183.719 30.9341 182.407 31.9437 181.442C32.9533 180.476 34.2914 179.93 35.6881 179.912H66.3679C67.0413 179.907 67.7086 180.04 68.3286 180.303C68.9486 180.566 69.5083 180.953 69.9732 181.44C70.438 181.928 70.7983 182.505 71.0318 183.137C71.2653 183.768 71.367 184.441 71.3308 185.113L70.0038 215.78C69.9268 217.171 69.3253 218.481 68.3207 219.447C67.316 220.412 65.9828 220.96 64.5897 220.982Z" fill="#FAFAFA"/>
<path opacity="0.8" d="M111.392 220.982H80.7122C80.0388 220.987 79.3716 220.853 78.7515 220.591C78.1315 220.328 77.5719 219.941 77.107 219.453C76.6421 218.966 76.2818 218.389 76.0483 217.757C75.8149 217.125 75.7131 216.453 75.7493 215.78L77.0763 185.114C77.1537 183.718 77.7589 182.404 78.7692 181.438C79.7795 180.472 81.1193 179.927 82.5169 179.912H113.183C113.858 179.906 114.527 180.037 115.148 180.3C115.77 180.562 116.331 180.948 116.797 181.436C117.264 181.923 117.625 182.501 117.86 183.134C118.094 183.766 118.196 184.44 118.16 185.114L116.833 215.78C116.758 217.177 116.154 218.493 115.143 219.459C114.132 220.426 112.791 220.97 111.392 220.982Z" fill="#FAFAFA"/>
<path opacity="0.8" d="M158.206 220.982H127.54C126.866 220.987 126.199 220.853 125.579 220.59C124.959 220.327 124.4 219.941 123.935 219.453C123.47 218.966 123.109 218.389 122.876 217.757C122.643 217.125 122.541 216.453 122.577 215.78L123.904 185.114C123.981 183.718 124.587 182.404 125.597 181.438C126.607 180.472 127.947 179.927 129.345 179.912H160.131C160.805 179.907 161.472 180.041 162.093 180.303C162.714 180.566 163.274 180.953 163.74 181.44C164.206 181.927 164.568 182.504 164.803 183.136C165.038 183.767 165.141 184.44 165.107 185.114L163.713 215.78C163.635 217.187 163.021 218.511 161.996 219.478C160.972 220.446 159.616 220.984 158.206 220.982Z" fill="#FAFAFA"/>
<path opacity="0.8" d="M205.036 220.982H174.369C173.695 220.986 173.027 220.853 172.407 220.59C171.786 220.328 171.226 219.941 170.76 219.454C170.294 218.967 169.932 218.39 169.697 217.758C169.462 217.126 169.359 216.453 169.393 215.78L170.72 185.114C170.794 183.719 171.397 182.405 172.405 181.439C173.413 180.473 174.751 179.927 176.147 179.912H206.827C207.501 179.907 208.168 180.041 208.788 180.303C209.408 180.566 209.968 180.953 210.433 181.441C210.897 181.928 211.258 182.505 211.491 183.137C211.725 183.768 211.826 184.441 211.79 185.114L210.463 215.78C210.386 217.174 209.783 218.486 208.775 219.451C207.768 220.417 206.431 220.964 205.036 220.982Z" fill="#FAFAFA"/>
<path opacity="0.8" d="M251.865 220.982H221.172C220.498 220.987 219.831 220.853 219.211 220.59C218.591 220.328 218.031 219.941 217.566 219.453C217.102 218.966 216.741 218.389 216.508 217.757C216.274 217.125 216.173 216.453 216.209 215.78L217.536 185.114C217.616 183.719 218.222 182.407 219.232 181.442C220.242 180.476 221.58 179.93 222.976 179.912H253.656C254.33 179.907 254.997 180.041 255.617 180.303C256.237 180.566 256.797 180.953 257.261 181.441C257.726 181.928 258.087 182.505 258.32 183.137C258.554 183.768 258.655 184.441 258.619 185.114L257.292 215.78C257.212 217.172 256.608 218.483 255.601 219.448C254.594 220.413 253.259 220.961 251.865 220.982Z" fill="#FAFAFA"/>
<path opacity="0.8" d="M298.695 220.982H268.015C267.342 220.987 266.674 220.853 266.054 220.59C265.434 220.327 264.875 219.941 264.41 219.453C263.945 218.966 263.585 218.389 263.351 217.757C263.118 217.125 263.016 216.453 263.052 215.78L264.379 185.114C264.456 183.718 265.062 182.404 266.072 181.438C267.082 180.472 268.422 179.927 269.82 179.912H300.486C301.16 179.907 301.828 180.041 302.449 180.303C303.069 180.566 303.63 180.953 304.096 181.44C304.562 181.927 304.923 182.504 305.158 183.136C305.393 183.767 305.497 184.44 305.462 185.114L304.069 215.78C303.996 217.166 303.401 218.472 302.404 219.437C301.407 220.402 300.082 220.954 298.695 220.982Z" fill="#FAFAFA"/>
</g>
<path d="M55.8981 59.8601C44.5923 59.8601 35.728 46.7098 35.728 29.9234C35.728 13.1371 44.5923 0 55.8981 0C67.204 0 76.0815 13.1504 76.0815 29.9234C76.03 30.7102 75.6812 31.4478 75.1058 31.9868C74.5303 32.5258 73.7714 32.8257 72.983 32.8257C72.1946 32.8257 71.4357 32.5258 70.8603 31.9868C70.2849 31.4478 69.9361 30.7102 69.8845 29.9234C69.8845 17.065 63.4885 6.18374 55.8981 6.18374C48.3078 6.18374 41.9118 17.065 41.9118 29.9234C41.9118 42.7819 48.3211 53.6631 55.8981 53.6631C56.3221 53.6354 56.7473 53.6949 57.1473 53.8381C57.5473 53.9812 57.9137 54.2049 58.2237 54.4954C58.5338 54.7858 58.781 55.1368 58.95 55.5266C59.119 55.9164 59.2062 56.3368 59.2062 56.7616C59.2062 57.1865 59.119 57.6068 58.95 57.9967C58.781 58.3865 58.5338 58.7375 58.2237 59.0279C57.9137 59.3183 57.5473 59.542 57.1473 59.6852C56.7473 59.8283 56.3221 59.8879 55.8981 59.8601Z" fill="#407BFF"/>
<path d="M102.728 59.8601C91.4219 59.8601 82.5576 46.7098 82.5576 29.9234C82.5576 13.1371 91.4219 0 102.728 0C114.034 0 122.977 13.1504 122.977 29.9234C122.926 30.7102 122.577 31.4478 122.002 31.9868C121.426 32.5258 120.667 32.8257 119.879 32.8257C119.091 32.8257 118.332 32.5258 117.756 31.9868C117.181 31.4478 116.832 30.7102 116.78 29.9234C116.78 17.065 110.384 6.18374 102.794 6.18374C95.2038 6.18374 88.8077 17.065 88.8077 29.9234C88.8077 42.7819 95.217 53.6631 102.794 53.6631C103.581 53.7146 104.318 54.0635 104.857 54.6389C105.396 55.2143 105.696 55.9732 105.696 56.7617C105.696 57.5501 105.396 58.3089 104.857 58.8843C104.318 59.4598 103.581 59.8086 102.794 59.8601H102.728Z" fill="#407BFF"/>
<path d="M149.517 59.8601C138.198 59.8601 129.333 46.7098 129.333 29.9234C129.333 13.1371 138.198 0 149.517 0C160.836 0 169.687 13.1504 169.687 29.9234C169.687 30.7435 169.361 31.5299 168.781 32.1097C168.202 32.6895 167.415 33.0153 166.595 33.0153C165.775 33.0153 164.989 32.6895 164.409 32.1097C163.829 31.5299 163.503 30.7435 163.503 29.9234C163.503 17.065 157.094 6.18374 149.517 6.18374C141.94 6.18374 135.531 17.065 135.531 29.9234C135.531 42.7819 141.94 53.6631 149.517 53.6631C150.304 53.7146 151.041 54.0635 151.58 54.6389C152.119 55.2143 152.419 55.9732 152.419 56.7617C152.419 57.5501 152.119 58.3089 151.58 58.8843C151.041 59.4598 150.304 59.8086 149.517 59.8601Z" fill="#407BFF"/>
<path d="M196.386 59.8601C185.066 59.8601 176.202 46.7098 176.202 29.9234C176.202 13.1371 185.066 0 196.386 0C207.705 0 216.556 13.1504 216.556 29.9234C216.556 30.7435 216.23 31.5299 215.65 32.1097C215.07 32.6895 214.284 33.0153 213.464 33.0153C212.644 33.0153 211.857 32.6895 211.278 32.1097C210.698 31.5299 210.372 30.7435 210.372 29.9234C210.372 17.065 203.963 6.18374 196.386 6.18374C188.809 6.18374 182.399 17.065 182.399 29.9234C182.399 42.7819 188.795 53.6631 196.386 53.6631C197.172 53.7146 197.91 54.0635 198.449 54.6389C198.988 55.2143 199.288 55.9732 199.288 56.7617C199.288 57.5501 198.988 58.3089 198.449 58.8843C197.91 59.4598 197.172 59.8086 196.386 59.8601Z" fill="#407BFF"/>
<path d="M243.203 59.8601C231.897 59.8601 223.032 46.7098 223.032 29.9234C223.032 13.1371 231.897 0 243.203 0C254.508 0 263.386 13.1504 263.386 29.9234C263.334 30.7102 262.986 31.4478 262.41 31.9868C261.835 32.5258 261.076 32.8257 260.287 32.8257C259.499 32.8257 258.74 32.5258 258.165 31.9868C257.589 31.4478 257.241 30.7102 257.189 29.9234C257.189 17.065 250.793 6.18374 243.203 6.18374C235.612 6.18374 229.216 17.065 229.216 29.9234C229.216 42.7819 235.626 53.6631 243.203 53.6631C243.627 53.6354 244.052 53.6949 244.452 53.8381C244.852 53.9812 245.218 54.2049 245.528 54.4954C245.838 54.7858 246.085 55.1368 246.254 55.5266C246.423 55.9164 246.511 56.3368 246.511 56.7616C246.511 57.1865 246.423 57.6068 246.254 57.9967C246.085 58.3865 245.838 58.7375 245.528 59.0279C245.218 59.3183 244.852 59.542 244.452 59.6852C244.052 59.8283 243.627 59.8879 243.203 59.8601Z" fill="#407BFF"/>
<path d="M290.032 59.8601C278.726 59.8601 269.862 46.7098 269.862 29.9234C269.862 13.1371 278.726 0 290.032 0C301.338 0 310.216 13.1504 310.216 29.9234C310.164 30.7102 309.815 31.4478 309.24 31.9868C308.664 32.5258 307.906 32.8257 307.117 32.8257C306.329 32.8257 305.57 32.5258 304.994 31.9868C304.419 31.4478 304.07 30.7102 304.019 29.9234C304.019 17.065 297.609 6.18374 290.032 6.18374C282.455 6.18374 276.046 17.065 276.046 29.9234C276.046 42.7819 282.455 53.6631 290.032 53.6631C290.819 53.7146 291.557 54.0635 292.096 54.6389C292.635 55.2143 292.934 55.9732 292.934 56.7617C292.934 57.5501 292.635 58.3089 292.096 58.8843C291.557 59.4598 290.819 59.8086 290.032 59.8601Z" fill="#407BFF"/>
<g opacity="0.3">
<path opacity="0.3" d="M55.8981 59.8605C44.5923 59.8605 35.728 46.7101 35.728 29.9238C35.728 13.1375 44.5923 0.000366211 55.8981 0.000366211C67.204 0.000366211 76.0815 13.1508 76.0815 29.9238C76.03 30.7105 75.6812 31.4482 75.1058 31.9872C74.5303 32.5261 73.7714 32.826 72.983 32.826C72.1946 32.826 71.4357 32.5261 70.8603 31.9872C70.2849 31.4482 69.9361 30.7105 69.8845 29.9238C69.8845 17.0654 63.4885 6.1841 55.8981 6.1841C48.3078 6.1841 41.9118 17.0654 41.9118 29.9238C41.9118 42.7823 48.3211 53.6635 55.8981 53.6635C56.3221 53.6357 56.7473 53.6953 57.1473 53.8384C57.5473 53.9816 57.9137 54.2053 58.2237 54.4957C58.5338 54.7862 58.781 55.1372 58.95 55.527C59.119 55.9168 59.2062 56.3372 59.2062 56.762C59.2062 57.1869 59.119 57.6072 58.95 57.997C58.781 58.3868 58.5338 58.7378 58.2237 59.0283C57.9137 59.3187 57.5473 59.5424 57.1473 59.6856C56.7473 59.8287 56.3221 59.8883 55.8981 59.8605Z" fill="black"/>
<path opacity="0.3" d="M102.728 59.8604C91.4221 59.8604 82.5579 46.71 82.5579 29.9237C82.5579 13.1374 91.4221 0.000244141 102.728 0.000244141C114.034 0.000244141 122.978 13.1506 122.978 29.9237C122.926 30.7104 122.577 31.4481 122.002 31.9871C121.427 32.526 120.668 32.8259 119.879 32.8259C119.091 32.8259 118.332 32.526 117.757 31.9871C117.181 31.4481 116.832 30.7104 116.781 29.9237C116.781 17.0652 110.385 6.18398 102.794 6.18398C95.204 6.18398 88.808 17.0652 88.808 29.9237C88.808 42.7821 95.2173 53.6634 102.794 53.6634C103.581 53.7149 104.319 54.0637 104.858 54.6392C105.397 55.2146 105.697 55.9735 105.697 56.7619C105.697 57.5503 105.397 58.3092 104.858 58.8846C104.319 59.46 103.581 59.8089 102.794 59.8604H102.728Z" fill="black"/>
<path opacity="0.3" d="M149.517 59.8604C138.198 59.8604 129.334 46.71 129.334 29.9237C129.334 13.1374 138.198 0.000244141 149.517 0.000244141C160.836 0.000244141 169.687 13.1506 169.687 29.9237C169.687 30.7437 169.361 31.5301 168.782 32.11C168.202 32.6898 167.415 33.0156 166.595 33.0156C165.775 33.0156 164.989 32.6898 164.409 32.11C163.829 31.5301 163.504 30.7437 163.504 29.9237C163.504 17.0652 157.094 6.18398 149.517 6.18398C141.94 6.18398 135.531 17.0652 135.531 29.9237C135.531 42.7821 141.94 53.6634 149.517 53.6634C150.304 53.7149 151.042 54.0637 151.581 54.6392C152.119 55.2146 152.419 55.9735 152.419 56.7619C152.419 57.5503 152.119 58.3092 151.581 58.8846C151.042 59.46 150.304 59.8089 149.517 59.8604Z" fill="black"/>
<path opacity="0.3" d="M196.386 59.8604C185.067 59.8604 176.202 46.71 176.202 29.9237C176.202 13.1374 185.067 0.000244141 196.386 0.000244141C207.705 0.000244141 216.556 13.1506 216.556 29.9237C216.556 30.7437 216.23 31.5301 215.65 32.11C215.07 32.6898 214.284 33.0156 213.464 33.0156C212.644 33.0156 211.858 32.6898 211.278 32.11C210.698 31.5301 210.372 30.7437 210.372 29.9237C210.372 17.0652 203.963 6.18398 196.386 6.18398C188.809 6.18398 182.399 17.0652 182.399 29.9237C182.399 42.7821 188.795 53.6634 196.386 53.6634C197.173 53.7149 197.91 54.0637 198.449 54.6392C198.988 55.2146 199.288 55.9735 199.288 56.7619C199.288 57.5503 198.988 58.3092 198.449 58.8846C197.91 59.46 197.173 59.8089 196.386 59.8604Z" fill="black"/>
<path opacity="0.3" d="M243.2 59.8604C231.895 59.8604 223.03 46.71 223.03 29.9237C223.03 13.1374 231.895 0.000244141 243.2 0.000244141C254.506 0.000244141 263.384 13.1506 263.384 29.9237C263.332 30.7104 262.983 31.4481 262.408 31.987C261.833 32.526 261.074 32.8259 260.285 32.8259C259.497 32.8259 258.738 32.526 258.163 31.987C257.587 31.4481 257.238 30.7104 257.187 29.9237C257.187 17.0652 250.791 6.18398 243.2 6.18398C235.61 6.18398 229.214 17.0652 229.214 29.9237C229.214 42.7821 235.623 53.6634 243.2 53.6634C243.624 53.6356 244.049 53.6952 244.45 53.8383C244.85 53.9815 245.216 54.2052 245.526 54.4956C245.836 54.786 246.083 55.1371 246.252 55.5269C246.421 55.9167 246.508 56.337 246.508 56.7619C246.508 57.1868 246.421 57.6071 246.252 57.9969C246.083 58.3867 245.836 58.7377 245.526 59.0281C245.216 59.3186 244.85 59.5423 244.45 59.6854C244.049 59.8286 243.624 59.8881 243.2 59.8604Z" fill="black"/>
<path opacity="0.3" d="M290.03 59.8604C278.724 59.8604 269.86 46.71 269.86 29.9237C269.86 13.1374 278.724 0.000244141 290.03 0.000244141C301.336 0.000244141 310.213 13.1506 310.213 29.9237C310.162 30.7104 309.813 31.4481 309.238 31.9871C308.662 32.526 307.903 32.8259 307.115 32.8259C306.326 32.8259 305.568 32.526 304.992 31.9871C304.417 31.4481 304.068 30.7104 304.016 29.9237C304.016 17.0652 297.607 6.18398 290.03 6.18398C282.453 6.18398 276.044 17.0652 276.044 29.9237C276.044 42.7821 282.453 53.6634 290.03 53.6634C290.817 53.7149 291.554 54.0637 292.093 54.6392C292.632 55.2146 292.932 55.9735 292.932 56.7619C292.932 57.5503 292.632 58.3092 292.093 58.8846C291.554 59.46 290.817 59.8089 290.03 59.8604Z" fill="black"/>
</g>
<path d="M199.518 127.509C188.69 125.36 176.535 127.868 172.196 139.28C168.706 148.462 173.178 158.415 182.812 160.843C191.304 162.98 205.954 160.365 208.98 150.572C212.443 139.373 198.364 135.737 190.468 135.073C188.093 134.874 188.106 138.59 190.468 138.789C194.064 139.094 198.178 139.293 201.363 141.27C207.998 145.424 205.264 152.085 199.611 155.27C193.958 158.455 185.293 159.251 179.706 155.721C173.602 151.833 173.403 143.287 177.052 137.714C181.843 130.349 190.588 129.526 198.47 131.079C200.805 131.543 201.801 127.96 199.452 127.496L199.518 127.509Z" fill="#407BFF"/>
<path opacity="0.1" d="M199.518 127.509C188.69 125.36 176.535 127.868 172.196 139.28C168.706 148.462 173.178 158.415 182.812 160.843C191.304 162.98 205.954 160.365 208.98 150.572C212.443 139.373 198.364 135.737 190.468 135.073C188.093 134.874 188.106 138.59 190.468 138.789C194.064 139.094 198.178 139.293 201.363 141.27C207.998 145.424 205.264 152.085 199.611 155.27C193.958 158.455 185.293 159.251 179.706 155.721C173.602 151.833 173.403 143.287 177.052 137.714C181.843 130.349 190.588 129.526 198.47 131.079C200.805 131.543 201.801 127.96 199.452 127.496L199.518 127.509Z" fill="#FAFAFA"/>
<path d="M80.0506 84.7674C90.406 98.4953 101.951 111.284 114.552 122.985C116.304 124.617 118.944 121.989 117.206 120.331C104.821 108.861 93.4671 96.3259 83.2751 82.8698C81.8553 80.9855 78.6307 82.8698 80.0771 84.7409L80.0506 84.7674Z" fill="#407BFF"/>
<path d="M83.8848 121.432C91.714 107.512 105.422 95.6357 118.386 86.5459C120.324 85.2189 118.479 81.9546 116.515 83.3346C103.033 92.8093 88.861 105.044 80.6868 119.548C80.4625 119.971 80.4099 120.463 80.5399 120.924C80.6699 121.384 80.9725 121.777 81.3847 122.02C81.7968 122.262 82.2868 122.337 82.7526 122.227C83.2183 122.118 83.6239 121.833 83.8848 121.432Z" fill="#407BFF"/>
<g opacity="0.2">
<path opacity="0.2" d="M80.0506 84.7674C90.406 98.4953 101.951 111.284 114.552 122.985C116.304 124.617 118.944 121.989 117.206 120.331C104.821 108.861 93.4671 96.3259 83.2751 82.8698C81.8553 80.9855 78.6307 82.8698 80.0771 84.7409L80.0506 84.7674Z" fill="black"/>
<path opacity="0.2" d="M83.8834 121.431C91.7125 107.511 105.42 95.6349 118.385 86.545C120.322 85.218 118.478 81.9537 116.514 83.3338C103.032 92.8084 88.8596 105.043 80.6853 119.547C80.4611 119.97 80.4084 120.462 80.5384 120.923C80.6684 121.383 80.971 121.776 81.3832 122.019C81.7954 122.262 82.2854 122.336 82.7511 122.227C83.2168 122.117 83.6224 121.832 83.8834 121.431Z" fill="black"/>
</g>
<path d="M227.637 96.6442H251.855C252.318 96.6049 252.751 96.3928 253.066 96.05C253.381 95.7072 253.556 95.2586 253.556 94.7931C253.556 94.3275 253.381 93.8789 253.066 93.5361C252.751 93.1933 252.318 92.9812 251.855 92.9419H227.637C227.173 92.9812 226.741 93.1933 226.426 93.5361C226.111 93.8789 225.936 94.3275 225.936 94.7931C225.936 95.2586 226.111 95.7072 226.426 96.05C226.741 96.3928 227.173 96.6049 227.637 96.6442Z" fill="#407BFF"/>
<path d="M227.359 103.531H241.398C241.891 103.531 242.364 103.335 242.712 102.987C243.06 102.639 243.256 102.166 243.256 101.673C243.256 101.181 243.06 100.708 242.712 100.36C242.364 100.011 241.891 99.8157 241.398 99.8157H227.359C226.866 99.8157 226.394 100.011 226.045 100.36C225.697 100.708 225.501 101.181 225.501 101.673C225.501 102.166 225.697 102.639 226.045 102.987C226.394 103.335 226.866 103.531 227.359 103.531Z" fill="#407BFF"/>
<g opacity="0.1">
<path opacity="0.1" d="M227.636 96.6443H251.854C252.318 96.605 252.75 96.3929 253.065 96.0501C253.38 95.7073 253.555 95.2587 253.555 94.7932C253.555 94.3276 253.38 93.879 253.065 93.5362C252.75 93.1934 252.318 92.9813 251.854 92.942H227.636C227.173 92.9813 226.74 93.1934 226.425 93.5362C226.11 93.879 225.936 94.3276 225.936 94.7932C225.936 95.2587 226.11 95.7073 226.425 96.0501C226.74 96.3929 227.173 96.605 227.636 96.6443Z" fill="#FAFAFA"/>
<path opacity="0.1" d="M227.358 103.531H241.398C241.89 103.531 242.363 103.335 242.711 102.987C243.06 102.639 243.256 102.166 243.256 101.673C243.256 101.181 243.06 100.708 242.711 100.36C242.363 100.011 241.89 99.8157 241.398 99.8157H227.358C226.866 99.8157 226.393 100.011 226.045 100.36C225.696 100.708 225.5 101.181 225.5 101.673C225.5 102.166 225.696 102.639 226.045 102.987C226.393 103.335 226.866 103.531 227.358 103.531Z" fill="#FAFAFA"/>
</g>
<path d="M82.5836 191.709H103.351C103.844 191.709 104.316 191.514 104.665 191.165C105.013 190.817 105.209 190.344 105.209 189.852C105.209 189.359 105.013 188.886 104.665 188.538C104.316 188.19 103.844 187.994 103.351 187.994H82.5836C82.0909 187.994 81.6184 188.19 81.27 188.538C80.9216 188.886 80.7258 189.359 80.7258 189.852C80.7258 190.344 80.9216 190.817 81.27 191.165C81.6184 191.514 82.0909 191.709 82.5836 191.709Z" fill="#407BFF"/>
<path d="M81.8409 199.684H108.779C109.271 199.684 109.744 199.488 110.092 199.14C110.441 198.792 110.636 198.319 110.636 197.826C110.636 197.334 110.441 196.861 110.092 196.513C109.744 196.164 109.271 195.969 108.779 195.969H81.8409C81.3482 195.969 80.8757 196.164 80.5273 196.513C80.1789 196.861 79.9832 197.334 79.9832 197.826C79.9832 198.319 80.1789 198.792 80.5273 199.14C80.8757 199.488 81.3482 199.684 81.8409 199.684Z" fill="#407BFF"/>
<path d="M81.8409 207.899H95.3098C95.8025 207.899 96.275 207.703 96.6234 207.354C96.9718 207.006 97.1676 206.534 97.1676 206.041C97.1676 205.548 96.9718 205.076 96.6234 204.727C96.275 204.379 95.8025 204.183 95.3098 204.183H81.8409C81.3482 204.183 80.8757 204.379 80.5273 204.727C80.1789 205.076 79.9832 205.548 79.9832 206.041C79.9832 206.534 80.1789 207.006 80.5273 207.354C80.8757 207.703 81.3482 207.899 81.8409 207.899Z" fill="#407BFF"/>
<g opacity="0.1">
<path opacity="0.1" d="M82.5843 191.709H103.352C103.844 191.709 104.317 191.514 104.665 191.165C105.014 190.817 105.209 190.344 105.209 189.852C105.209 189.359 105.014 188.886 104.665 188.538C104.317 188.19 103.844 187.994 103.352 187.994H82.5843C82.0916 187.994 81.6191 188.19 81.2707 188.538C80.9223 188.886 80.7266 189.359 80.7266 189.852C80.7266 190.344 80.9223 190.817 81.2707 191.165C81.6191 191.514 82.0916 191.709 82.5843 191.709Z" fill="#FAFAFA"/>
<path opacity="0.1" d="M81.8419 199.684H108.78C109.272 199.684 109.745 199.488 110.093 199.14C110.442 198.792 110.637 198.319 110.637 197.826C110.637 197.334 110.442 196.861 110.093 196.513C109.745 196.164 109.272 195.969 108.78 195.969H81.8419C81.3492 195.969 80.8767 196.164 80.5283 196.513C80.1799 196.861 79.9841 197.334 79.9841 197.826C79.9841 198.319 80.1799 198.792 80.5283 199.14C80.8767 199.488 81.3492 199.684 81.8419 199.684Z" fill="#FAFAFA"/>
<path opacity="0.1" d="M81.8419 207.899H95.3108C95.8035 207.899 96.276 207.703 96.6244 207.355C96.9728 207.006 97.1685 206.534 97.1685 206.041C97.1685 205.548 96.9728 205.076 96.6244 204.727C96.276 204.379 95.8035 204.183 95.3108 204.183H81.8419C81.3492 204.183 80.8767 204.379 80.5283 204.727C80.1799 205.076 79.9841 205.548 79.9841 206.041C79.9841 206.534 80.1799 207.006 80.5283 207.355C80.8767 207.703 81.3492 207.899 81.8419 207.899Z" fill="#FAFAFA"/>
</g>
</svg>
