<svg width="29" height="29" fill="none" xmlns="http://www.w3.org/2000/svg"><path d="M5.13.849a5.132 5.132 0 0 0-3.631 1.494A5.1 5.1 0 0 0 0 5.962v17.776a5.088 5.088 0 0 0 1.499 3.619 5.118 5.118 0 0 0 3.63 1.494h9.665V17.904H11.89v-3.942h2.904v-3.367c0-2.645 1.717-5.075 5.668-5.075.93-.003 1.86.048 2.784.153l-.095 3.681s-1.206-.011-2.524-.011c-1.425 0-1.653.655-1.653 1.741v2.878h4.291l-.188 3.942h-4.103V28.85h3.986a5.132 5.132 0 0 0 3.63-1.495 5.1 5.1 0 0 0 1.5-3.619V5.963a5.09 5.09 0 0 0-1.5-3.619A5.12 5.12 0 0 0 22.96.85H5.13Z" fill="#000"/></svg>