<svg width="29" height="29" viewBox="0 0 29 29" fill="none" xmlns="http://www.w3.org/2000/svg">
<path d="M5.12912 0.848645C4.45514 0.847176 3.78751 0.978426 3.16455 1.23486C2.5416 1.49129 1.97558 1.86786 1.49901 2.34294C1.02243 2.81802 0.644681 3.38226 0.387441 4.00326C0.130201 4.62427 -0.00146118 5.2898 1.22309e-05 5.96167V23.7383C-0.00146118 24.4101 0.130201 25.0757 0.387441 25.6967C0.644681 26.3177 1.02243 26.8819 1.49901 27.357C1.97558 27.8321 2.5416 28.2087 3.16455 28.4651C3.78751 28.7215 4.45514 28.8528 5.12912 28.8513H14.7942V17.9035H11.89V13.9619H14.7942V10.5948C14.7942 7.94958 16.5106 5.52 20.4622 5.52C21.3923 5.51706 22.3217 5.56807 23.2459 5.67279L23.1509 9.35417C23.1509 9.35417 21.9446 9.34303 20.6274 9.34303C19.2024 9.34303 18.9741 9.99797 18.9741 11.0842V13.9619H23.265L23.0774 17.9035H18.9741V28.8505H22.9601C23.634 28.852 24.3017 28.7207 24.9246 28.4643C25.5476 28.2079 26.1136 27.8313 26.5902 27.3562C27.0668 26.8811 27.4445 26.3169 27.7017 25.6959C27.959 25.0749 28.0906 24.4093 28.0892 23.7375V5.96167C28.0906 5.28987 27.959 4.6244 27.7018 4.00345C27.4446 3.38249 27.0669 2.81829 26.5905 2.34322C26.114 1.86815 25.548 1.49157 24.9252 1.23509C24.3023 0.978608 23.6348 0.847281 22.9609 0.848645H5.12912Z" fill="black"/>
</svg>
