<svg width="1920" height="863" viewBox="0 0 1920 863" fill="none" xmlns="http://www.w3.org/2000/svg">
<path fill-rule="evenodd" clip-rule="evenodd" d="M-107.622 325.345C-96.0565 325.345 -86.6808 334.735 -86.6808 346.316C-86.6808 365.62 -71.0545 381.269 -51.7785 381.269H87.8305C107.106 381.269 122.733 365.62 122.733 346.316C122.733 334.735 132.109 325.345 143.674 325.345C155.239 325.345 164.615 334.735 164.615 346.316C164.615 388.785 130.238 423.211 87.8305 423.211H-48.9602C-48.9689 423.211 -48.9777 423.211 -48.9863 423.211C-68.2623 423.211 -83.8886 438.86 -83.8886 458.164V597.973C-83.8886 617.277 -68.2623 632.925 -48.9863 632.925C-37.4207 632.925 -28.045 642.315 -28.045 653.897C-28.045 665.479 -37.4207 674.868 -48.9863 674.868C-91.3936 674.868 -125.771 640.442 -125.771 597.973V458.164C-125.771 436.812 -117.081 417.492 -103.049 403.558C-118.711 389.481 -128.563 369.051 -128.563 346.316C-128.563 334.735 -119.188 325.345 -107.622 325.345Z" fill="black"/>
<path fill-rule="evenodd" clip-rule="evenodd" d="M164.67 346.592C164.67 327.285 180.317 311.634 199.618 311.634C218.919 311.634 234.566 327.285 234.566 346.592C234.566 365.898 218.919 381.55 199.618 381.55C188.038 381.55 178.65 390.941 178.65 402.524C178.65 414.108 188.038 423.499 199.618 423.499C242.081 423.499 276.503 389.067 276.503 346.592C276.503 304.117 242.081 269.685 199.618 269.685C157.155 269.685 122.733 304.117 122.733 346.592C122.733 358.175 132.122 367.566 143.702 367.566C155.282 367.566 164.67 358.175 164.67 346.592Z" fill="black"/>
<path fill-rule="evenodd" clip-rule="evenodd" d="M164.616 346.891C164.616 335.322 155.24 325.943 143.675 325.943C132.11 325.943 122.733 335.322 122.733 346.891C122.733 358.459 132.11 367.838 143.675 367.838C155.24 367.838 164.616 358.459 164.616 346.891Z" fill="#396DED"/>
<path fill-rule="evenodd" clip-rule="evenodd" d="M143.674 473.773C143.674 462.204 134.298 452.825 122.733 452.825C111.168 452.825 101.792 462.204 101.792 473.773C101.792 485.341 111.168 494.72 122.733 494.72C134.298 494.72 143.674 485.341 143.674 473.773Z" fill="#396DED"/>
<path fill-rule="evenodd" clip-rule="evenodd" d="M143.674 529.433C143.674 517.864 134.298 508.486 122.733 508.486C111.168 508.486 101.792 517.864 101.792 529.433C101.792 541.002 111.168 550.38 122.733 550.38C134.298 550.38 143.674 541.002 143.674 529.433Z" fill="#396DED"/>
<path fill-rule="evenodd" clip-rule="evenodd" d="M73.7132 325.29C54.4768 325.29 38.8822 309.639 38.8822 290.332C38.8822 271.026 54.4768 255.375 73.7132 255.375C85.2548 255.375 94.6118 245.984 94.6118 234.4C94.6118 222.816 85.2548 213.425 73.7132 213.425C31.3921 213.425 -2.91504 247.858 -2.91504 290.332C-2.91504 332.807 31.3921 367.239 73.7132 367.239C85.2548 367.239 94.6118 357.848 94.6118 346.265C94.6118 334.681 85.2548 325.29 73.7132 325.29Z" fill="black"/>
<path fill-rule="evenodd" clip-rule="evenodd" d="M-30.4375 536.615C22.7647 536.615 65.8927 579.755 65.8927 632.973C65.8927 644.541 75.2688 653.92 86.834 653.92C98.3992 653.92 107.775 644.541 107.775 632.973C107.775 556.618 45.8951 494.72 -30.4375 494.72C-42.0032 494.72 -51.3789 504.098 -51.3789 515.667C-51.3789 527.236 -42.0032 536.615 -30.4375 536.615Z" fill="black"/>
<path fill-rule="evenodd" clip-rule="evenodd" d="M-103.89 708.814C-111.179 690.931 -102.603 670.529 -84.7343 663.246C-66.8659 655.963 -46.4714 664.556 -39.1823 682.439C-10.3174 753.257 70.4444 787.286 141.203 758.445C151.924 754.075 157.07 741.834 152.697 731.104C148.324 720.375 136.086 715.218 125.366 719.588C76.0481 739.69 19.7605 715.973 -0.357725 666.615C-16.394 627.271 -61.2609 608.366 -100.572 624.389C-139.883 640.412 -158.751 685.295 -142.715 724.639C-138.341 735.368 -126.104 740.524 -115.383 736.155C-104.663 731.785 -99.5166 719.543 -103.89 708.814Z" fill="black"/>
<path fill-rule="evenodd" clip-rule="evenodd" d="M152.712 731.142C148.347 720.432 136.123 715.29 125.41 719.656C114.697 724.023 109.551 736.245 113.916 746.955C118.281 757.665 130.505 762.807 141.218 758.441C151.931 754.074 157.077 741.852 152.712 731.142Z" fill="#396DED"/>
<path fill-rule="evenodd" clip-rule="evenodd" d="M1793.35 662.931C1781.15 677.898 1783.39 699.915 1798.36 712.106C1813.32 724.298 1835.34 722.048 1847.53 707.081C1859.73 692.113 1857.48 670.096 1842.52 657.905C1833.54 650.59 1832.2 637.379 1839.51 628.399C1846.83 619.419 1860.04 618.069 1869.02 625.384C1901.94 652.206 1906.87 700.642 1880.04 733.571C1853.21 766.499 1804.78 771.449 1771.86 744.627C1738.94 717.805 1734 669.369 1760.83 636.441C1768.15 627.46 1781.36 626.11 1790.34 633.425C1799.32 640.74 1800.66 653.95 1793.35 662.931Z" fill="black"/>
<path fill-rule="evenodd" clip-rule="evenodd" d="M1793.49 662.665C1786.19 671.634 1772.99 672.982 1764.03 665.677C1755.06 658.371 1753.72 645.178 1761.02 636.21C1768.33 627.241 1781.52 625.893 1790.49 633.198C1799.46 640.503 1800.8 653.697 1793.49 662.665Z" fill="#396DED"/>
<path fill-rule="evenodd" clip-rule="evenodd" d="M1681.88 599.868C1736.04 549.414 1739.03 464.594 1688.56 410.419C1680.67 401.954 1681.14 388.701 1689.6 380.817C1698.07 372.934 1711.32 373.405 1719.2 381.87C1785.45 452.975 1781.52 564.3 1710.43 630.522C1701.97 638.405 1688.72 637.934 1680.83 629.47C1672.95 621.005 1673.42 607.751 1681.88 599.868Z" fill="black"/>
<path fill-rule="evenodd" clip-rule="evenodd" d="M1724.81 396.887C1724.41 408.448 1714.7 417.486 1703.14 417.074C1691.58 416.663 1682.54 406.958 1682.95 395.399C1683.36 383.839 1693.06 374.801 1704.62 375.212C1716.18 375.622 1725.22 385.327 1724.81 396.887Z" fill="#396DED"/>
<path fill-rule="evenodd" clip-rule="evenodd" d="M1768.15 356.514C1767.74 368.076 1758.04 377.116 1746.49 376.698C1734.92 376.288 1725.88 366.583 1726.29 355.022C1726.69 343.469 1736.4 334.429 1747.96 334.838C1759.52 335.246 1768.56 344.951 1768.15 356.514Z" fill="#396DED"/>
<path fill-rule="evenodd" clip-rule="evenodd" d="M1891.53 317.764C1837.6 402.455 1862.56 514.832 1947.28 568.772C1957.05 574.996 1959.93 587.964 1953.71 597.735C1947.49 607.506 1934.52 610.383 1924.74 604.159C1820.48 537.77 1789.76 399.461 1856.13 295.225C1862.35 285.458 1875.32 282.577 1885.1 288.801C1894.87 295.025 1897.75 307.997 1891.53 317.764Z" fill="black"/>
<path fill-rule="evenodd" clip-rule="evenodd" d="M1885.07 288.784C1894.82 294.998 1897.7 307.949 1891.49 317.7C1885.28 327.451 1872.33 330.327 1862.57 324.113C1852.81 317.9 1849.94 304.949 1856.15 295.198C1862.36 285.447 1875.31 282.571 1885.07 288.784Z" fill="#396DED"/>
<path fill-rule="evenodd" clip-rule="evenodd" d="M1960.29 140.845C1974.99 153.367 1976.76 175.427 1964.25 190.116C1951.74 204.805 1929.68 206.562 1914.98 194.039C1856.76 144.45 1769.4 151.406 1719.85 209.575C1712.34 218.388 1713.41 231.624 1722.23 239.138C1731.05 246.651 1744.29 245.597 1751.79 236.784C1786.33 196.241 1847.22 191.393 1887.79 225.956C1920.13 253.506 1968.67 249.642 1996.2 217.325C2023.72 185.008 2019.82 136.478 1987.47 108.928C1978.65 101.415 1965.42 102.469 1957.91 111.282C1950.4 120.095 1951.47 133.332 1960.29 140.845Z" fill="black"/>
<path fill-rule="evenodd" clip-rule="evenodd" d="M1722.2 239.111C1731 246.611 1744.22 245.551 1751.72 236.744C1759.23 227.937 1758.17 214.717 1749.37 207.218C1740.56 199.719 1727.34 200.779 1719.84 209.585C1712.34 218.392 1713.4 231.612 1722.2 239.111Z" fill="#396DED"/>
</svg>
