<svg width="277" height="650" fill="none" xmlns="http://www.w3.org/2000/svg"><path fill-rule="evenodd" clip-rule="evenodd" d="M-107.622 112.345c11.566 0 20.941 9.389 20.941 20.971 0 19.304 15.626 34.953 34.902 34.953h139.61c19.275 0 34.902-15.649 34.902-34.953 0-11.582 9.376-20.971 20.941-20.971s20.941 9.389 20.941 20.971c0 42.469-34.377 76.895-76.785 76.895H-48.986c-19.276 0-34.903 15.649-34.903 34.953v139.809c0 19.303 15.627 34.952 34.903 34.952 11.565 0 20.941 9.39 20.941 20.972s-9.376 20.971-20.941 20.971c-42.408 0-76.785-34.427-76.785-76.895V245.164c0-21.352 8.69-40.672 22.722-54.606-15.662-14.077-25.514-34.507-25.514-57.242 0-11.582 9.375-20.971 20.941-20.971Z" fill="#000"/><path fill-rule="evenodd" clip-rule="evenodd" d="M164.67 133.591c0-19.306 15.647-34.957 34.948-34.957 19.301 0 34.948 15.651 34.948 34.957 0 19.307-15.647 34.958-34.948 34.958-11.58 0-20.968 9.391-20.968 20.975 0 11.583 9.388 20.975 20.968 20.975 42.463 0 76.885-34.433 76.885-76.908s-34.422-76.907-76.885-76.907c-42.463 0-76.885 34.432-76.885 76.907 0 11.584 9.389 20.975 20.969 20.975 11.58 0 20.968-9.391 20.968-20.975Z" fill="#000"/><path fill-rule="evenodd" clip-rule="evenodd" d="M164.616 133.89c0-11.568-9.376-20.947-20.941-20.947s-20.942 9.379-20.942 20.947c0 11.569 9.377 20.948 20.942 20.948s20.941-9.379 20.941-20.948ZM143.674 260.772c0-11.568-9.376-20.947-20.941-20.947s-20.941 9.379-20.941 20.947c0 11.569 9.376 20.948 20.941 20.948s20.941-9.379 20.941-20.948ZM143.674 316.433c0-11.569-9.376-20.948-20.941-20.948s-20.941 9.379-20.941 20.948c0 11.568 9.376 20.947 20.941 20.947s20.941-9.379 20.941-20.947Z" fill="#396DED"/><path fill-rule="evenodd" clip-rule="evenodd" d="M73.713 112.29c-19.236 0-34.83-15.652-34.83-34.958 0-19.307 15.594-34.958 34.83-34.958 11.542 0 20.899-9.39 20.899-20.974S85.255.425 73.713.425c-42.32 0-76.628 34.432-76.628 76.907 0 42.475 34.307 76.907 76.628 76.907 11.542 0 20.899-9.391 20.899-20.975 0-11.583-9.357-20.974-20.899-20.974ZM-30.438 323.614c53.203 0 96.33 43.141 96.33 96.358 0 11.569 9.377 20.948 20.942 20.948s20.941-9.379 20.941-20.948c0-76.354-61.88-138.253-138.213-138.253-11.565 0-20.94 9.379-20.94 20.948 0 11.568 9.375 20.947 20.94 20.947ZM-103.89 495.814c-7.289-17.883 1.287-38.285 19.156-45.568 17.868-7.283 38.263 1.31 45.552 19.193 28.865 70.818 109.626 104.847 180.385 76.006 10.721-4.37 15.867-16.611 11.494-27.341-4.373-10.729-16.611-15.886-27.331-11.516C76.048 526.69 19.76 502.973-.358 453.615c-16.036-39.344-60.903-58.249-100.214-42.226-39.311 16.023-58.179 60.906-42.143 100.25 4.374 10.729 16.611 15.885 27.332 11.516 10.72-4.37 15.866-16.612 11.493-27.341Z" fill="#000"/><path fill-rule="evenodd" clip-rule="evenodd" d="M152.712 518.142c-4.365-10.71-16.589-15.852-27.302-11.486-10.713 4.367-15.859 16.589-11.494 27.299s16.589 15.852 27.302 11.486c10.713-4.367 15.859-16.589 11.494-27.299Z" fill="#396DED"/></svg>