<svg width="277" height="650" viewBox="0 0 277 650" fill="none" xmlns="http://www.w3.org/2000/svg">
<path fill-rule="evenodd" clip-rule="evenodd" d="M-107.622 112.345C-96.0565 112.345 -86.6808 121.734 -86.6808 133.316C-86.6808 152.62 -71.0545 168.269 -51.7785 168.269H87.8305C107.106 168.269 122.733 152.62 122.733 133.316C122.733 121.734 132.109 112.345 143.674 112.345C155.239 112.345 164.615 121.734 164.615 133.316C164.615 175.785 130.238 210.211 87.8305 210.211H-48.9602C-48.9689 210.211 -48.9777 210.211 -48.9863 210.211C-68.2623 210.211 -83.8886 225.86 -83.8886 245.164V384.973C-83.8886 404.276 -68.2623 419.925 -48.9863 419.925C-37.4207 419.925 -28.045 429.315 -28.045 440.897C-28.045 452.479 -37.4207 461.868 -48.9863 461.868C-91.3936 461.868 -125.771 427.441 -125.771 384.973V245.164C-125.771 223.812 -117.081 204.492 -103.049 190.558C-118.711 176.481 -128.563 156.051 -128.563 133.316C-128.563 121.734 -119.188 112.345 -107.622 112.345Z" fill="black"/>
<path fill-rule="evenodd" clip-rule="evenodd" d="M164.67 133.591C164.67 114.285 180.317 98.6336 199.618 98.6336C218.919 98.6336 234.566 114.285 234.566 133.591C234.566 152.898 218.919 168.549 199.618 168.549C188.038 168.549 178.65 177.94 178.65 189.524C178.65 201.107 188.038 210.499 199.618 210.499C242.081 210.499 276.503 176.066 276.503 133.591C276.503 91.1163 242.081 56.6843 199.618 56.6843C157.155 56.6843 122.733 91.1163 122.733 133.591C122.733 145.175 132.122 154.566 143.702 154.566C155.282 154.566 164.67 145.175 164.67 133.591Z" fill="black"/>
<path fill-rule="evenodd" clip-rule="evenodd" d="M164.616 133.89C164.616 122.322 155.24 112.943 143.675 112.943C132.11 112.943 122.733 122.322 122.733 133.89C122.733 145.459 132.11 154.838 143.675 154.838C155.24 154.838 164.616 145.459 164.616 133.89Z" fill="#396DED"/>
<path fill-rule="evenodd" clip-rule="evenodd" d="M143.674 260.772C143.674 249.204 134.298 239.825 122.733 239.825C111.168 239.825 101.792 249.204 101.792 260.772C101.792 272.341 111.168 281.72 122.733 281.72C134.298 281.72 143.674 272.341 143.674 260.772Z" fill="#396DED"/>
<path fill-rule="evenodd" clip-rule="evenodd" d="M143.674 316.433C143.674 304.864 134.298 295.485 122.733 295.485C111.168 295.485 101.792 304.864 101.792 316.433C101.792 328.001 111.168 337.38 122.733 337.38C134.298 337.38 143.674 328.001 143.674 316.433Z" fill="#396DED"/>
<path fill-rule="evenodd" clip-rule="evenodd" d="M73.7132 112.29C54.4768 112.29 38.8822 96.6385 38.8822 77.332C38.8822 58.0254 54.4768 42.3742 73.7132 42.3742C85.2548 42.3742 94.6118 32.9836 94.6118 21.3996C94.6118 9.81557 85.2548 0.424927 73.7132 0.424927C31.3921 0.424927 -2.91504 34.8573 -2.91504 77.332C-2.91504 119.807 31.3921 154.239 73.7132 154.239C85.2548 154.239 94.6118 144.848 94.6118 133.264C94.6118 121.681 85.2548 112.29 73.7132 112.29Z" fill="black"/>
<path fill-rule="evenodd" clip-rule="evenodd" d="M-30.4375 323.614C22.7647 323.614 65.8927 366.755 65.8927 419.972C65.8927 431.541 75.2688 440.92 86.834 440.92C98.3992 440.92 107.775 431.541 107.775 419.972C107.775 343.618 45.8951 281.719 -30.4375 281.719C-42.0032 281.719 -51.3789 291.098 -51.3789 302.667C-51.3789 314.235 -42.0032 323.614 -30.4375 323.614Z" fill="black"/>
<path fill-rule="evenodd" clip-rule="evenodd" d="M-103.89 495.814C-111.179 477.931 -102.603 457.529 -84.7343 450.246C-66.8659 442.963 -46.4714 451.556 -39.1823 469.439C-10.3174 540.257 70.4444 574.286 141.203 545.445C151.924 541.075 157.07 528.834 152.697 518.104C148.324 507.375 136.086 502.218 125.366 506.588C76.0481 526.69 19.7605 502.973 -0.357725 453.615C-16.394 414.271 -61.2609 395.366 -100.572 411.389C-139.883 427.412 -158.751 472.295 -142.715 511.639C-138.341 522.368 -126.104 527.524 -115.383 523.155C-104.663 518.785 -99.5166 506.543 -103.89 495.814Z" fill="black"/>
<path fill-rule="evenodd" clip-rule="evenodd" d="M152.712 518.142C148.347 507.432 136.123 502.29 125.41 506.656C114.697 511.023 109.551 523.245 113.916 533.955C118.281 544.665 130.505 549.807 141.218 545.441C151.931 541.074 157.077 528.852 152.712 518.142Z" fill="#396DED"/>
</svg>
