<svg width="107" height="67" fill="none" xmlns="http://www.w3.org/2000/svg"><path d="M11.836 27.596c-2.159 0-4.268-.236-6.328-.708-2.034-.496-3.71-1.154-5.024-1.972l2.829-6.402c1.24.72 2.63 1.303 4.168 1.75 1.538.421 3.015.632 4.43.632 1.215 0 2.083-.112 2.604-.335.522-.248.782-.608.782-1.08 0-.545-.347-.955-1.042-1.228-.67-.273-1.787-.57-3.35-.893-2.01-.422-3.684-.868-5.024-1.34a8.81 8.81 0 0 1-3.499-2.382C1.39 12.522.893 11.021.893 9.135c0-1.638.46-3.127 1.377-4.467.918-1.34 2.283-2.394 4.094-3.163C8.201.735 10.421.35 13.027.35c1.786 0 3.536.199 5.248.596 1.737.372 3.263.93 4.578 1.674L20.21 8.986c-2.556-1.29-4.975-1.936-7.258-1.936-2.258 0-3.387.546-3.387 1.638 0 .521.335.918 1.005 1.191.67.248 1.774.521 3.313.819 1.985.372 3.66.806 5.024 1.303a8.438 8.438 0 0 1 3.536 2.345c1.017 1.091 1.526 2.58 1.526 4.466a7.726 7.726 0 0 1-1.377 4.466c-.918 1.315-2.295 2.37-4.131 3.164-1.812.769-4.02 1.154-6.625 1.154Zm25.355-9.23-1.973 2.195V27h-8.635V.947h8.635V10.4l8.56-9.453h9.566L42.922 12.41 53.865 27H43.704l-6.514-8.635Zm31.3-.82V27h-8.784v-9.565L49.88.947h9.267l5.323 9.007L69.83.947h8.485l-9.826 16.6ZM79.43.946h12.841c2.903 0 5.459.534 7.667 1.6 2.233 1.043 3.958 2.544 5.174 4.504 1.24 1.96 1.861 4.268 1.861 6.923 0 2.655-.621 4.963-1.861 6.923-1.216 1.96-2.941 3.474-5.174 4.54C97.731 26.48 95.175 27 92.272 27h-12.84V.947ZM91.9 20.153c1.886 0 3.387-.534 4.503-1.6 1.142-1.093 1.712-2.618 1.712-4.579 0-1.96-.57-3.474-1.712-4.54-1.116-1.092-2.617-1.638-4.503-1.638h-3.685v12.357H91.9ZM23.783 59.375V66H2.121V39.947H23.3v6.624H10.756v3.053h11.017v6.327H10.756v3.424h13.027Zm14.547.074h-2.382V66h-8.784V39.947h12.543c2.407 0 4.504.396 6.29 1.19 1.787.794 3.164 1.936 4.132 3.425.968 1.489 1.451 3.225 1.451 5.21 0 1.861-.422 3.487-1.265 4.876-.844 1.39-2.06 2.494-3.648 3.313L52.14 66h-9.38l-4.429-6.55Zm4.392-9.677c0-.967-.298-1.712-.893-2.233-.596-.546-1.489-.819-2.68-.819h-3.2v6.104h3.2c1.191 0 2.084-.26 2.68-.781.595-.546.893-1.303.893-2.27Zm15.711 16.6c-1.414 0-2.593-.446-3.536-1.34-.918-.918-1.377-2.084-1.377-3.498 0-1.415.46-2.556 1.377-3.425.943-.893 2.122-1.34 3.536-1.34 1.414 0 2.58.447 3.499 1.34.943.869 1.414 2.01 1.414 3.425 0 1.414-.471 2.58-1.414 3.498-.918.894-2.085 1.34-3.499 1.34Z" fill="#000"/></svg>