<svg version="1.2" xmlns="http://www.w3.org/2000/svg" viewBox="0 0 210 70" width="210" height="70">
	<title>thic-black-svg</title>
	<style>
		.s0 { fill: #000000 } 
	</style>
	<g id="Layer">
		<path id="Layer" class="s0" d="m44.2 6.1c1 0 1.1 0 1.9 0.6c0.3 0.2 0.8 0.9 0.9 1.2c0 0.1 0 0.3 0.1 0.3c0.1 0.2 0.1 1.2 0.1 15.9v15.1l3.9-3.8c14.4-14.3 14.5-14.5 15-14.8c0.8-0.5 1.4-0.7 2.2-0.5c0.6 0.1 0.9 0.2 1.4 0.7c0.9 0.7 1.3 1.5 1.2 2.7c-0.1 0.8-0.2 1.1-0.7 1.7c-0.2 0.2-2.5 2.6-5.1 5.2l-4.7 4.7l0.3 0.3c0.9 0.8 9.2 9.1 9.6 9.6c0.4 0.6 0.6 1.1 0.6 1.9c0 1-0.3 1.7-1.2 2.4c-0.5 0.4-0.8 0.6-1.4 0.7c-0.6 0.1-1.3 0-1.8-0.3c-0.5-0.2-1-0.6-6.7-6.3l-3.9-4l-0.7 0.8c-1.5 1.6-8.7 8.8-9.4 9.3c-0.6 0.4-1.4 0.6-2.3 0.5c-0.6-0.1-0.9-0.3-1.4-0.7c-0.4-0.4-0.5-0.5-0.8-1q-0.3-0.6-0.3-1c-0.1-0.6-0.1-38 0-38.6c0.1-0.7 0.6-1.6 1.1-2c0.3-0.2 0.9-0.5 1.2-0.6c0-0.1 0.5-0.1 0.9 0z"/>
		<path id="Layer" fill-rule="evenodd" class="s0" d="m137.8 6.1c0.8 0 0.9 0 1.2 0.2c0.7 0.3 1 0.6 1.4 1.1c0.3 0.4 0.4 0.6 0.4 0.9c0.2 0.7 0.1 38.9 0 39.3c-0.3 0.9-1 1.9-1.6 2.1c-0.9 0.5-2.3 0.4-3.1-0.1c-0.7-0.5-1.1-1.1-1.3-1.9l-0.1-0.5l-0.3 0.2c-0.2 0.1-0.5 0.3-0.6 0.4c-0.2 0.1-0.5 0.2-0.6 0.3c-0.2 0.2-1 0.6-1.1 0.6c0 0-0.1 0-0.3 0.1c-0.2 0.2-1.6 0.7-1.8 0.7c0 0-0.2 0-0.3 0c-0.3 0.2-0.8 0.3-1.5 0.4c-0.8 0.1-3.5 0.1-4.3 0c-0.7-0.1-1.4-0.2-1.6-0.3c0 0-0.3-0.1-0.5-0.2c-0.9-0.2-1.6-0.4-1.8-0.5c-0.1-0.1-0.2-0.2-0.2-0.2c-0.1 0-1.1-0.4-1.3-0.6c-0.1-0.1-0.3-0.2-0.5-0.3c-0.5-0.3-1.4-1-2.2-1.6c-2-2-3.9-4.9-4.4-7.1c0-0.1 0-0.3 0-0.3c-0.1-0.1-0.3-0.8-0.4-1.6c-0.1-0.7-0.1-3.4 0-4.2c0.1-0.6 0.3-1.4 0.4-1.5c0-0.1 0-0.3 0.1-0.5c0-0.3 0.1-0.5 0.1-0.6c0.1-0.1 0.2-0.4 0.2-0.5c0.2-0.6 1.1-2.4 1.8-3.5c0.6-0.8 1.9-2.2 2.8-2.9c1.1-0.9 2.4-1.8 3.4-2.2c0.4-0.1 0.7-0.3 0.7-0.3c0.1 0 0.2-0.1 0.4-0.1c0.1-0.1 0.3-0.1 0.4-0.2c0.1 0 0.4-0.1 0.7-0.2c0.3 0 0.8-0.1 1.1-0.2c0.9-0.2 2.7-0.3 3.9-0.2c1.1 0.1 1.6 0.1 2.1 0.3c0.2 0 0.5 0.1 0.8 0.2c0.7 0.1 1.2 0.3 2 0.7c0.1 0 0.3 0.1 0.3 0.1c0.1 0 0.6 0.3 0.9 0.4c0.1 0.1 0.4 0.3 0.5 0.4c0.2 0 0.5 0.2 0.7 0.4c0.2 0.1 0.3 0.2 0.3 0.2c0.1 0 0.1-3.2 0.1-7c0-6.9 0-7.1 0.1-7.6q0.3-1.2 1.6-1.9c0.2-0.1 0.4-0.2 0.5-0.2c0 0 0.5-0.1 0.9 0zm-13.2 20.4c-0.8 0.1-1.5 0.3-1.7 0.5c0 0-0.1 0-0.2 0.1c-0.5 0.1-1.6 0.7-2.1 1.2c-0.6 0.4-1.4 1.3-1.8 1.8c-0.2 0.3-0.4 0.6-0.4 0.6c0 0-0.1 0.3-0.3 0.6c-0.1 0.3-0.3 0.8-0.4 1c-0.2 0.5-0.5 2.2-0.5 2.7c0 0.9 0.5 3 0.8 3.4c0 0 0.1 0.3 0.2 0.5c0.7 1.6 2.2 3.1 4 3.9c0.8 0.4 1.2 0.6 2.5 0.7l1.2 0.2l1.1-0.1c1.1-0.2 1.9-0.4 2.3-0.6c0.2-0.1 0.4-0.2 0.6-0.3c1.1-0.5 2.9-2 3.3-3c0.1-0.1 0.2-0.3 0.3-0.3c0-0.1 0.1-0.2 0.1-0.2c0 0 0.1-0.3 0.2-0.5c0.3-0.7 0.5-1.3 0.7-2.1c0-0.4 0.1-0.8 0.1-1c0.1-0.4 0.1-0.7 0-1.1c0-0.2-0.1-0.7-0.2-1.2c0-0.4-0.1-0.8-0.2-0.9c-0.1-0.1-0.1-0.3-0.1-0.3c0-0.1 0-0.2-0.1-0.3c0-0.1-0.2-0.4-0.3-0.6c-0.4-0.8-0.8-1.4-1.4-2c-0.5-0.6-0.9-0.9-1.7-1.4c-0.7-0.5-0.9-0.6-2.2-1.1c-0.1 0-0.6-0.1-1.1-0.2c-1.4-0.1-1.4-0.1-2.7 0z"/>
		<path id="Layer" class="s0" d="m30.9 20.2c0.7 0.1 1.7 1 2.1 1.7c0.1 0.2 0.3 0.9 0.3 1.3c0 0.7-0.2 1.2-0.6 1.8c-0.5 0.6-0.9 0.9-1.8 1.2l-0.6 0.2h-4.7c-3.6 0-4.8 0.1-5.1 0.1c-0.7 0.2-1.5 0.8-1.7 1.5c0 0.2-0.1 0.4-0.2 0.4c0 0.1 0 0.3-0.1 0.6c0 0.4 0 0.6 0.2 0.9c0.3 0.9 0.6 1.2 1.3 1.6c0.9 0.4 0.9 0.4 5 0.4c2.4 0 3.9 0.1 4.2 0.1c0.6 0.1 1.1 0.3 1.3 0.4c0.1 0 0.2 0.1 0.2 0.1c0.2 0 1.4 0.5 1.9 0.9c1.5 1.1 3 2.9 3.4 4.4c0.5 1.5 0.6 1.9 0.6 3.2c0 1.1 0 1.2-0.2 1.9c-0.2 0.8-0.5 1.8-0.6 1.9c0 0.1-0.2 0.3-0.3 0.5c-0.6 1.2-1.8 2.4-3 3.2c-0.4 0.3-0.8 0.5-0.9 0.6c-0.2 0.1-0.4 0.1-0.4 0.2c0 0-0.2 0-0.3 0.1c-0.2 0-0.4 0.1-0.5 0.2c-0.2 0.1-0.6 0.2-0.9 0.2c-0.7 0.2-0.9 0.2-6.8 0.2c-6.7 0-8 0-8.6-0.2c-0.5-0.2-1.4-1-1.6-1.6c-0.4-0.7-0.4-1.9-0.1-2.6c0.3-0.5 0.8-1.1 1.2-1.3c0.8-0.5 0.5-0.5 7.6-0.5c5.5-0.1 6.4-0.1 6.8-0.2c0.6-0.1 0.8-0.2 1.2-0.6c0.8-0.6 1.2-1.7 0.9-2.8c-0.2-0.8-0.8-1.5-1.5-1.7c-0.2-0.1-0.4-0.2-0.5-0.2c-0.2-0.1-2.1-0.2-4.9-0.2c-2.9 0.1-3.5 0-4.4-0.2c-1.5-0.4-3-1.3-4.1-2.5c-0.4-0.4-0.7-0.8-0.8-1c-0.1-0.1-0.3-0.4-0.4-0.5c-0.1-0.2-0.3-0.5-0.4-0.8c-0.2-0.3-0.3-0.7-0.4-0.8c-0.1-0.3-0.4-1.5-0.5-2.2c-0.1-1.3 0.1-3.4 0.5-4.1c0.1-0.1 0.1-0.2 0.1-0.3c0-0.1 0.5-1.1 0.9-1.6q1.1-1.6 2.9-2.8c0.7-0.3 1.5-0.8 1.7-0.8c0.1 0 0.2 0 0.3 0c0.7-0.4 0.8-0.4 3-0.4c3.2-0.1 8.9 0 9.3 0.1z"/>
		<path id="Layer" class="s0" d="m80.5 20.2c0.3 0 1.1 0.5 1.4 0.8c0.2 0.2 0.7 1 0.8 1.3c0.1 0.1 0.2 0.3 0.2 0.4c0.1 0.1 0.1 0.2 0.1 0.3c0 0 0.1 0.1 0.1 0.2c0.1 0.1 0.2 0.3 0.3 0.6c0.1 0.2 0.3 0.7 0.5 1.1c0.2 0.3 0.4 0.8 0.4 0.9c0.1 0.1 0.2 0.3 0.3 0.5c0 0.1 0.1 0.2 0.1 0.3c0.1 0.1 0.3 0.6 0.5 1c0.2 0.5 0.4 1 0.5 1.1c0.1 0.2 0.2 0.6 0.4 0.9c0.2 0.4 0.3 0.7 0.3 0.7c0 0 0.1 0.3 0.3 0.7c0.2 0.3 0.3 0.7 0.4 0.8c0 0.1 0.2 0.5 0.4 0.8c0.1 0.3 0.3 0.8 0.4 1c0.1 0.2 0.2 0.4 0.3 0.6c0.1 0.1 0.2 0.4 0.2 0.5c0.1 0.1 0.2 0.5 0.4 0.9c0.2 0.4 0.4 0.8 0.4 0.9c0 0.1 0.2 0.4 0.3 0.6c0.2 0.3 0.3 0.5 0.3 0.6c0 0 0.1 0.3 0.3 0.7c0.2 0.4 0.4 0.8 0.5 1.1c0.1 0.2 0.2 0.5 0.3 0.6c0 0.1 0.1 0.2 0.1 0.2q0 0.1 0 0.2c0.1 0 0.2 0.2 0.3 0.4c0.1 0.3 0.2 0.5 0.2 0.5c0.1 0 0.3-0.6 0.3-0.7c0 0 0.2-0.3 0.4-0.7c0.2-0.4 0.4-0.8 0.4-0.9c0 0 0.2-0.4 0.4-0.8c0.2-0.4 0.4-0.9 0.4-1c0.1-0.2 0.2-0.4 0.3-0.5c0-0.1 0.1-0.3 0.2-0.5c0-0.1 0.2-0.5 0.4-0.8c0.1-0.4 0.3-0.8 0.5-1.1c0.1-0.4 0.3-0.7 0.4-0.9c0.1-0.2 0.2-0.4 0.2-0.6c0.1-0.1 0.2-0.4 0.2-0.5c0.1-0.1 0.3-0.4 0.4-0.8c0.2-0.4 0.4-0.8 0.5-1c0.1-0.2 0.2-0.5 0.3-0.6c0-0.2 0.1-0.4 0.2-0.5c0.1-0.2 0.2-0.3 0.2-0.3c0 0 0-0.2 0.1-0.3c0-0.1 0.2-0.4 0.2-0.6c0.1-0.3 0.3-0.6 0.3-0.7c0.2-0.4 0.4-0.8 0.6-1.1c0-0.2 0.1-0.4 0.2-0.5c0.1-0.1 0.2-0.3 0.2-0.5c0.1-0.1 0.1-0.3 0.2-0.3c0-0.1 0-0.2 0.1-0.2c0-0.2 0.3-0.9 0.8-1.8c0.1-0.2 0.3-0.7 0.4-1q0.5-1.1 1.2-1.5c0.7-0.5 1.1-0.6 1.9-0.6c0.7 0 1 0.1 1.5 0.4q1.6 1.1 1.6 2.7c0 0.6-0.2 1.1-0.7 2.3c-0.1 0.2-0.3 0.5-0.3 0.7c-0.1 0.1-0.3 0.6-0.5 0.9c-0.1 0.4-0.3 0.7-0.3 0.7c0 0-0.1 0.3-0.3 0.7c-0.2 0.4-0.4 0.8-0.4 1c-0.1 0.3-0.2 0.5-0.3 0.6c0 0.1-0.2 0.4-0.3 0.7c-0.1 0.2-0.3 0.7-0.5 0.9c-0.1 0.2-0.2 0.4-0.2 0.5c0 0-0.1 0.3-0.3 0.7c-0.2 0.4-0.4 1-0.5 1.2c-0.1 0.3-0.3 0.5-0.3 0.6c-0.1 0.1-0.2 0.3-0.2 0.4c-0.2 0.4-0.4 0.9-0.5 1.1c0 0.1-0.2 0.3-0.3 0.6c-0.1 0.2-0.3 0.7-0.4 1c-0.3 0.6-0.4 0.8-0.9 1.9c-0.1 0.2-0.2 0.4-0.2 0.5c0 0-0.5 1-0.7 1.4c0 0.1-0.1 0.3-0.1 0.4c-0.1 0.2-0.2 0.4-0.3 0.5c0 0.1-0.1 0.3-0.2 0.4c0 0.1-0.2 0.5-0.4 1c-0.2 0.4-0.4 0.8-0.4 0.8c0 0-0.5 1.1-0.6 1.3c0 0.1-0.1 0.3-0.2 0.5c0 0.2-0.2 0.4-0.2 0.6c-0.2 0.2-0.6 1-0.6 1.3c-0.1 0.1-0.1 0.2-0.2 0.3c-0.1 0.2-0.2 0.3-0.2 0.4c0 0.1-0.2 0.5-0.4 0.9c-0.2 0.4-0.4 0.9-0.5 1c0 0.2-0.2 0.6-0.4 0.9c-0.1 0.2-0.3 0.6-0.4 0.9c0 0.2-0.2 0.5-0.2 0.5c-0.1 0.2-0.4 0.7-0.5 1.1c-0.1 0.2-0.2 0.4-0.3 0.6c-0.1 0.1-0.2 0.3-0.2 0.4c-0.1 0.2-0.5 0.9-0.7 1.2c-0.1 0.2-0.1 0.3-0.1 0.4c0 0-0.1 0.2-0.3 0.3c-0.1 0.2-0.3 0.5-0.4 0.7c-0.5 0.7-1.6 2-2.2 2.5c-0.8 0.6-2.2 1.6-2.3 1.6c0 0-0.2 0.1-0.3 0.2c-0.2 0.1-0.5 0.2-0.7 0.3c-0.2 0.1-0.4 0.2-0.4 0.2c-0.1 0-0.2 0.1-0.3 0.1c-0.2 0.1-0.4 0.2-0.5 0.2c-0.1 0.1-0.5 0.2-0.9 0.3c-0.3 0.1-0.6 0.2-0.7 0.2c-0.6 0.2-3.4 0.5-4.3 0.4c-0.9-0.1-1.6-0.6-2.1-1.3c-0.4-0.5-0.5-0.8-0.6-1.6q-0.1-2 1.9-3c0.7-0.4 0.6-0.3 1.9-0.4c1.3-0.2 1.9-0.3 2.4-0.5c0.2-0.1 0.4-0.2 0.5-0.2c0.1 0 0.3-0.1 0.5-0.2c0.3-0.2 0.6-0.3 1.2-0.7c0.3-0.2 1.3-1.2 1.6-1.5c0.5-0.8 1.1-1.8 1.5-2.9c0.2-0.3 0.4-0.8 0.5-1.1c0.2-0.3 0.4-0.8 0.5-1l0.2-0.5l-0.2-0.5c-0.2-0.3-0.3-0.6-0.3-0.7c-0.1 0-0.1-0.2-0.2-0.3c0-0.1-0.1-0.2-0.1-0.3c-0.1-0.1-0.2-0.3-0.3-0.5c0-0.2-0.2-0.6-0.4-1c-0.2-0.4-0.4-0.8-0.4-0.8c0 0-0.1-0.3-0.3-0.7c-0.4-0.8-0.5-1.1-0.5-1.2c0 0-0.1-0.1-0.2-0.3c0-0.1-0.1-0.3-0.2-0.4c-0.1-0.3-0.3-0.7-0.7-1.6c-0.4-0.9-0.6-1.4-0.8-1.7c0-0.1-0.2-0.5-0.3-0.8c-0.1-0.2-0.4-0.7-0.5-1c-0.1-0.3-0.3-0.6-0.3-0.7c-0.1-0.1-0.2-0.4-0.3-0.6c-0.1-0.2-0.2-0.5-0.3-0.7c0-0.1-0.2-0.4-0.3-0.7c-0.3-0.7-0.4-0.9-0.7-1.6c-0.2-0.2-0.3-0.6-0.4-0.7c0-0.2-0.1-0.4-0.2-0.5c-0.1-0.1-0.1-0.2-0.1-0.2c0-0.1-0.5-1.1-0.6-1.4c-0.1-0.2-0.2-0.4-0.3-0.6c-0.1-0.3-0.6-1.2-1-2.2c-0.2-0.3-0.4-0.7-0.5-1c-0.1-0.3-0.3-0.6-0.3-0.7c-0.1-0.1-0.2-0.3-0.2-0.5c-0.1-0.2-0.2-0.4-0.3-0.5c-0.1-0.3-0.3-1.2-0.3-1.5c0-0.5 0.3-1.3 0.6-1.7c0.5-0.8 1.2-1.3 2-1.4c0.4-0.1 1 0 1.4 0.1z"/>
		<path id="Layer" fill-rule="evenodd" class="s0" d="m162 20.1c0.7 0.1 1.7 0.2 1.8 0.3c0 0 0.3 0.1 0.6 0.2c0.3 0 0.6 0.1 0.6 0.1c0 0.1 0.2 0.1 0.3 0.1c0.1 0.1 0.4 0.2 0.7 0.3c0.3 0.1 0.6 0.3 0.7 0.3c0.1 0.1 0.4 0.2 0.5 0.3c0.2 0.1 0.5 0.2 0.6 0.3c1.5 0.9 3.2 2.3 4.3 3.8c0.9 1.1 1.6 2.3 2.1 3.6c0 0.1 0.1 0.3 0.2 0.4c0.1 0.2 0.2 0.4 0.2 0.5c0 0.1 0.1 0.3 0.1 0.5c0.2 0.4 0.4 1.8 0.5 2.5c0 0.4 0.1 1.2 0 1.7c0 1 0 1-0.2 1.4c-0.2 0.5-0.6 1-1.1 1.3c-0.1 0.1-0.5 0.2-0.7 0.3l-0.5 0.1l-10.2 0.1c-8.6 0-10.2 0-10.2 0.1c0 0.1 0.2 0.5 0.8 1.5c0.3 0.6 1.5 1.9 2.3 2.4c0.5 0.3 1.7 0.9 2.1 1c0.6 0.3 2.1 0.5 2.8 0.5q0.7 0 1.6-0.2c1-0.2 1.3-0.3 2.1-0.7c0.9-0.4 1.5-0.8 2.6-1.7c0.5-0.5 1.1-0.7 2-0.8c1.1 0 1.8 0.3 2.5 1c0.3 0.5 0.4 0.5 0.6 1.2c0.1 0.7 0.1 0.7 0.1 1.3q-0.1 0.7-0.2 0.9c-0.1 0.1-0.2 0.3-0.2 0.3c-0.1 0.2-0.9 1.1-1.4 1.5c-1.6 1.4-3.6 2.5-5.5 2.9c-0.2 0.1-0.4 0.2-0.5 0.2c-0.2 0.1-1.7 0.3-3.1 0.4c-1.6 0.1-4-0.2-4.4-0.5c-0.1 0-0.2 0-0.2 0c-0.2 0-1.5-0.5-2-0.7c-0.3-0.1-0.6-0.3-0.8-0.4c-0.7-0.3-2.1-1.3-2.9-2c-0.5-0.4-1.7-1.6-2.1-2c-0.8-1.1-1.9-3-2.1-3.7c-0.1-0.3-0.3-0.7-0.4-0.9c-0.1-0.2-0.5-2.2-0.6-3.1c-0.1-0.5-0.1-1.3-0.1-1.7c0-0.8 0.2-2.3 0.3-3.1c0.1-0.3 0.2-0.8 0.3-1.1c0-0.2 0.1-0.6 0.2-0.8c0.1-0.1 0.2-0.3 0.2-0.3c0-0.2 0.4-1.1 0.5-1.4c0.1-0.1 0.3-0.4 0.4-0.6c0.2-0.4 1-1.6 1.4-2.1c0.6-0.8 1.9-2 2.8-2.6c0.1-0.1 0.4-0.3 0.6-0.4c0.1-0.2 0.5-0.4 0.8-0.6c0.3-0.1 0.6-0.3 0.7-0.4c0.1 0 0.5-0.2 0.8-0.3c0.4-0.1 0.7-0.3 0.7-0.3c0 0 0.2-0.1 0.4-0.1c0.2-0.1 0.3-0.1 0.4-0.2c0 0 0.3-0.1 0.6-0.1c0.4-0.1 0.6-0.2 0.7-0.2c0.1 0 1-0.2 1.6-0.3c0.7-0.1 2.6-0.1 3.3 0zm-3 6.4c-0.8 0.1-1.4 0.3-1.8 0.5c-0.1 0-0.2 0.1-0.2 0.1c-0.2 0-1.6 0.8-2 1.2c-0.9 0.6-1.8 1.7-2.1 2.4q-0.5 0.8-0.6 1v0.2h8c4.9 0 8 0 8-0.1c0 0-0.1-0.3-0.3-0.6c-0.7-1.5-1.8-2.7-3.1-3.5c-0.4-0.2-1.1-0.6-1.2-0.6c0 0-0.2-0.1-0.3-0.1c-0.6-0.3-0.9-0.4-1.8-0.5c-1.2-0.1-1.5-0.1-2.6 0z"/>
		<path id="Layer" class="s0" d="m183 20.1c0.7 0 1 0.1 1.6 0.5c0.7 0.5 1.1 1 1.3 1.7l0.1 0.6l0.2-0.2c0.6-0.5 1.8-1.2 2.2-1.3c0.2-0.1 0.6-0.2 1-0.4c0.2-0.1 0.9-0.3 1.4-0.5c0.3 0 0.7-0.1 0.8-0.1c0.8-0.2 1.1-0.3 2.2-0.3c1.2 0 2 0 2 0.2q0.1 0 0.2 0.1c0.1 0 0.9 0.5 1.1 0.8c0.6 0.7 0.7 1.1 0.7 2.1c0 0.7-0.1 1.2-0.5 1.7c-0.3 0.5-0.6 0.7-1.2 1c-0.2 0.1-0.4 0.2-0.5 0.3c-0.1 0-0.6 0.1-1.1 0.1c-1.9 0.2-2 0.2-3 0.6c-2.1 0.8-3.5 2.1-4.6 4.3c-0.4 0.9-0.5 1.3-0.6 2.1c-0.1 0.3-0.1 0.7-0.2 0.8c-0.1 0.5-0.1 2-0.1 8c-0.1 5-0.1 5.4-0.2 5.7c-0.3 0.9-1.1 1.7-1.9 2c-0.8 0.2-1.9 0.1-2.5-0.2c-0.4-0.2-0.9-0.7-1.2-1.2c-0.5-0.7-0.5 0.2-0.5-13.6c0.1-14 0-12.7 0.6-13.5c0.3-0.4 0.5-0.6 0.9-0.8c0.5-0.3 0.8-0.5 1.3-0.5c0.1 0 0.3 0 0.5 0z"/>
	</g>
</svg>