<svg version="1.2" xmlns="http://www.w3.org/2000/svg" width="210" height="70"><style>.s0{fill:#000}</style><g id="Layer"><path class="s0" d="M44.2 6.1c1 0 1.1 0 1.9.6.3.2.8.9.9 1.2 0 .1 0 .3.1.3.1.2.1 1.2.1 15.9v15.1l3.9-3.8c14.4-14.3 14.5-14.5 15-14.8.8-.5 1.4-.7 2.2-.5.6.1.9.2 1.4.7.9.7 1.3 1.5 1.2 2.7-.1.8-.2 1.1-.7 1.7-.2.2-2.5 2.6-5.1 5.2l-4.7 4.7.3.3c.9.8 9.2 9.1 9.6 9.6.4.6.6 1.1.6 1.9 0 1-.3 1.7-1.2 2.4-.5.4-.8.6-1.4.7-.6.1-1.3 0-1.8-.3-.5-.2-1-.6-6.7-6.3l-3.9-4-.7.8c-1.5 1.6-8.7 8.8-9.4 9.3-.6.4-1.4.6-2.3.5-.6-.1-.9-.3-1.4-.7-.4-.4-.5-.5-.8-1q-.3-.6-.3-1c-.1-.6-.1-38 0-38.6.1-.7.6-1.6 1.1-2 .3-.2.9-.5 1.2-.6 0-.1.5-.1.9 0z"/><path fill-rule="evenodd" class="s0" d="M137.8 6.1c.8 0 .9 0 1.2.2.7.3 1 .6 1.4 1.1.3.4.4.6.4.9.2.7.1 38.9 0 39.3-.3.9-1 1.9-1.6 2.1-.9.5-2.3.4-3.1-.1-.7-.5-1.1-1.1-1.3-1.9l-.1-.5-.3.2c-.2.1-.5.3-.6.4-.2.1-.5.2-.6.3-.2.2-1 .6-1.1.6 0 0-.1 0-.3.1-.2.2-1.6.7-1.8.7h-.3c-.3.2-.8.3-1.5.4-.8.1-3.5.1-4.3 0-.7-.1-1.4-.2-1.6-.3 0 0-.3-.1-.5-.2-.9-.2-1.6-.4-1.8-.5l-.2-.2c-.1 0-1.1-.4-1.3-.6-.1-.1-.3-.2-.5-.3-.5-.3-1.4-1-2.2-1.6-2-2-3.9-4.9-4.4-7.1v-.3c-.1-.1-.3-.8-.4-1.6-.1-.7-.1-3.4 0-4.2.1-.6.3-1.4.4-1.5 0-.1 0-.3.1-.5 0-.3.1-.5.1-.6.1-.1.2-.4.2-.5.2-.6 1.1-2.4 1.8-3.5.6-.8 1.9-2.2 2.8-2.9 1.1-.9 2.4-1.8 3.4-2.2.4-.1.7-.3.7-.3.1 0 .2-.1.4-.1.1-.1.3-.1.4-.2.1 0 .4-.1.7-.2.3 0 .8-.1 1.1-.2.9-.2 2.7-.3 3.9-.2 1.1.1 1.6.1 2.1.3.2 0 .5.1.8.2.7.1 1.2.3 2 .7.1 0 .3.1.3.1.1 0 .6.3.9.4.1.1.4.3.5.4.2 0 .5.2.7.4.2.1.3.2.3.2.1 0 .1-3.2.1-7 0-6.9 0-7.1.1-7.6q.3-1.2 1.6-1.9c.2-.1.4-.2.5-.2 0 0 .5-.1.9 0zm-13.2 20.4c-.8.1-1.5.3-1.7.5 0 0-.1 0-.2.1-.5.1-1.6.7-2.1 1.2-.6.4-1.4 1.3-1.8 1.8l-.4.6s-.1.3-.3.6c-.1.3-.3.8-.4 1-.2.5-.5 2.2-.5 2.7 0 .9.5 3 .8 3.4 0 0 .1.3.2.5.7 1.6 2.2 3.1 4 3.9.8.4 1.2.6 2.5.7l1.2.2 1.1-.1c1.1-.2 1.9-.4 2.3-.6l.6-.3c1.1-.5 2.9-2 3.3-3 .1-.1.2-.3.3-.3 0-.1.1-.2.1-.2s.1-.3.2-.5c.3-.7.5-1.3.7-2.1 0-.4.1-.8.1-1 .1-.4.1-.7 0-1.1 0-.2-.1-.7-.2-1.2 0-.4-.1-.8-.2-.9-.1-.1-.1-.3-.1-.3 0-.1 0-.2-.1-.3 0-.1-.2-.4-.3-.6-.4-.8-.8-1.4-1.4-2-.5-.6-.9-.9-1.7-1.4-.7-.5-.9-.6-2.2-1.1-.1 0-.6-.1-1.1-.2-1.4-.1-1.4-.1-2.7 0z"/><path class="s0" d="M30.9 20.2c.7.1 1.7 1 2.1 1.7.1.2.3.9.3 1.3 0 .7-.2 1.2-.6 1.8-.5.6-.9.9-1.8 1.2l-.6.2h-4.7c-3.6 0-4.8.1-5.1.1-.7.2-1.5.8-1.7 1.5 0 .2-.1.4-.2.4 0 .1 0 .3-.1.6 0 .4 0 .6.2.9.3.9.6 1.2 1.3 1.6.9.4.9.4 5 .4 2.4 0 3.9.1 4.2.1.6.1 1.1.3 1.3.4.1 0 .2.1.2.1.2 0 1.4.5 1.9.9 1.5 1.1 3 2.9 3.4 4.4.5 1.5.6 1.9.6 3.2 0 1.1 0 1.2-.2 1.9-.2.8-.5 1.8-.6 1.9 0 .1-.2.3-.3.5-.6 1.2-1.8 2.4-3 3.2-.4.3-.8.5-.9.6-.2.1-.4.1-.4.2 0 0-.2 0-.3.1-.2 0-.4.1-.5.2-.2.1-.6.2-.9.2-.7.2-.9.2-6.8.2-6.7 0-8 0-8.6-.2-.5-.2-1.4-1-1.6-1.6-.4-.7-.4-1.9-.1-2.6.3-.5.8-1.1 1.2-1.3.8-.5.5-.5 7.6-.5 5.5-.1 6.4-.1 6.8-.2.6-.1.8-.2 1.2-.6.8-.6 1.2-1.7.9-2.8-.2-.8-.8-1.5-1.5-1.7-.2-.1-.4-.2-.5-.2-.2-.1-2.1-.2-4.9-.2-2.9.1-3.5 0-4.4-.2-1.5-.4-3-1.3-4.1-2.5-.4-.4-.7-.8-.8-1-.1-.1-.3-.4-.4-.5-.1-.2-.3-.5-.4-.8-.2-.3-.3-.7-.4-.8-.1-.3-.4-1.5-.5-2.2-.1-1.3.1-3.4.5-4.1.1-.1.1-.2.1-.3 0-.1.5-1.1.9-1.6q1.1-1.6 2.9-2.8c.7-.3 1.5-.8 1.7-.8h.3c.7-.4.8-.4 3-.4 3.2-.1 8.9 0 9.3.1zM80.5 20.2c.3 0 1.1.5 1.4.8.2.2.7 1 .8 1.3.1.1.2.3.2.4.1.1.1.2.1.3 0 0 .1.1.1.2.1.1.2.3.3.6.1.2.3.7.5 1.1.2.3.4.8.4.9.1.1.2.3.3.5 0 .1.1.2.1.3.1.1.3.6.5 1 .2.5.4 1 .5 1.1.1.2.2.6.4.9.2.4.3.7.3.7s.1.3.3.7c.2.3.3.7.4.8 0 .1.2.5.4.8.1.3.3.8.4 1l.3.6c.1.1.2.4.2.5.1.1.2.5.4.9s.4.8.4.9c0 .1.2.4.3.6.2.3.3.5.3.6 0 0 .1.3.3.7.2.4.4.8.5 1.1.1.2.2.5.3.6 0 .1.1.2.1.2v.2c.1 0 .2.2.3.4.1.3.2.5.2.5.1 0 .3-.6.3-.7 0 0 .2-.3.4-.7.2-.4.4-.8.4-.9l.4-.8c.2-.4.4-.9.4-1 .1-.2.2-.4.3-.5 0-.1.1-.3.2-.5 0-.1.2-.5.4-.8.1-.4.3-.8.5-1.1.1-.4.3-.7.4-.9.1-.2.2-.4.2-.6.1-.1.2-.4.2-.5.1-.1.3-.4.4-.8l.5-1c.1-.2.2-.5.3-.6 0-.2.1-.4.2-.5.1-.2.2-.3.2-.3s0-.2.1-.3c0-.1.2-.4.2-.6.1-.3.3-.6.3-.7.2-.4.4-.8.6-1.1 0-.2.1-.4.2-.5.1-.1.2-.3.2-.5.1-.1.1-.3.2-.3 0-.1 0-.2.1-.2 0-.2.3-.9.8-1.8.1-.2.3-.7.4-1q.5-1.1 1.2-1.5c.7-.5 1.1-.6 1.9-.6.7 0 1 .1 1.5.4q1.6 1.1 1.6 2.7c0 .6-.2 1.1-.7 2.3-.1.2-.3.5-.3.7-.1.1-.3.6-.5.9-.1.4-.3.7-.3.7s-.1.3-.3.7c-.2.4-.4.8-.4 1-.1.3-.2.5-.3.6 0 .1-.2.4-.3.7-.1.2-.3.7-.5.9-.1.2-.2.4-.2.5 0 0-.1.3-.3.7-.2.4-.4 1-.5 1.2-.1.3-.3.5-.3.6-.1.1-.2.3-.2.4-.2.4-.4.9-.5 1.1 0 .1-.2.3-.3.6-.1.2-.3.7-.4 1-.3.6-.4.8-.9 1.9-.1.2-.2.4-.2.5l-.7 1.4c0 .1-.1.3-.1.4-.1.2-.2.4-.3.5 0 .1-.1.3-.2.4 0 .1-.2.5-.4 1l-.4.8s-.5 1.1-.6 1.3c0 .1-.1.3-.2.5 0 .2-.2.4-.2.6-.2.2-.6 1-.6 1.3-.1.1-.1.2-.2.3-.1.2-.2.3-.2.4 0 .1-.2.5-.4.9s-.4.9-.5 1c0 .2-.2.6-.4.9-.1.2-.3.6-.4.9 0 .2-.2.5-.2.5-.1.2-.4.7-.5 1.1l-.3.6c-.1.1-.2.3-.2.4-.1.2-.5.9-.7 1.2-.1.2-.1.3-.1.4 0 0-.1.2-.3.3-.1.2-.3.5-.4.7-.5.7-1.6 2-2.2 2.5-.8.6-2.2 1.6-2.3 1.6 0 0-.2.1-.3.2-.2.1-.5.2-.7.3l-.4.2c-.1 0-.2.1-.3.1-.2.1-.4.2-.5.2-.1.1-.5.2-.9.3-.3.1-.6.2-.7.2-.6.2-3.4.5-4.3.4-.9-.1-1.6-.6-2.1-1.3-.4-.5-.5-.8-.6-1.6q-.1-2 1.9-3c.7-.4.6-.3 1.9-.4 1.3-.2 1.9-.3 2.4-.5.2-.1.4-.2.5-.2.1 0 .3-.1.5-.2.3-.2.6-.3 1.2-.7.3-.2 1.3-1.2 1.6-1.5.5-.8 1.1-1.8 1.5-2.9.2-.3.4-.8.5-1.1.2-.3.4-.8.5-1l.2-.5-.2-.5c-.2-.3-.3-.6-.3-.7-.1 0-.1-.2-.2-.3 0-.1-.1-.2-.1-.3-.1-.1-.2-.3-.3-.5 0-.2-.2-.6-.4-1l-.4-.8s-.1-.3-.3-.7c-.4-.8-.5-1.1-.5-1.2 0 0-.1-.1-.2-.3 0-.1-.1-.3-.2-.4-.1-.3-.3-.7-.7-1.6-.4-.9-.6-1.4-.8-1.7 0-.1-.2-.5-.3-.8-.1-.2-.4-.7-.5-1-.1-.3-.3-.6-.3-.7-.1-.1-.2-.4-.3-.6-.1-.2-.2-.5-.3-.7 0-.1-.2-.4-.3-.7-.3-.7-.4-.9-.7-1.6-.2-.2-.3-.6-.4-.7 0-.2-.1-.4-.2-.5-.1-.1-.1-.2-.1-.2 0-.1-.5-1.1-.6-1.4l-.3-.6c-.1-.3-.6-1.2-1-2.2-.2-.3-.4-.7-.5-1-.1-.3-.3-.6-.3-.7-.1-.1-.2-.3-.2-.5-.1-.2-.2-.4-.3-.5-.1-.3-.3-1.2-.3-1.5 0-.5.3-1.3.6-1.7.5-.8 1.2-1.3 2-1.4.4-.1 1 0 1.4.1z"/><path fill-rule="evenodd" class="s0" d="M162 20.1c.7.1 1.7.2 1.8.3l.6.2c.3 0 .6.1.6.1 0 .1.2.1.3.1.1.1.4.2.7.3.3.1.6.3.7.3.1.1.4.2.5.3.2.1.5.2.6.3 1.5.9 3.2 2.3 4.3 3.8.9 1.1 1.6 2.3 2.1 3.6 0 .1.1.3.2.4.1.2.2.4.2.5 0 .1.1.3.1.5.2.4.4 1.8.5 2.5 0 .4.1 1.2 0 1.7 0 1 0 1-.2 1.4-.2.5-.6 1-1.1 1.3-.1.1-.5.2-.7.3l-.5.1-10.2.1c-8.6 0-10.2 0-10.2.1s.2.5.8 1.5c.3.6 1.5 1.9 2.3 2.4.5.3 1.7.9 2.1 1 .6.3 2.1.5 2.8.5q.7 0 1.6-.2c1-.2 1.3-.3 2.1-.7.9-.4 1.5-.8 2.6-1.7.5-.5 1.1-.7 2-.8 1.1 0 1.8.3 2.5 1 .3.5.4.5.6 1.2.1.7.1.7.1 1.3q-.1.7-.2.9c-.1.1-.2.3-.2.3-.1.2-.9 1.1-1.4 1.5-1.6 1.4-3.6 2.5-5.5 2.9-.2.1-.4.2-.5.2-.2.1-1.7.3-3.1.4-1.6.1-4-.2-4.4-.5h-.2c-.2 0-1.5-.5-2-.7-.3-.1-.6-.3-.8-.4-.7-.3-2.1-1.3-2.9-2-.5-.4-1.7-1.6-2.1-2-.8-1.1-1.9-3-2.1-3.7-.1-.3-.3-.7-.4-.9-.1-.2-.5-2.2-.6-3.1-.1-.5-.1-1.3-.1-1.7 0-.8.2-2.3.3-3.1.1-.3.2-.8.3-1.1 0-.2.1-.6.2-.8.1-.1.2-.3.2-.3 0-.2.4-1.1.5-1.4.1-.1.3-.4.4-.6.2-.4 1-1.6 1.4-2.1.6-.8 1.9-2 2.8-2.6.1-.1.4-.3.6-.4.1-.2.5-.4.8-.6.3-.1.6-.3.7-.4.1 0 .5-.2.8-.3.4-.1.7-.3.7-.3s.2-.1.4-.1c.2-.1.3-.1.4-.2 0 0 .3-.1.6-.1.4-.1.6-.2.7-.2.1 0 1-.2 1.6-.3.7-.1 2.6-.1 3.3 0zm-3 6.4c-.8.1-1.4.3-1.8.5-.1 0-.2.1-.2.1-.2 0-1.6.8-2 1.2-.9.6-1.8 1.7-2.1 2.4q-.5.8-.6 1v.2h8c4.9 0 8 0 8-.1 0 0-.1-.3-.3-.6-.7-1.5-1.8-2.7-3.1-3.5-.4-.2-1.1-.6-1.2-.6 0 0-.2-.1-.3-.1-.6-.3-.9-.4-1.8-.5-1.2-.1-1.5-.1-2.6 0z"/><path class="s0" d="M183 20.1c.7 0 1 .1 1.6.5.7.5 1.1 1 1.3 1.7l.1.6.2-.2c.6-.5 1.8-1.2 2.2-1.3.2-.1.6-.2 1-.4.2-.1.9-.3 1.4-.5.3 0 .7-.1.8-.1.8-.2 1.1-.3 2.2-.3 1.2 0 2 0 2 .2q.1 0 .2.1c.1 0 .9.5 1.1.8.6.7.7 1.1.7 2.1 0 .7-.1 1.2-.5 1.7-.3.5-.6.7-1.2 1-.2.1-.4.2-.5.3-.1 0-.6.1-1.1.1-1.9.2-2 .2-3 .6-2.1.8-3.5 2.1-4.6 4.3-.4.9-.5 1.3-.6 2.1-.1.3-.1.7-.2.8-.1.5-.1 2-.1 8-.1 5-.1 5.4-.2 5.7-.3.9-1.1 1.7-1.9 2-.8.2-1.9.1-2.5-.2-.4-.2-.9-.7-1.2-1.2-.5-.7-.5.2-.5-13.6.1-14 0-12.7.6-13.5.3-.4.5-.6.9-.8.5-.3.8-.5 1.3-.5h.5z"/></g></svg>