<svg width="107" height="67" viewBox="0 0 107 67" fill="none" xmlns="http://www.w3.org/2000/svg">
<path d="M11.8357 27.5955C9.67701 27.5955 7.56792 27.3598 5.50845 26.8883C3.4738 26.3921 1.79893 25.7345 0.48385 24.9157L3.31251 18.514C4.55316 19.2336 5.94267 19.8167 7.48107 20.2633C9.01947 20.6851 10.4958 20.896 11.9102 20.896C13.126 20.896 13.9944 20.7844 14.5155 20.5611C15.0366 20.3129 15.2971 19.9532 15.2971 19.4817C15.2971 18.9358 14.9497 18.5264 14.255 18.2535C13.585 17.9805 12.4685 17.6828 10.9052 17.3602C8.8954 16.9384 7.22054 16.4918 5.88064 16.0203C4.54075 15.5241 3.37455 14.7301 2.38203 13.6383C1.38952 12.5217 0.893262 11.0205 0.893262 9.13476C0.893262 7.49711 1.3523 6.00834 2.27037 4.66845C3.18845 3.32855 4.55316 2.27401 6.36449 1.50481C8.20064 0.735612 10.4214 0.351014 13.0267 0.351014C14.8133 0.351014 16.5626 0.549516 18.2747 0.946521C20.0116 1.31871 21.5375 1.877 22.8526 2.62139L20.2101 8.98588C17.6543 7.69561 15.2351 7.05048 12.9523 7.05048C10.6943 7.05048 9.56535 7.59636 9.56535 8.68813C9.56535 9.2092 9.90032 9.6062 10.5703 9.87914C11.2402 10.1273 12.3444 10.4002 13.8828 10.698C15.8678 11.0702 17.5427 11.5044 18.9074 12.0006C20.2721 12.4721 21.4507 13.2537 22.4432 14.3455C23.4605 15.4372 23.9692 16.926 23.9692 18.8118C23.9692 20.4494 23.5102 21.9382 22.5921 23.2781C21.674 24.5932 20.2969 25.6477 18.4608 26.4417C16.6494 27.2109 14.4411 27.5955 11.8357 27.5955ZM37.1905 18.3651L35.2178 20.5611V27H26.583V0.946521H35.2178V10.4002L43.7783 0.946521H53.3436L42.9222 12.4101L53.8647 27H43.7038L37.1905 18.3651ZM68.4904 17.5463V27H59.7067V17.4347L49.8808 0.946521H59.1484L64.4707 9.95358L69.8303 0.946521H78.3163L68.4904 17.5463ZM79.4314 0.946521H92.2721C95.1752 0.946521 97.7309 1.48 99.9392 2.54695C102.172 3.58909 103.897 5.09027 105.113 7.05048C106.353 9.01069 106.974 11.3183 106.974 13.9733C106.974 16.6282 106.353 18.9358 105.113 20.896C103.897 22.8563 102.172 24.3698 99.9392 25.4368C97.7309 26.4789 95.1752 27 92.2721 27H79.4314V0.946521ZM91.8999 20.1517C93.7856 20.1517 95.2868 19.6182 96.4034 18.5512C97.5448 17.4595 98.1155 15.9335 98.1155 13.9733C98.1155 12.013 97.5448 10.4995 96.4034 9.43251C95.2868 8.34075 93.7856 7.79486 91.8999 7.79486H88.2152V20.1517H91.8999ZM23.7831 59.375V66H2.1215V39.9465H23.2993V46.5715H10.7564V49.6235H21.7733V55.9508H10.7564V59.375H23.7831ZM38.3303 59.4494H35.9483V66H27.1645V39.9465H39.7074C42.1143 39.9465 44.211 40.3435 45.9975 41.1375C47.784 41.9315 49.1611 43.0729 50.1288 44.5617C51.0965 46.0505 51.5804 47.7874 51.5804 49.7724C51.5804 51.6334 51.1585 53.2586 50.3149 54.6481C49.4713 56.0376 48.2554 57.1418 46.6674 57.9606L52.1387 66H42.7594L38.3303 59.4494ZM42.7222 49.7724C42.7222 48.8047 42.4244 48.0603 41.8289 47.5392C41.2334 46.9934 40.3401 46.7204 39.1491 46.7204H35.9483V52.8244H39.1491C40.3401 52.8244 41.2334 52.5638 41.8289 52.0428C42.4244 51.4969 42.7222 50.7401 42.7222 49.7724ZM58.4331 66.3722C57.0187 66.3722 55.8401 65.9256 54.8972 65.0323C53.9792 64.1142 53.5201 62.948 53.5201 61.5337C53.5201 60.1194 53.9792 58.978 54.8972 58.1095C55.8401 57.2163 57.0187 56.7696 58.4331 56.7696C59.8474 56.7696 61.0136 57.2163 61.9317 58.1095C62.8746 58.978 63.346 60.1194 63.346 61.5337C63.346 62.948 62.8746 64.1142 61.9317 65.0323C61.0136 65.9256 59.8474 66.3722 58.4331 66.3722Z" fill="black"/>
</svg>
