<svg width="385" height="206" viewBox="0 0 385 206" fill="none" xmlns="http://www.w3.org/2000/svg">
<path d="M283.403 17.2508C263.339 11.6509 243.315 5.90064 223.331 0C203.868 5.86526 184.406 11.6155 164.944 17.2508C146.012 11.6155 127.12 5.86526 108.268 0C87.7089 5.90064 67.1141 11.6509 46.484 17.2508L0.0263672 205.775C26.8402 200.122 53.632 194.372 80.4016 188.524C105.464 194.381 130.557 200.131 155.681 205.775C181.336 200.149 206.991 194.398 232.646 188.524C258.841 194.407 285.066 200.157 311.323 205.775C335.872 200.122 360.395 194.372 384.891 188.524L338.407 0C320.103 5.86526 301.769 11.6155 283.403 17.2508Z" fill="#407BFF"/>
<path opacity="0.8" d="M283.403 17.2508C263.339 11.6509 243.315 5.90064 223.331 0C203.868 5.86526 184.406 11.6155 164.944 17.2508C146.012 11.6155 127.12 5.86526 108.268 0C87.7089 5.90064 67.1141 11.6509 46.484 17.2508L0.0263672 205.775C26.8402 200.122 53.632 194.372 80.4016 188.524C105.464 194.381 130.557 200.131 155.681 205.775C181.336 200.149 206.991 194.398 232.646 188.524C258.841 194.407 285.066 200.157 311.323 205.775C335.872 200.122 360.395 194.372 384.891 188.524L338.407 0C320.103 5.86526 301.769 11.6155 283.403 17.2508Z" fill="white"/>
<path d="M156.199 194.827C181.518 189.201 206.814 183.451 232.089 177.577C257.93 183.46 283.797 189.21 309.691 194.827C330.153 190.068 350.602 185.202 371.037 180.231C358.192 124.683 345.364 69.1402 332.555 13.6016C316.764 18.5645 300.933 23.4301 285.062 28.1984C264.644 22.5985 244.262 16.8483 223.915 10.9476C204.116 16.7952 184.295 22.5455 164.453 28.1984C145.167 22.5632 125.917 16.8129 106.702 10.9476C89.1331 15.8928 71.5417 20.7584 53.9283 25.5444C41.0831 81.083 28.2556 136.622 15.4458 192.16C37.6772 187.365 59.8864 182.5 82.0735 177.563C106.729 183.411 131.437 189.166 156.199 194.827Z" fill="#407BFF"/>
<path opacity="0.4" d="M156.199 194.827C181.518 189.201 206.814 183.451 232.089 177.577C257.93 183.46 283.797 189.21 309.691 194.827C330.153 190.068 350.602 185.202 371.037 180.231C358.192 124.683 345.364 69.1402 332.555 13.6016C316.764 18.5645 300.933 23.4301 285.062 28.1984C264.644 22.5985 244.262 16.8483 223.915 10.9476C204.116 16.7952 184.295 22.5455 164.453 28.1984C145.167 22.5632 125.917 16.8129 106.702 10.9476C89.1331 15.8928 71.5417 20.7584 53.9283 25.5444C41.0831 81.083 28.2556 136.622 15.4458 192.16C37.6772 187.365 59.8864 182.5 82.0735 177.563C106.729 183.411 131.437 189.166 156.199 194.827Z" fill="white"/>
<path d="M213.578 145.212C212.583 134.596 211.773 124.949 207.607 119.375C198.318 107.048 176.091 109.675 162.131 112.223C160.578 109.569 156.597 102.178 152.232 84.3563C148.065 67.3444 128.797 59.1437 113.935 54.3533C109.742 53.0263 104.553 51.2481 103.691 50.0273C102.456 44.4142 97.0557 44.1488 91.7478 43.9099C87.4881 43.7109 82.6314 43.4853 78.7566 40.911C75.2932 38.602 79.2741 27.7075 84.4626 17.2111L80.0969 18.4053C79.7253 19.2148 79.3405 20.0243 78.9689 20.847C72.7985 34.6211 69.6137 43.4057 74.7889 46.7497C79.9642 50.0937 85.6835 50.3193 90.4075 50.5448C95.1316 50.7704 97.3874 51.0225 97.6794 52.5088C98.449 56.4897 103.372 58.2546 111.414 60.7228C125.121 64.9293 141.788 71.3386 145.995 86.453C153.028 111.666 157.367 117.637 158.19 118.393L159.424 119.535L161.136 119.176C173.623 116.801 193.912 113.961 201.993 123.051C205.165 126.621 205.974 136.175 206.598 145.676C207.301 157.5 206.877 170.889 210.473 182.619L220.956 180.204C215.741 168.222 214.573 155.774 213.578 145.212Z" fill="#407BFF"/>
<path opacity="0.2" d="M213.578 145.212C212.583 134.596 211.773 124.949 207.607 119.375C198.318 107.048 176.091 109.675 162.131 112.223C160.578 109.569 156.597 102.178 152.232 84.3563C148.065 67.3444 128.797 59.1437 113.935 54.3533C109.742 53.0263 104.553 51.2481 103.691 50.0273C102.456 44.4142 97.0557 44.1488 91.7478 43.9099C87.4881 43.7109 82.6314 43.4853 78.7566 40.911C75.2932 38.602 79.2741 27.7075 84.4626 17.2111L80.0969 18.4053C79.7253 19.2148 79.3405 20.0243 78.9689 20.847C72.7985 34.6211 69.6137 43.4057 74.7889 46.7497C79.9642 50.0937 85.6835 50.3193 90.4075 50.5448C95.1316 50.7704 97.3874 51.0225 97.6794 52.5088C98.449 56.4897 103.372 58.2546 111.414 60.7228C125.121 64.9293 141.788 71.3386 145.995 86.453C153.028 111.666 157.367 117.637 158.19 118.393L159.424 119.535L161.136 119.176C173.623 116.801 193.912 113.961 201.993 123.051C205.165 126.621 205.974 136.175 206.598 145.676C207.301 157.5 206.877 170.889 210.473 182.619L220.956 180.204C215.741 168.222 214.573 155.774 213.578 145.212Z" fill="white"/>
<g opacity="0.5">
<path opacity="0.5" d="M233.946 79.181L278.095 82.8966C279.355 92.9286 279.979 97.9578 281.24 107.99L251.661 105.177L250.533 91.6945L234.61 89.6907C234.318 85.4975 234.185 83.3876 233.946 79.181Z" fill="white"/>
<path opacity="0.5" d="M232.248 93.5791L247.084 95.5961L248.212 110.193L233.111 109.025L232.248 93.5791Z" fill="white"/>
</g>
<path opacity="0.5" d="M303.906 49.324C299.182 51.195 296.807 52.1239 291.963 53.9949L294.02 67.4505C298.97 65.898 301.425 65.1283 306.321 63.5625C305.392 57.8697 304.901 55.0167 303.906 49.324Z" fill="white"/>
<path opacity="0.5" d="M82.7766 133.8C73.4877 136.706 68.7769 138.152 59.289 141.045C57.7365 149.378 56.9535 153.558 55.3877 161.892C65.0481 159.477 69.8385 158.282 79.3397 155.867C80.7065 147.043 81.3965 142.624 82.7766 133.8Z" fill="white"/>
<path d="M226.941 73.8994C248.624 75.6687 270.298 77.438 291.963 79.2073H292.388C309.745 74.5186 327.075 69.7459 344.379 64.8892L343.052 59.4087C325.766 64.3274 308.449 69.1399 291.101 73.8463L267.467 71.9222C261 54.061 254.808 36.129 248.889 18.1263L242.254 16.242C248.164 34.7136 254.33 53.0923 260.753 71.3781L225.972 68.5251C216.683 71.8956 211.973 73.5942 202.445 76.9647H162.198C142.01 73.7799 121.831 70.5554 101.661 67.291C109.384 50.3853 116.832 33.3689 124.007 16.242L119.668 14.915C112.21 32.4223 104.478 49.797 96.4721 67.0389C78.4783 69.6928 60.4756 72.2981 42.464 74.8548C41.973 77.0045 41.7209 78.0794 41.2299 80.1627C59.5688 77.5088 77.9121 74.8548 96.2598 72.2008C103.28 89.1331 111.042 105.667 119.097 122.135L89.7045 119.773C69.3133 125.196 48.8866 130.504 28.4245 135.697C27.6549 139.001 27.2701 140.66 26.5137 143.964C47.4711 138.727 68.3976 133.384 89.2932 127.934L122.733 130.588C128.784 151.156 135.366 171.565 142.638 191.722L149.631 193.314C142.014 172.852 135.127 152.032 128.744 131.092L158.907 133.534C183.031 139.93 207.213 146.198 231.453 152.337C248.65 146.808 265.808 141.146 282.926 135.352C289.92 145.822 293.542 151.05 300.947 161.52C315.614 170.013 330.392 178.324 345.281 186.454L356.242 183.8C339.655 174.732 323.169 165.492 306.785 156.079C300.151 146.79 296.886 142.093 290.57 132.764L300.137 129.487C319.06 126.063 337.978 122.6 356.892 119.096C356.136 115.859 355.764 114.24 355.021 111.002C335.665 114.629 316.304 118.212 296.939 121.75C274.938 129.35 252.883 136.772 230.776 144.017C217.4 140.602 204.037 137.139 190.688 133.627C195.81 116.403 200.592 99.0855 205.033 81.6755C213.87 78.6367 218.249 77.0178 226.941 73.8994ZM185.42 132.22C175.507 129.566 170.584 128.239 160.857 125.665L125.732 122.785C117.545 106.344 109.623 89.8231 102.457 72.9041C122.114 76.0535 141.771 79.1498 161.428 82.193H199.605C195.155 98.9749 190.405 115.651 185.353 132.22H185.42Z" fill="white"/>
<path opacity="0.1" d="M80.3753 188.524C53.6056 194.381 26.8139 200.131 0 205.775L46.4443 17.2509C67.0745 11.6422 87.6692 5.89192 108.229 0.00012207L80.3753 188.524Z" fill="black"/>
<path opacity="0.1" d="M232.634 188.524C206.979 194.407 181.324 200.157 155.669 205.775C158.765 142.965 161.861 80.1231 164.958 17.2508C184.42 11.6155 203.882 5.86526 223.345 0C226.432 62.8458 229.529 125.687 232.634 188.524Z" fill="black"/>
<path opacity="0.1" d="M384.85 188.524C360.354 194.381 335.832 200.131 311.283 205.775L283.416 17.2508C301.781 11.6155 320.107 5.86526 338.393 0L384.85 188.524Z" fill="black"/>
<path opacity="0.1" d="M308.471 64.7965C308.471 66.2695 304.782 67.4505 300.244 67.4505C295.706 67.4505 292.03 66.2695 292.03 64.7965C292.03 63.3236 295.706 62.1426 300.244 62.1426C304.782 62.1426 308.471 63.3369 308.471 64.7965Z" fill="black"/>
<path d="M300.933 63.9077C305.087 63.9077 308.47 55.76 308.47 51.6066C308.47 49.6063 307.677 47.6878 306.264 46.2722C304.85 44.8566 302.933 44.0595 300.933 44.056H299.606C298.615 44.056 297.634 44.2514 296.719 44.631C295.803 45.0106 294.972 45.567 294.272 46.2683C293.572 46.9696 293.017 47.8021 292.639 48.7181C292.261 49.6341 292.067 50.6156 292.069 51.6066C292.069 55.76 295.439 63.9077 299.606 63.9077H300.933ZM297.921 51.6066C298.021 51.1679 298.243 50.7664 298.561 50.4482C298.879 50.1301 299.281 49.9083 299.719 49.8084C300.158 49.7085 300.616 49.7345 301.041 49.8835C301.465 50.0325 301.839 50.2983 302.119 50.6504C302.399 51.0025 302.574 51.4266 302.624 51.8738C302.673 52.3209 302.596 52.773 302.4 53.178C302.204 53.583 301.897 53.9244 301.516 54.1628C301.134 54.4013 300.693 54.5272 300.243 54.5259C299.584 54.3709 298.997 53.9986 298.576 53.469C298.154 52.9393 297.924 52.2833 297.921 51.6066Z" fill="#263238"/>
<path d="M299.567 44.056C298.576 44.056 297.595 44.2514 296.68 44.631C295.764 45.0106 294.933 45.567 294.233 46.2683C293.533 46.9696 292.978 47.8021 292.6 48.7181C292.222 49.6341 292.028 50.6156 292.03 51.6066C292.03 55.76 295.4 63.9077 299.567 63.9077C303.734 63.9077 307.104 55.76 307.104 51.6066C307.106 50.6156 306.912 49.6341 306.534 48.7181C306.156 47.8021 305.601 46.9696 304.901 46.2683C304.201 45.567 303.37 45.0106 302.455 44.631C301.539 44.2514 300.558 44.056 299.567 44.056ZM299.567 54.6055C298.971 54.6055 298.388 54.4285 297.892 54.0969C297.397 53.7654 297.01 53.2941 296.783 52.7429C296.555 52.1917 296.496 51.5854 296.614 51.0007C296.731 50.416 297.019 49.8793 297.442 49.4586C297.864 49.0379 298.402 48.752 298.988 48.6373C299.573 48.5226 300.179 48.5841 300.729 48.8142C301.279 49.0442 301.749 49.4323 302.078 49.9294C302.408 50.4265 302.582 51.0102 302.579 51.6066C302.579 52.0015 302.501 52.3926 302.35 52.7573C302.198 53.122 301.976 53.4532 301.696 53.7319C301.416 54.0105 301.084 54.2311 300.719 54.3811C300.353 54.531 299.962 54.6073 299.567 54.6055Z" fill="#407BFF"/>
<path opacity="0.3" d="M299.567 44.056C298.576 44.056 297.595 44.2514 296.68 44.631C295.764 45.0106 294.933 45.567 294.233 46.2683C293.533 46.9696 292.978 47.8021 292.6 48.7181C292.222 49.6341 292.028 50.6156 292.03 51.6066C292.03 55.76 295.4 63.9077 299.567 63.9077C303.734 63.9077 307.104 55.76 307.104 51.6066C307.106 50.6156 306.912 49.6341 306.534 48.7181C306.156 47.8021 305.601 46.9696 304.901 46.2683C304.201 45.567 303.37 45.0106 302.455 44.631C301.539 44.2514 300.558 44.056 299.567 44.056ZM299.567 54.6055C298.971 54.6055 298.388 54.4285 297.892 54.0969C297.397 53.7654 297.01 53.2941 296.783 52.7429C296.555 52.1917 296.496 51.5854 296.614 51.0007C296.731 50.416 297.019 49.8793 297.442 49.4586C297.864 49.0379 298.402 48.752 298.988 48.6373C299.573 48.5226 300.179 48.5841 300.729 48.8142C301.279 49.0442 301.749 49.4323 302.078 49.9294C302.408 50.4265 302.582 51.0102 302.579 51.6066C302.579 52.0015 302.501 52.3926 302.35 52.7573C302.198 53.122 301.976 53.4532 301.696 53.7319C301.416 54.0105 301.084 54.2311 300.719 54.3811C300.353 54.531 299.962 54.6073 299.567 54.6055Z" fill="black"/>
<path opacity="0.1" d="M248.398 133.309C248.398 134.768 244.722 135.963 240.184 135.963C235.646 135.963 231.957 134.768 231.957 133.309C231.957 131.849 235.646 130.655 240.184 130.655C244.722 130.655 248.398 131.836 248.398 133.309Z" fill="black"/>
<path d="M240.859 132.406C245.026 132.406 248.397 124.271 248.397 120.105C248.397 118.106 247.603 116.189 246.189 114.775C244.776 113.362 242.858 112.568 240.859 112.568H239.532C238.542 112.566 237.56 112.759 236.644 113.137C235.728 113.515 234.896 114.07 234.194 114.77C233.493 115.47 232.937 116.302 232.557 117.217C232.177 118.133 231.982 119.114 231.982 120.105C231.982 124.271 235.366 132.406 239.532 132.406H240.859ZM237.86 120.105C237.96 119.666 238.182 119.265 238.5 118.946C238.819 118.628 239.22 118.407 239.659 118.307C240.098 118.207 240.556 118.233 240.98 118.382C241.405 118.531 241.779 118.797 242.059 119.149C242.339 119.501 242.514 119.925 242.563 120.372C242.613 120.819 242.535 121.271 242.339 121.676C242.143 122.081 241.837 122.423 241.455 122.661C241.074 122.9 240.633 123.025 240.183 123.024C239.522 122.873 238.932 122.502 238.51 121.972C238.088 121.441 237.859 120.783 237.86 120.105Z" fill="#263238"/>
<path d="M239.507 112.568C238.516 112.566 237.535 112.759 236.619 113.137C235.703 113.515 234.87 114.07 234.169 114.77C233.468 115.47 232.911 116.302 232.532 117.217C232.152 118.133 231.957 119.114 231.957 120.105C231.957 124.271 235.34 132.406 239.507 132.406C243.674 132.406 247.044 124.271 247.044 120.105C247.044 119.115 246.849 118.135 246.471 117.22C246.092 116.306 245.537 115.475 244.837 114.775C244.137 114.075 243.306 113.52 242.391 113.141C241.477 112.762 240.497 112.568 239.507 112.568ZM239.507 123.183C238.911 123.186 238.327 123.012 237.83 122.682C237.333 122.353 236.945 121.883 236.715 121.333C236.485 120.783 236.423 120.177 236.538 119.592C236.653 119.006 236.938 118.468 237.359 118.046C237.78 117.623 238.317 117.335 238.901 117.218C239.486 117.1 240.092 117.159 240.643 117.387C241.195 117.615 241.666 118.001 241.997 118.496C242.329 118.992 242.506 119.575 242.506 120.171C242.489 120.956 242.166 121.703 241.605 122.254C241.045 122.804 240.292 123.114 239.507 123.117V123.183Z" fill="#407BFF"/>
<path opacity="0.3" d="M239.507 112.568C238.516 112.566 237.535 112.759 236.619 113.137C235.703 113.515 234.87 114.07 234.169 114.77C233.468 115.47 232.911 116.302 232.532 117.217C232.152 118.133 231.957 119.114 231.957 120.105C231.957 124.271 235.34 132.406 239.507 132.406C243.674 132.406 247.044 124.271 247.044 120.105C247.044 119.115 246.849 118.135 246.471 117.22C246.092 116.306 245.537 115.475 244.837 114.775C244.137 114.075 243.306 113.52 242.391 113.141C241.477 112.762 240.497 112.568 239.507 112.568ZM239.507 123.183C238.911 123.186 238.327 123.012 237.83 122.682C237.333 122.353 236.945 121.883 236.715 121.333C236.485 120.783 236.423 120.177 236.538 119.592C236.653 119.006 236.938 118.468 237.359 118.046C237.78 117.623 238.317 117.335 238.901 117.218C239.486 117.1 240.092 117.159 240.643 117.387C241.195 117.615 241.666 118.001 241.997 118.496C242.329 118.992 242.506 119.575 242.506 120.171C242.489 120.956 242.166 121.703 241.605 122.254C241.045 122.804 240.292 123.114 239.507 123.117V123.183Z" fill="black"/>
<path opacity="0.1" d="M122.747 139.678C122.747 141.151 119.058 142.332 114.52 142.332C109.982 142.332 106.306 141.151 106.306 139.678C106.306 138.205 109.982 137.024 114.52 137.024C119.058 137.024 122.747 138.232 122.747 139.678Z" fill="black"/>
<path d="M115.208 138.802C119.362 138.802 122.745 130.654 122.745 126.501C122.746 124.501 121.952 122.582 120.539 121.167C119.126 119.751 117.208 118.954 115.208 118.95H113.881C112.89 118.95 111.909 119.146 110.994 119.525C110.078 119.905 109.247 120.461 108.547 121.163C107.847 121.864 107.292 122.696 106.914 123.612C106.536 124.528 106.342 125.51 106.344 126.501C106.344 130.654 109.715 138.802 113.881 138.802H115.208ZM112.196 126.501C112.296 126.062 112.518 125.661 112.836 125.343C113.154 125.025 113.556 124.803 113.994 124.703C114.433 124.603 114.891 124.629 115.316 124.778C115.74 124.927 116.114 125.193 116.394 125.545C116.674 125.897 116.849 126.321 116.899 126.768C116.948 127.215 116.871 127.667 116.675 128.072C116.479 128.477 116.172 128.819 115.791 129.057C115.409 129.296 114.968 129.422 114.518 129.42C113.859 129.265 113.272 128.893 112.851 128.363C112.43 127.834 112.199 127.178 112.196 126.501Z" fill="#263238"/>
<path d="M113.843 118.95C112.852 118.95 111.871 119.146 110.956 119.525C110.04 119.905 109.209 120.461 108.509 121.163C107.809 121.864 107.254 122.696 106.876 123.612C106.498 124.528 106.304 125.51 106.306 126.501C106.306 130.654 109.676 138.802 113.843 138.802C118.01 138.802 121.38 130.654 121.38 126.501C121.382 125.51 121.189 124.528 120.811 123.612C120.433 122.696 119.878 121.864 119.178 121.163C118.477 120.461 117.646 119.905 116.731 119.525C115.815 119.146 114.834 118.95 113.843 118.95ZM113.843 129.566C113.246 129.569 112.662 129.394 112.165 129.064C111.667 128.734 111.279 128.264 111.05 127.713C110.82 127.162 110.759 126.555 110.875 125.97C110.991 125.384 111.278 124.846 111.7 124.424C112.122 124.002 112.66 123.715 113.246 123.599C113.831 123.483 114.438 123.544 114.989 123.774C115.54 124.003 116.01 124.391 116.34 124.889C116.67 125.386 116.845 125.97 116.842 126.567C116.825 127.351 116.501 128.097 115.941 128.645C115.38 129.193 114.627 129.5 113.843 129.5V129.566Z" fill="#407BFF"/>
<path opacity="0.3" d="M113.843 118.95C112.852 118.95 111.871 119.146 110.956 119.525C110.04 119.905 109.209 120.461 108.509 121.163C107.809 121.864 107.254 122.696 106.876 123.612C106.498 124.528 106.304 125.51 106.306 126.501C106.306 130.654 109.676 138.802 113.843 138.802C118.01 138.802 121.38 130.654 121.38 126.501C121.382 125.51 121.189 124.528 120.811 123.612C120.433 122.696 119.878 121.864 119.178 121.163C118.477 120.461 117.646 119.905 116.731 119.525C115.815 119.146 114.834 118.95 113.843 118.95ZM113.843 129.566C113.246 129.569 112.662 129.394 112.165 129.064C111.667 128.734 111.279 128.264 111.05 127.713C110.82 127.162 110.759 126.555 110.875 125.97C110.991 125.384 111.278 124.846 111.7 124.424C112.122 124.002 112.66 123.715 113.246 123.599C113.831 123.483 114.438 123.544 114.989 123.774C115.54 124.003 116.01 124.391 116.34 124.889C116.67 125.386 116.845 125.97 116.842 126.567C116.825 127.351 116.501 128.097 115.941 128.645C115.38 129.193 114.627 129.5 113.843 129.5V129.566Z" fill="black"/>
<path opacity="0.1" d="M95.7558 63.0181C95.7558 64.491 92.08 65.6721 87.5417 65.6721C83.0035 65.6721 79.3145 64.491 79.3145 63.0181C79.3145 61.5451 83.0035 60.3641 87.5417 60.3641C92.08 60.3641 95.7558 61.5584 95.7558 63.0181Z" fill="black"/>
<path d="M88.2174 62.1292C92.3841 62.1292 95.7546 53.9815 95.7546 49.8281C95.7563 48.8372 95.5627 47.8556 95.1847 46.9396C94.8067 46.0236 94.2518 45.1912 93.5517 44.4899C92.8516 43.7886 92.0201 43.2322 91.1048 42.8526C90.1895 42.473 89.2083 42.2776 88.2174 42.2776H86.8904C84.8878 42.2776 82.9673 43.0731 81.5513 44.4891C80.1353 45.9051 79.3398 47.8256 79.3398 49.8281C79.3398 53.9815 82.7236 62.1292 86.8904 62.1292H88.2174ZM85.2184 49.8281C85.3183 49.3894 85.5402 48.9879 85.8584 48.6698C86.1765 48.3517 86.5781 48.1299 87.0168 48.03C87.4555 47.9301 87.9135 47.9561 88.338 48.105C88.7626 48.254 89.1364 48.5198 89.4165 48.872C89.6966 49.2241 89.8715 49.6481 89.9212 50.0953C89.9708 50.5425 89.8932 50.9946 89.6971 51.3996C89.5011 51.8045 89.1947 52.1459 88.8132 52.3844C88.4316 52.6229 87.9905 52.7487 87.5406 52.7475C86.8796 52.5968 86.2895 52.2257 85.8674 51.6951C85.4454 51.1645 85.2165 50.5061 85.2184 49.8281Z" fill="#263238"/>
<path d="M86.865 42.2776C84.8625 42.2776 82.942 43.0731 81.526 44.4891C80.11 45.9051 79.3145 47.8256 79.3145 49.8281C79.3145 53.9815 82.6983 62.1292 86.865 62.1292C91.0317 62.1292 94.4022 53.9815 94.4022 49.8281C94.4022 47.8279 93.6086 45.9094 92.1954 44.4938C90.7823 43.0781 88.8652 42.2811 86.865 42.2776ZM86.865 52.8934C86.2681 52.8961 85.6839 52.7213 85.1865 52.3913C84.6891 52.0613 84.301 51.591 84.0713 51.0401C83.8417 50.4891 83.7809 49.8824 83.8967 49.2968C84.0125 48.7113 84.2997 48.1733 84.7218 47.7512C85.1438 47.3292 85.6818 47.042 86.2673 46.9262C86.8529 46.8104 87.4596 46.8712 88.0106 47.1008C88.5615 47.3304 89.0319 47.7186 89.3618 48.216C89.6918 48.7133 89.8666 49.2976 89.864 49.8944C89.8433 50.6772 89.5186 51.4211 88.9588 51.9685C88.399 52.516 87.648 52.8239 86.865 52.8271V52.8934Z" fill="#407BFF"/>
<path opacity="0.3" d="M86.865 42.2776C84.8625 42.2776 82.942 43.0731 81.526 44.4891C80.11 45.9051 79.3145 47.8256 79.3145 49.8281C79.3145 53.9815 82.6983 62.1292 86.865 62.1292C91.0317 62.1292 94.4022 53.9815 94.4022 49.8281C94.4022 47.8279 93.6086 45.9094 92.1954 44.4938C90.7823 43.0781 88.8652 42.2811 86.865 42.2776ZM86.865 52.8934C86.2681 52.8961 85.6839 52.7213 85.1865 52.3913C84.6891 52.0613 84.301 51.591 84.0713 51.0401C83.8417 50.4891 83.7809 49.8824 83.8967 49.2968C84.0125 48.7113 84.2997 48.1733 84.7218 47.7512C85.1438 47.3292 85.6818 47.042 86.2673 46.9262C86.8529 46.8104 87.4596 46.8712 88.0106 47.1008C88.5615 47.3304 89.0319 47.7186 89.3618 48.216C89.6918 48.7133 89.8666 49.2976 89.864 49.8944C89.8433 50.6772 89.5186 51.4211 88.9588 51.9685C88.399 52.516 87.648 52.8239 86.865 52.8271V52.8934Z" fill="black"/>
<path opacity="0.1" d="M224.471 67.437C224.471 68.8967 220.796 70.091 216.257 70.091C211.719 70.091 208.03 68.8967 208.03 67.437C208.03 65.9774 211.719 64.7831 216.257 64.7831C220.796 64.7831 224.471 65.9641 224.471 67.437Z" fill="black"/>
<path d="M216.936 66.5346C221.102 66.5346 224.473 58.4002 224.473 54.2335C224.475 53.2426 224.281 52.261 223.903 51.3451C223.525 50.4291 222.97 49.5966 222.27 48.8953C221.57 48.194 220.738 47.6376 219.823 47.258C218.908 46.8784 217.927 46.683 216.936 46.683H215.609C213.606 46.683 211.686 47.4785 210.27 48.8945C208.854 50.3105 208.058 52.231 208.058 54.2335C208.058 58.4002 211.442 66.5346 215.609 66.5346H216.936ZM213.937 54.2335C214.037 53.7948 214.258 53.3933 214.577 53.0752C214.895 52.7571 215.296 52.5353 215.735 52.4354C216.174 52.3355 216.632 52.3615 217.056 52.5105C217.481 52.6594 217.855 52.9253 218.135 53.2774C218.415 53.6295 218.59 54.0535 218.639 54.5007C218.689 54.9479 218.611 55.4 218.415 55.805C218.219 56.21 217.913 56.5513 217.531 56.7898C217.15 57.0283 216.709 57.1541 216.259 57.1529C215.598 57.0022 215.008 56.6311 214.586 56.1005C214.164 55.5699 213.935 54.9115 213.937 54.2335Z" fill="#263238"/>
<path d="M215.581 46.683C213.578 46.683 211.658 47.4785 210.242 48.8945C208.826 50.3105 208.03 52.231 208.03 54.2335C208.03 58.4002 211.414 66.5346 215.581 66.5346C219.747 66.5346 223.118 58.4002 223.118 54.2335C223.118 52.2333 222.324 50.3148 220.911 48.8992C219.498 47.4835 217.581 46.6865 215.581 46.683ZM215.581 57.2988C214.984 57.3015 214.399 57.1267 213.902 56.7967C213.405 56.4667 213.017 55.9964 212.787 55.4455C212.557 54.8945 212.496 54.2878 212.612 53.7022C212.728 53.1166 213.015 52.5787 213.437 52.1566C213.859 51.7346 214.397 51.4474 214.983 51.3316C215.568 51.2158 216.175 51.2766 216.726 51.5062C217.277 51.7358 217.747 52.124 218.077 52.6214C218.407 53.1188 218.582 53.703 218.58 54.2999C218.559 55.0826 218.234 55.8265 217.674 56.3739C217.115 56.9214 216.364 57.2293 215.581 57.2325V57.2988Z" fill="#407BFF"/>
<path opacity="0.3" d="M215.581 46.683C213.578 46.683 211.658 47.4785 210.242 48.8945C208.826 50.3105 208.03 52.231 208.03 54.2335C208.03 58.4002 211.414 66.5346 215.581 66.5346C219.747 66.5346 223.118 58.4002 223.118 54.2335C223.118 52.2333 222.324 50.3148 220.911 48.8992C219.498 47.4835 217.581 46.6865 215.581 46.683ZM215.581 57.2988C214.984 57.3015 214.399 57.1267 213.902 56.7967C213.405 56.4667 213.017 55.9964 212.787 55.4455C212.557 54.8945 212.496 54.2878 212.612 53.7022C212.728 53.1166 213.015 52.5787 213.437 52.1566C213.859 51.7346 214.397 51.4474 214.983 51.3316C215.568 51.2158 216.175 51.2766 216.726 51.5062C217.277 51.7358 217.747 52.124 218.077 52.6214C218.407 53.1188 218.582 53.703 218.58 54.2999C218.559 55.0826 218.234 55.8265 217.674 56.3739C217.115 56.9214 216.364 57.2293 215.581 57.2325V57.2988Z" fill="black"/>
</svg>
