<svg width="385" height="206" fill="none" xmlns="http://www.w3.org/2000/svg"><path d="M283.403 17.25A4184.942 4184.942 0 0 1 223.331 0a5609.714 5609.714 0 0 1-58.387 17.25A4808.793 4808.793 0 0 1 108.268 0c-20.56 5.9-41.154 11.65-61.784 17.25L.026 205.776a11266.358 11266.358 0 0 0 80.376-17.251 8981.043 8981.043 0 0 0 75.279 17.251 8569.354 8569.354 0 0 0 76.965-17.251 7946.837 7946.837 0 0 0 78.677 17.251 9424.557 9424.557 0 0 0 73.568-17.251L338.407 0a4654.628 4654.628 0 0 1-55.004 17.25Z" fill="#407BFF"/><path opacity=".8" d="M283.403 17.25A4184.942 4184.942 0 0 1 223.331 0a5609.714 5609.714 0 0 1-58.387 17.25A4808.793 4808.793 0 0 1 108.268 0c-20.56 5.9-41.154 11.65-61.784 17.25L.026 205.776a11266.358 11266.358 0 0 0 80.376-17.251 8981.043 8981.043 0 0 0 75.279 17.251 8569.354 8569.354 0 0 0 76.965-17.251 7946.837 7946.837 0 0 0 78.677 17.251 9424.557 9424.557 0 0 0 73.568-17.251L338.407 0a4654.628 4654.628 0 0 1-55.004 17.25Z" fill="#fff"/><path d="M156.199 194.827a8025.01 8025.01 0 0 0 75.89-17.25 7768.613 7768.613 0 0 0 77.602 17.25 6237.717 6237.717 0 0 0 61.346-14.596 295761.021 295761.021 0 0 1-38.482-166.63 3927.597 3927.597 0 0 1-47.493 14.597c-20.418-5.6-40.8-11.35-61.147-17.25a6421.952 6421.952 0 0 1-59.462 17.25 5028.896 5028.896 0 0 1-57.751-17.25 6045.8 6045.8 0 0 1-52.774 14.596A283704.579 283704.579 0 0 0 15.446 192.16c22.231-4.795 44.44-9.66 66.627-14.597a9360.363 9360.363 0 0 0 74.126 17.264Z" fill="#407BFF"/><path opacity=".4" d="M156.199 194.827a8025.01 8025.01 0 0 0 75.89-17.25 7768.613 7768.613 0 0 0 77.602 17.25 6237.717 6237.717 0 0 0 61.346-14.596 295761.021 295761.021 0 0 1-38.482-166.63 3927.597 3927.597 0 0 1-47.493 14.597c-20.418-5.6-40.8-11.35-61.147-17.25a6421.952 6421.952 0 0 1-59.462 17.25 5028.896 5028.896 0 0 1-57.751-17.25 6045.8 6045.8 0 0 1-52.774 14.596A283704.579 283704.579 0 0 0 15.446 192.16c22.231-4.795 44.44-9.66 66.627-14.597a9360.363 9360.363 0 0 0 74.126 17.264Z" fill="#fff"/><path d="M213.578 145.212c-.995-10.616-1.805-20.263-5.971-25.837-9.289-12.327-31.516-9.7-45.476-7.152-1.553-2.654-5.534-10.045-9.899-27.867-4.167-17.012-23.435-25.212-38.297-30.003-4.193-1.327-9.382-3.105-10.244-4.326-1.235-5.613-6.635-5.878-11.943-6.117-4.26-.2-9.117-.425-12.991-2.999-3.464-2.309.517-13.204 5.706-23.7l-4.366 1.194c-.372.81-.756 1.62-1.128 2.442-6.17 13.774-9.355 22.559-4.18 25.903 5.175 3.344 10.894 3.57 15.618 3.795 4.725.225 6.98.477 7.272 1.964.77 3.98 5.693 5.746 13.735 8.214 13.707 4.206 30.374 10.616 34.581 25.73 7.033 25.213 11.372 31.184 12.195 31.94l1.234 1.142 1.712-.359c12.487-2.375 32.776-5.215 40.857 3.875 3.172 3.57 3.981 13.124 4.605 22.625.703 11.824.279 25.213 3.875 36.943l10.483-2.415c-5.215-11.982-6.383-24.43-7.378-34.992Z" fill="#407BFF"/><path opacity=".2" d="M213.578 145.212c-.995-10.616-1.805-20.263-5.971-25.837-9.289-12.327-31.516-9.7-45.476-7.152-1.553-2.654-5.534-10.045-9.899-27.867-4.167-17.012-23.435-25.212-38.297-30.003-4.193-1.327-9.382-3.105-10.244-4.326-1.235-5.613-6.635-5.878-11.943-6.117-4.26-.2-9.117-.425-12.991-2.999-3.464-2.309.517-13.204 5.706-23.7l-4.366 1.194c-.372.81-.756 1.62-1.128 2.442-6.17 13.774-9.355 22.559-4.18 25.903 5.175 3.344 10.894 3.57 15.618 3.795 4.725.225 6.98.477 7.272 1.964.77 3.98 5.693 5.746 13.735 8.214 13.707 4.206 30.374 10.616 34.581 25.73 7.033 25.213 11.372 31.184 12.195 31.94l1.234 1.142 1.712-.359c12.487-2.375 32.776-5.215 40.857 3.875 3.172 3.57 3.981 13.124 4.605 22.625.703 11.824.279 25.213 3.875 36.943l10.483-2.415c-5.215-11.982-6.383-24.43-7.378-34.992Z" fill="#fff"/><g opacity=".5" fill="#fff"><path opacity=".5" d="m233.946 79.181 44.149 3.716c1.26 10.032 1.884 15.06 3.145 25.093l-29.579-2.813-1.128-13.483-15.923-2.003a687.864 687.864 0 0 1-.664-10.51Z"/><path opacity=".5" d="m232.248 93.58 14.836 2.016 1.128 14.597-15.101-1.168-.863-15.446Z"/></g><path opacity=".5" d="M303.906 49.324c-4.724 1.871-7.099 2.8-11.943 4.67l2.057 13.457c4.95-1.553 7.405-2.323 12.301-3.888a1068.15 1068.15 0 0 0-2.415-14.239ZM82.777 133.8c-9.29 2.906-14 4.352-23.488 7.245-1.553 8.333-2.336 12.513-3.901 20.847 9.66-2.415 14.45-3.61 23.952-6.025 1.367-8.824 2.056-13.243 3.437-22.067Z" fill="#fff"/><path d="m226.941 73.9 65.022 5.307h.425a5506.425 5506.425 0 0 0 51.991-14.318l-1.327-5.48a4382.229 4382.229 0 0 1-51.951 14.437l-23.634-1.924a1913.91 1913.91 0 0 1-18.578-53.796l-6.635-1.884a2066.998 2066.998 0 0 0 18.499 55.136l-34.781-2.853c-9.289 3.37-13.999 5.07-23.527 8.44h-40.247c-20.188-3.185-40.367-6.41-60.537-9.674a1752.428 1752.428 0 0 0 22.346-51.049l-4.339-1.327a1783.23 1783.23 0 0 1-23.196 52.124 10052.49 10052.49 0 0 1-54.008 7.816c-.491 2.15-.743 3.224-1.234 5.308L96.26 72.2c7.02 16.932 14.782 33.466 22.837 49.934l-29.392-2.362a5557.684 5557.684 0 0 1-61.28 15.924c-.77 3.304-1.155 4.963-1.911 8.267a6313.13 6313.13 0 0 0 62.78-16.03l33.439 2.654c6.051 20.568 12.633 40.977 19.905 61.134l6.993 1.592c-7.617-20.462-14.504-41.282-20.887-62.222l30.163 2.442a6737.254 6737.254 0 0 0 72.546 18.803 3543.068 3543.068 0 0 0 51.473-16.985c6.994 10.47 10.616 15.698 18.021 26.168a2028.218 2028.218 0 0 0 44.334 24.934l10.961-2.654a2677.415 2677.415 0 0 1-49.457-27.721c-6.634-9.289-9.899-13.986-16.215-23.315l9.567-3.277a13817.25 13817.25 0 0 0 56.755-10.391 1784.51 1784.51 0 0 1-1.871-8.094c-19.356 3.627-38.717 7.21-58.082 10.748a4387.315 4387.315 0 0 1-66.163 22.267 5678.551 5678.551 0 0 1-40.088-10.39 1371.7 1371.7 0 0 0 14.345-51.952c8.837-3.038 13.216-4.657 21.908-7.776Zm-41.521 58.32c-9.913-2.654-14.836-3.981-24.563-6.555l-35.125-2.88c-8.187-16.441-16.109-32.962-23.275-49.88 19.657 3.148 39.314 6.245 58.971 9.288h38.177c-4.45 16.782-9.2 33.458-14.252 50.027h.067Z" fill="#fff"/><path opacity=".1" d="M80.375 188.524A10355.248 10355.248 0 0 1 0 205.775L46.444 17.251A4703.896 4703.896 0 0 0 108.23 0L80.375 188.523ZM232.634 188.524a8019.628 8019.628 0 0 1-76.965 17.251c3.096-62.81 6.192-125.652 9.289-188.524A5609.714 5609.714 0 0 0 223.345 0a645032.51 645032.51 0 0 0 9.289 188.524ZM384.85 188.524a8671.806 8671.806 0 0 1-73.567 17.251L283.416 17.251A4553.118 4553.118 0 0 0 338.393 0l46.457 188.524Z" fill="#000"/><path opacity=".1" d="M308.471 64.796c0 1.473-3.689 2.654-8.227 2.654s-8.214-1.18-8.214-2.654c0-1.472 3.676-2.653 8.214-2.653s8.227 1.194 8.227 2.653Z" fill="#000"/><path d="M300.933 63.908c4.154 0 7.537-8.148 7.537-12.301a7.55 7.55 0 0 0-7.537-7.551h-1.327a7.534 7.534 0 0 0-6.967 4.662 7.533 7.533 0 0 0-.57 2.889c0 4.153 3.37 12.3 7.537 12.3h1.327Zm-3.012-12.301a2.39 2.39 0 0 1 3.12-1.724 2.39 2.39 0 0 1-.798 4.643 3.01 3.01 0 0 1-2.322-2.92Z" fill="#263238"/><path d="M299.567 44.056a7.534 7.534 0 0 0-6.967 4.662 7.533 7.533 0 0 0-.57 2.889c0 4.153 3.37 12.3 7.537 12.3s7.537-8.147 7.537-12.3a7.533 7.533 0 0 0-2.203-5.339 7.536 7.536 0 0 0-5.334-2.212Zm0 10.55A3.014 3.014 0 0 1 296.614 51a3.007 3.007 0 0 1 2.374-2.364 3.01 3.01 0 0 1 3.591 2.97 3.009 3.009 0 0 1-.883 2.125 3.004 3.004 0 0 1-2.129.873Z" fill="#407BFF"/><path opacity=".3" d="M299.567 44.056a7.534 7.534 0 0 0-6.967 4.662 7.533 7.533 0 0 0-.57 2.889c0 4.153 3.37 12.3 7.537 12.3s7.537-8.147 7.537-12.3a7.533 7.533 0 0 0-2.203-5.339 7.536 7.536 0 0 0-5.334-2.212Zm0 10.55A3.014 3.014 0 0 1 296.614 51a3.007 3.007 0 0 1 2.374-2.364 3.01 3.01 0 0 1 3.591 2.97 3.009 3.009 0 0 1-.883 2.125 3.004 3.004 0 0 1-2.129.873Z" fill="#000"/><path opacity=".1" d="M248.398 133.309c0 1.459-3.676 2.654-8.214 2.654s-8.227-1.195-8.227-2.654c0-1.46 3.689-2.654 8.227-2.654s8.214 1.181 8.214 2.654Z" fill="#000"/><path d="M240.859 132.406c4.167 0 7.538-8.135 7.538-12.301a7.537 7.537 0 0 0-7.538-7.537h-1.327a7.533 7.533 0 0 0-7.55 7.537c0 4.166 3.384 12.301 7.55 12.301h1.327Zm-2.999-12.301a2.393 2.393 0 0 1 4.199-.956 2.382 2.382 0 0 1 .28 2.527 2.383 2.383 0 0 1-2.156 1.348 2.99 2.99 0 0 1-2.323-2.919Z" fill="#263238"/><path d="M239.507 112.568a7.529 7.529 0 0 0-6.975 4.649 7.535 7.535 0 0 0-.575 2.888c0 4.166 3.383 12.301 7.55 12.301s7.537-8.135 7.537-12.301a7.544 7.544 0 0 0-4.653-6.964 7.528 7.528 0 0 0-2.884-.573Zm0 10.615a3.004 3.004 0 0 1-2.792-1.85 3.009 3.009 0 0 1 .644-3.287 3.01 3.01 0 0 1 4.638.45c.332.496.509 1.079.509 1.675a3.01 3.01 0 0 1-2.999 2.946v.066Z" fill="#407BFF"/><path opacity=".3" d="M239.507 112.568a7.529 7.529 0 0 0-6.975 4.649 7.535 7.535 0 0 0-.575 2.888c0 4.166 3.383 12.301 7.55 12.301s7.537-8.135 7.537-12.301a7.544 7.544 0 0 0-4.653-6.964 7.528 7.528 0 0 0-2.884-.573Zm0 10.615a3.004 3.004 0 0 1-2.792-1.85 3.009 3.009 0 0 1 .644-3.287 3.01 3.01 0 0 1 4.638.45c.332.496.509 1.079.509 1.675a3.01 3.01 0 0 1-2.999 2.946v.066Z" fill="#000"/><path opacity=".1" d="M122.747 139.678c0 1.473-3.689 2.654-8.227 2.654s-8.214-1.181-8.214-2.654c0-1.473 3.676-2.654 8.214-2.654s8.227 1.208 8.227 2.654Z" fill="#000"/><path d="M115.208 138.802c4.154 0 7.537-8.148 7.537-12.301a7.553 7.553 0 0 0-7.537-7.551h-1.327a7.545 7.545 0 0 0-5.334 2.213 7.532 7.532 0 0 0-2.203 5.338c0 4.153 3.371 12.301 7.537 12.301h1.327Zm-3.012-12.301a2.387 2.387 0 0 1 4.198-.956 2.392 2.392 0 0 1 .281 2.527 2.39 2.39 0 0 1-2.157 1.348 3.007 3.007 0 0 1-2.322-2.919Z" fill="#263238"/><path d="M113.843 118.95a7.545 7.545 0 0 0-5.334 2.213 7.532 7.532 0 0 0-2.203 5.338c0 4.153 3.37 12.301 7.537 12.301s7.537-8.148 7.537-12.301a7.534 7.534 0 0 0-7.537-7.551Zm0 10.616a3.006 3.006 0 0 1-2.793-1.853 3.007 3.007 0 0 1 .65-3.289 3.013 3.013 0 0 1 5.142 2.143 3 3 0 0 1-2.999 2.933v.066Z" fill="#407BFF"/><path opacity=".3" d="M113.843 118.95a7.545 7.545 0 0 0-5.334 2.213 7.532 7.532 0 0 0-2.203 5.338c0 4.153 3.37 12.301 7.537 12.301s7.537-8.148 7.537-12.301a7.534 7.534 0 0 0-7.537-7.551Zm0 10.616a3.006 3.006 0 0 1-2.793-1.853 3.007 3.007 0 0 1 .65-3.289 3.013 3.013 0 0 1 5.142 2.143 3 3 0 0 1-2.999 2.933v.066Z" fill="#000"/><path opacity=".1" d="M95.756 63.018c0 1.473-3.676 2.654-8.214 2.654s-8.228-1.181-8.228-2.654c0-1.473 3.69-2.654 8.228-2.654s8.214 1.194 8.214 2.654Z" fill="#000"/><path d="M88.217 62.13c4.167 0 7.538-8.149 7.538-12.302a7.538 7.538 0 0 0-7.538-7.55H86.89a7.55 7.55 0 0 0-7.55 7.55c0 4.153 3.384 12.301 7.55 12.301h1.327Zm-2.999-12.302a2.387 2.387 0 1 1 2.323 2.92 2.986 2.986 0 0 1-2.323-2.92Z" fill="#263238"/><path d="M86.865 42.278a7.55 7.55 0 0 0-7.55 7.55c0 4.153 3.383 12.301 7.55 12.301s7.537-8.148 7.537-12.3a7.55 7.55 0 0 0-7.537-7.551Zm0 10.615a3.011 3.011 0 1 1 2.999-2.999 3.012 3.012 0 0 1-2.999 2.933v.066Z" fill="#407BFF"/><path opacity=".3" d="M86.865 42.278a7.55 7.55 0 0 0-7.55 7.55c0 4.153 3.383 12.301 7.55 12.301s7.537-8.148 7.537-12.3a7.55 7.55 0 0 0-7.537-7.551Zm0 10.615a3.011 3.011 0 1 1 2.999-2.999 3.012 3.012 0 0 1-2.999 2.933v.066Z" fill="#000"/><path opacity=".1" d="M224.471 67.437c0 1.46-3.675 2.654-8.214 2.654-4.538 0-8.227-1.194-8.227-2.654s3.689-2.654 8.227-2.654c4.539 0 8.214 1.181 8.214 2.654Z" fill="#000"/><path d="M216.936 66.535c4.166 0 7.537-8.135 7.537-12.301a7.532 7.532 0 0 0-4.65-6.976 7.534 7.534 0 0 0-2.887-.575h-1.327a7.55 7.55 0 0 0-7.551 7.55c0 4.167 3.384 12.302 7.551 12.302h1.327Zm-2.999-12.301a2.382 2.382 0 0 1 1.798-1.799 2.387 2.387 0 0 1 2.68 3.37 2.385 2.385 0 0 1-2.156 1.348 2.985 2.985 0 0 1-2.322-2.92Z" fill="#263238"/><path d="M215.581 46.683a7.55 7.55 0 0 0-7.551 7.55c0 4.167 3.384 12.302 7.551 12.302 4.166 0 7.537-8.135 7.537-12.301a7.551 7.551 0 0 0-7.537-7.551Zm0 10.616a3.012 3.012 0 1 1 2.999-3 3.013 3.013 0 0 1-2.999 2.934v.066Z" fill="#407BFF"/><path opacity=".3" d="M215.581 46.683a7.55 7.55 0 0 0-7.551 7.55c0 4.167 3.384 12.302 7.551 12.302 4.166 0 7.537-8.135 7.537-12.301a7.551 7.551 0 0 0-7.537-7.551Zm0 10.616a3.012 3.012 0 1 1 2.999-3 3.013 3.013 0 0 1-2.999 2.934v.066Z" fill="#000"/></svg>