<svg width="376" height="808" viewBox="0 0 376 808" fill="none" xmlns="http://www.w3.org/2000/svg">
<path fill-rule="evenodd" clip-rule="evenodd" d="M249.091 662.931C236.896 677.898 239.139 699.915 254.102 712.106C269.065 724.298 291.082 722.048 303.277 707.081C315.472 692.113 313.228 670.096 298.265 657.905C289.288 650.59 287.941 637.379 295.258 628.399C302.575 619.419 315.785 618.069 324.763 625.384C357.682 652.206 362.618 700.642 335.788 733.571C308.958 766.499 260.524 771.449 227.605 744.627C194.686 717.805 189.749 669.369 216.579 636.441C223.896 627.46 237.106 626.11 246.084 633.425C255.061 640.74 256.408 653.95 249.091 662.931Z" fill="black"/>
<path fill-rule="evenodd" clip-rule="evenodd" d="M249.238 662.665C241.931 671.634 228.737 672.982 219.772 665.677C210.806 658.371 209.461 645.178 216.769 636.21C224.076 627.241 237.269 625.893 246.235 633.198C255.201 640.503 256.545 653.697 249.238 662.665Z" fill="#396DED"/>
<path fill-rule="evenodd" clip-rule="evenodd" d="M137.622 599.868C191.781 549.414 194.773 464.594 144.304 410.419C136.418 401.954 136.886 388.701 145.348 380.817C153.81 372.934 167.064 373.405 174.949 381.87C241.19 452.975 237.264 564.3 166.179 630.522C157.717 638.405 144.464 637.934 136.578 629.47C128.692 621.005 129.16 607.751 137.622 599.868Z" fill="black"/>
<path fill-rule="evenodd" clip-rule="evenodd" d="M180.558 396.887C180.15 408.448 170.448 417.486 158.889 417.074C147.329 416.663 138.288 406.958 138.696 395.399C139.103 383.839 148.805 374.801 160.365 375.212C171.925 375.622 180.966 385.327 180.558 396.887Z" fill="#396DED"/>
<path fill-rule="evenodd" clip-rule="evenodd" d="M223.897 356.514C223.488 368.076 213.783 377.116 202.231 376.698C190.669 376.288 181.628 366.583 182.039 355.022C182.438 343.469 192.142 334.429 203.705 334.838C215.266 335.246 224.307 344.951 223.897 356.514Z" fill="#396DED"/>
<path fill-rule="evenodd" clip-rule="evenodd" d="M347.274 317.764C293.347 402.455 318.308 514.832 403.02 568.772C412.794 574.996 415.674 587.964 409.452 597.735C403.231 607.506 390.262 610.383 380.488 604.159C276.226 537.77 245.505 399.461 311.877 295.225C318.096 285.458 331.067 282.577 340.841 288.801C350.616 295.025 353.493 307.997 347.274 317.764Z" fill="black"/>
<path fill-rule="evenodd" clip-rule="evenodd" d="M340.811 288.784C350.569 294.998 353.441 307.949 347.233 317.7C341.024 327.451 328.074 330.327 318.316 324.113C308.557 317.9 305.685 304.949 311.894 295.198C318.102 285.447 331.053 282.571 340.811 288.784Z" fill="#396DED"/>
<path fill-rule="evenodd" clip-rule="evenodd" d="M416.033 140.845C430.734 153.367 432.509 175.427 419.997 190.116C407.485 204.805 385.424 206.562 370.723 194.039C312.505 144.45 225.144 151.406 175.596 209.575C168.089 218.388 169.153 231.624 177.974 239.138C186.794 246.651 200.032 245.597 207.539 236.784C242.073 196.241 302.96 191.393 343.536 225.956C375.88 253.506 424.413 249.642 451.94 217.325C479.467 185.008 475.563 136.478 443.22 108.928C434.399 101.415 421.162 102.469 413.655 111.282C406.148 120.095 407.213 133.332 416.033 140.845Z" fill="black"/>
<path fill-rule="evenodd" clip-rule="evenodd" d="M177.944 239.111C186.748 246.611 199.968 245.551 207.469 236.744C214.971 227.937 213.915 214.717 205.11 207.218C196.306 199.719 183.087 200.779 175.585 209.585C168.084 218.392 169.14 231.612 177.944 239.111Z" fill="#396DED"/>
</svg>
