<svg width="376" height="808" fill="none" xmlns="http://www.w3.org/2000/svg"><path fill-rule="evenodd" clip-rule="evenodd" d="M249.091 662.931c-12.195 14.967-9.952 36.984 5.011 49.175 14.963 12.192 36.98 9.942 49.175-5.025 12.195-14.968 9.951-36.985-5.012-49.176-8.977-7.315-10.324-20.526-3.007-29.506s20.527-10.33 29.505-3.015c32.919 26.822 37.855 75.258 11.025 108.187-26.83 32.928-75.264 37.878-108.183 11.056-32.919-26.822-37.856-75.258-11.026-108.186 7.317-8.981 20.527-10.331 29.505-3.016 8.977 7.315 10.324 20.525 3.007 29.506Z" fill="#000"/><path fill-rule="evenodd" clip-rule="evenodd" d="M249.238 662.665c-7.307 8.969-20.501 10.317-29.466 3.012-8.966-7.306-10.311-20.499-3.003-29.467 7.307-8.969 20.5-10.317 29.466-3.012 8.966 7.305 10.31 20.499 3.003 29.467Z" fill="#396DED"/><path fill-rule="evenodd" clip-rule="evenodd" d="M137.622 599.868c54.159-50.454 57.151-135.274 6.682-189.449-7.886-8.465-7.418-21.718 1.044-29.602 8.462-7.883 21.716-7.412 29.601 1.053 66.241 71.105 62.315 182.43-8.77 248.652-8.462 7.883-21.715 7.412-29.601-1.052-7.886-8.465-7.418-21.719 1.044-29.602Z" fill="#000"/><path fill-rule="evenodd" clip-rule="evenodd" d="M180.558 396.887c-.408 11.561-10.11 20.599-21.669 20.187-11.56-.411-20.601-10.116-20.193-21.675.407-11.56 10.109-20.598 21.669-20.187 11.56.41 20.601 10.115 20.193 21.675ZM223.897 356.514c-.409 11.562-10.114 20.602-21.666 20.184-11.562-.41-20.603-10.115-20.192-21.676.399-11.553 10.103-20.593 21.666-20.184 11.561.408 20.602 10.113 20.192 21.676Z" fill="#396DED"/><path fill-rule="evenodd" clip-rule="evenodd" d="M347.274 317.764c-53.927 84.691-28.966 197.068 55.746 251.008 9.774 6.224 12.654 19.192 6.432 28.963-6.221 9.771-19.19 12.648-28.964 6.424-104.262-66.389-134.983-204.698-68.611-308.934 6.219-9.767 19.19-12.648 28.964-6.424 9.775 6.224 12.652 19.196 6.433 28.963Z" fill="#000"/><path fill-rule="evenodd" clip-rule="evenodd" d="M340.811 288.784c9.758 6.214 12.63 19.165 6.422 28.916-6.209 9.751-19.159 12.627-28.917 6.413-9.759-6.213-12.631-19.164-6.422-28.915 6.208-9.751 19.159-12.627 28.917-6.414Z" fill="#396DED"/><path fill-rule="evenodd" clip-rule="evenodd" d="M416.033 140.845c14.701 12.522 16.476 34.582 3.964 49.271-12.512 14.689-34.573 16.446-49.274 3.923-58.218-49.589-145.579-42.633-195.127 15.536-7.507 8.813-6.443 22.049 2.378 29.563 8.82 7.513 22.058 6.459 29.565-2.354 34.534-40.543 95.421-45.391 135.997-10.828 32.344 27.55 80.877 23.686 108.404-8.631s23.623-80.847-8.72-108.397c-8.821-7.513-22.058-6.459-29.565 2.354-7.507 8.813-6.442 22.05 2.378 29.563Z" fill="#000"/><path fill-rule="evenodd" clip-rule="evenodd" d="M177.944 239.111c8.804 7.5 22.024 6.44 29.525-2.367 7.502-8.807 6.446-22.027-2.359-29.526-8.804-7.499-22.023-6.439-29.525 2.367-7.501 8.807-6.445 22.027 2.359 29.526Z" fill="#396DED"/></svg>