<?xml version="1.0" standalone="no"?>
<!DOCTYPE svg PUBLIC "-//W3C//DTD SVG 20010904//EN"
 "http://www.w3.org/TR/2001/REC-SVG-20010904/DTD/svg10.dtd">
<svg version="1.0" xmlns="http://www.w3.org/2000/svg"
 width="3240.000000pt" height="1080.000000pt" viewBox="0 0 3240.000000 1080.000000"
 preserveAspectRatio="xMidYMid meet">

<g transform="translate(0.000000,1080.000000) scale(0.100000,-0.100000)"
fill="#000000" stroke="none">
<path d="M6680 9864 c-46 -18 -141 -69 -182 -99 -81 -60 -163 -198 -178 -303
-13 -91 -13 -5863 0 -5953 7 -46 24 -96 55 -157 39 -77 57 -101 118 -153 83
-72 126 -93 221 -110 132 -23 260 5 358 79 96 72 1220 1189 1440 1433 l105
116 614 -611 c880 -874 949 -940 1022 -976 86 -42 193 -57 288 -41 91 15 136
36 216 101 131 108 183 212 183 369 0 126 -25 200 -100 298 -53 70 -1335 1357
-1471 1477 l-55 50 729 730 c402 402 758 764 793 804 73 86 93 137 101 261 12
179 -44 307 -182 418 -80 64 -129 87 -215 103 -120 22 -220 0 -334 -74 -83
-55 -103 -75 -2318 -2283 l-598 -595 0 2329 c0 2272 -2 2422 -30 2458 -4 6
-10 24 -14 40 -12 51 -87 155 -140 195 -114 85 -137 93 -281 96 -71 2 -137 1
-145 -2z"/>
<path d="M21115 9862 c-11 -4 -40 -18 -65 -31 -133 -70 -216 -169 -249 -299
-21 -79 -21 -102 -21 -1166 0 -597 -3 -1086 -7 -1086 -3 0 -29 17 -57 39 -28
21 -71 49 -96 61 -25 13 -63 35 -85 50 -39 26 -128 70 -142 70 -4 0 -25 9 -47
19 -120 56 -200 84 -307 106 -38 8 -91 21 -117 29 -84 24 -164 36 -327 47
-192 14 -463 -1 -595 -32 -47 -11 -125 -29 -175 -39 -49 -11 -99 -24 -110 -30
-11 -5 -40 -14 -65 -21 -25 -6 -49 -15 -55 -19 -5 -4 -53 -26 -106 -48 -154
-64 -365 -196 -528 -332 -134 -111 -342 -335 -429 -460 -112 -164 -257 -437
-282 -531 -6 -24 -17 -57 -25 -74 -7 -16 -19 -59 -25 -95 -6 -36 -15 -69 -20
-75 -11 -15 -38 -138 -52 -240 -17 -122 -17 -534 1 -650 16 -111 41 -227 51
-240 4 -5 11 -26 15 -45 71 -338 356 -797 677 -1091 118 -107 255 -212 337
-257 25 -14 60 -35 76 -47 28 -20 186 -95 201 -95 3 0 18 -8 32 -19 25 -17
134 -51 277 -87 33 -8 69 -19 80 -24 29 -14 136 -36 245 -51 124 -17 535 -18
655 -1 105 15 197 37 242 58 17 7 37 14 45 14 30 0 245 75 278 97 19 12 38 23
42 23 15 0 143 63 173 85 17 12 53 34 81 48 28 14 71 41 96 60 l45 35 21 -84
c28 -115 95 -207 207 -284 113 -78 333 -88 472 -24 90 42 199 189 245 329 18
56 25 5954 8 6058 -10 58 -20 79 -70 146 -59 79 -108 120 -210 175 -52 28 -63
30 -185 32 -71 2 -139 0 -150 -4z m-1467 -3158 c68 -8 140 -21 160 -29 196
-73 237 -93 339 -158 126 -81 184 -128 272 -224 89 -97 151 -188 206 -303 20
-41 43 -87 51 -102 8 -14 14 -32 14 -40 0 -7 7 -26 15 -42 8 -16 24 -83 35
-150 11 -66 24 -146 30 -177 12 -69 13 -114 1 -176 -6 -26 -17 -95 -27 -153
-19 -121 -48 -216 -98 -318 -20 -40 -36 -76 -36 -81 0 -4 -9 -16 -19 -25 -11
-10 -27 -34 -37 -54 -68 -144 -339 -389 -510 -462 -27 -12 -67 -30 -88 -41
-76 -39 -192 -69 -361 -92 l-171 -23 -184 27 c-199 30 -258 47 -390 111 -274
133 -509 366 -615 608 -16 36 -32 70 -36 75 -41 56 -109 380 -109 520 0 87 41
339 68 420 11 33 41 102 66 153 25 50 46 94 46 97 0 3 25 42 57 86 57 82 191
224 273 290 84 67 252 161 330 184 14 4 30 11 35 15 28 22 140 51 253 64 211
26 213 26 430 0z"/>
<path d="M3335 7701 c-343 -7 -357 -9 -462 -57 -17 -8 -36 -14 -43 -14 -30 0
-167 -64 -263 -123 -192 -117 -341 -256 -450 -418 -59 -88 -137 -235 -137
-258 0 -6 -9 -28 -20 -49 -56 -107 -92 -430 -72 -632 12 -109 51 -283 77 -335
8 -16 31 -68 51 -115 20 -47 51 -105 68 -129 17 -24 43 -61 57 -83 14 -21 70
-86 123 -143 178 -189 405 -328 639 -390 141 -38 227 -42 677 -38 425 5 719
-5 755 -25 11 -6 44 -18 73 -27 105 -33 206 -147 235 -267 43 -172 -9 -343
-133 -439 -67 -52 -95 -65 -185 -84 -70 -15 -200 -18 -1060 -25 -1093 -8
-1044 -5 -1165 -79 -66 -40 -148 -131 -180 -199 -52 -109 -49 -301 6 -416 38
-80 171 -206 250 -236 97 -37 288 -42 1324 -36 913 5 948 6 1044 26 55 12 118
29 140 39 23 10 59 24 81 31 22 7 45 16 50 20 6 4 29 14 53 24 24 9 90 48 147
86 192 129 365 316 461 497 20 37 40 73 45 79 13 16 60 165 95 299 27 102 29
123 29 295 0 199 -11 261 -85 490 -74 232 -293 511 -525 671 -86 60 -263 148
-295 149 -9 0 -25 6 -36 14 -25 18 -109 41 -201 56 -47 8 -270 12 -640 14
-631 2 -643 3 -780 71 -112 54 -150 100 -203 243 -18 51 -22 76 -18 137 3 41
10 80 15 87 6 7 18 36 27 64 35 108 146 206 259 232 48 10 224 14 787 18 l725
5 100 31 c134 41 197 85 270 187 60 86 85 163 85 266 0 61 -23 173 -44 212
-54 105 -214 235 -320 262 -60 15 -934 22 -1431 12z"/>
<path d="M12207 7700 c-122 -19 -240 -98 -318 -212 -42 -61 -79 -185 -79 -266
0 -52 27 -186 45 -227 8 -16 23 -54 35 -83 11 -29 26 -63 34 -75 8 -12 31 -60
51 -107 20 -47 51 -116 70 -155 73 -151 138 -292 157 -340 11 -27 30 -70 43
-95 28 -52 95 -204 95 -215 0 -4 9 -20 20 -35 11 -16 27 -47 35 -69 8 -23 30
-76 50 -119 45 -95 63 -135 110 -237 20 -44 46 -98 57 -119 11 -22 30 -68 43
-102 13 -34 30 -73 39 -86 8 -13 31 -61 52 -108 20 -47 53 -121 74 -165 20
-44 45 -98 55 -120 17 -39 54 -119 120 -260 64 -136 92 -200 105 -240 7 -22
24 -56 36 -75 13 -19 24 -39 24 -43 0 -11 18 -51 81 -183 27 -55 49 -103 49
-107 0 -3 24 -56 53 -119 30 -62 62 -135 72 -163 10 -27 26 -61 35 -75 10 -14
21 -36 25 -50 4 -14 13 -34 19 -45 7 -11 27 -57 45 -103 l32 -82 -26 -68 c-14
-37 -46 -107 -70 -157 -24 -49 -59 -128 -78 -175 -67 -161 -156 -322 -244
-439 -43 -56 -194 -202 -242 -234 -95 -63 -130 -83 -182 -108 -31 -15 -67 -30
-80 -34 -13 -4 -49 -18 -79 -32 -72 -33 -168 -50 -371 -68 -192 -17 -178 -14
-288 -68 -205 -102 -300 -255 -288 -462 7 -118 25 -170 82 -248 84 -114 196
-183 326 -200 140 -18 579 23 664 61 11 5 63 19 116 31 53 12 112 30 130 40
19 10 52 24 74 31 22 7 45 16 50 20 6 4 36 17 69 29 32 12 78 35 101 51 24 17
46 30 49 30 19 0 235 155 352 252 89 75 259 267 336 381 23 34 57 81 75 105
18 24 33 49 33 55 0 7 11 28 23 47 34 51 93 161 102 190 4 14 19 45 34 70 15
25 33 61 41 80 24 62 63 144 80 170 10 14 28 54 41 90 13 36 41 99 62 140 21
41 48 97 59 125 11 27 43 99 73 160 29 60 56 121 60 135 5 14 18 41 30 60 12
19 25 44 28 55 13 40 73 171 94 205 11 19 28 57 37 84 10 27 23 61 31 75 21
40 95 198 95 204 0 3 26 61 59 128 32 68 62 135 66 149 4 14 18 41 30 60 12
19 28 53 35 75 7 22 18 51 25 65 33 63 105 218 105 224 0 4 14 37 31 74 78
170 94 203 134 287 23 50 55 122 71 160 15 39 35 81 43 94 15 23 51 104 74
166 7 17 19 42 28 55 9 14 28 57 44 95 15 39 52 120 81 182 30 61 54 115 54
121 0 5 15 38 33 73 19 35 49 100 67 144 19 44 42 91 51 105 9 14 25 50 37 81
11 31 43 103 71 161 28 59 51 109 51 112 0 3 21 49 46 103 25 54 55 118 66
143 11 25 33 72 49 105 87 184 109 258 109 362 0 166 -81 301 -245 411 -77 51
-118 62 -230 62 -129 0 -180 -16 -289 -89 -73 -49 -135 -129 -187 -241 -22
-47 -53 -112 -69 -145 -70 -146 -118 -252 -125 -275 -4 -14 -11 -30 -16 -36
-5 -6 -15 -30 -24 -53 -8 -23 -23 -54 -33 -69 -10 -15 -27 -49 -37 -77 -19
-54 -50 -119 -81 -175 -11 -19 -31 -64 -44 -100 -13 -36 -32 -81 -42 -100 -10
-19 -18 -38 -18 -43 0 -4 -11 -24 -23 -45 -13 -20 -30 -55 -37 -77 -7 -22 -25
-65 -41 -95 -16 -30 -49 -100 -74 -155 -25 -55 -52 -113 -61 -130 -9 -16 -23
-49 -31 -73 -8 -24 -27 -64 -42 -90 -15 -26 -42 -85 -60 -132 -19 -47 -53
-123 -77 -171 -23 -47 -50 -107 -60 -135 -9 -27 -25 -61 -35 -76 -11 -15 -26
-45 -34 -68 -8 -23 -39 -92 -69 -153 -29 -62 -57 -123 -61 -136 -4 -13 -32
-72 -61 -130 -30 -58 -54 -109 -54 -114 0 -19 -45 -107 -54 -104 -5 2 -20 33
-35 69 -14 37 -30 70 -34 74 -4 4 -7 14 -7 22 0 7 -8 26 -18 40 -10 15 -31 56
-46 92 -16 36 -50 111 -77 167 -27 56 -49 106 -49 111 0 5 -17 42 -39 83 -21
41 -42 86 -46 100 -4 13 -31 74 -60 134 -29 61 -58 126 -65 145 -7 19 -24 53
-36 75 -12 22 -32 65 -44 95 -12 30 -42 98 -67 150 -25 52 -51 109 -59 125 -7
17 -34 74 -59 128 -25 54 -45 101 -45 104 0 3 -21 49 -46 102 -25 53 -54 114
-64 136 -10 22 -45 99 -78 170 -33 72 -63 141 -67 155 -4 14 -18 41 -30 60
-11 19 -27 51 -34 70 -8 19 -37 85 -66 145 -29 61 -63 137 -75 170 -13 33 -32
72 -42 87 -10 14 -18 30 -18 35 0 4 -7 22 -16 38 -9 17 -22 47 -29 67 -16 44
-103 174 -136 204 -43 39 -166 113 -206 123 -60 16 -153 20 -216 11z"/>
<path d="M24485 7699 c-89 -10 -237 -39 -250 -49 -5 -4 -50 -15 -100 -24 -49
-10 -94 -21 -100 -25 -5 -5 -32 -14 -60 -21 -27 -7 -55 -17 -61 -21 -5 -5 -52
-24 -102 -44 -50 -19 -106 -43 -124 -53 -18 -11 -69 -38 -113 -62 -44 -24
-102 -60 -130 -80 -27 -20 -68 -50 -91 -66 -136 -96 -330 -279 -430 -404 -64
-81 -188 -267 -220 -330 -15 -30 -37 -71 -49 -90 -22 -36 -85 -188 -85 -205 0
-5 -11 -32 -25 -59 -14 -27 -32 -83 -40 -125 -9 -42 -25 -114 -35 -161 -29
-132 -54 -353 -54 -480 0 -63 8 -180 17 -260 17 -141 79 -455 97 -488 15 -29
37 -85 50 -127 35 -109 213 -409 339 -570 53 -68 232 -250 310 -316 128 -108
352 -259 456 -307 28 -13 82 -39 120 -57 73 -36 274 -105 303 -105 10 0 26 -6
37 -14 60 -42 439 -81 680 -71 213 10 451 42 480 65 6 5 37 15 70 23 292 73
601 237 855 455 76 65 196 191 212 222 7 14 21 38 31 53 13 19 22 61 30 132
10 100 10 107 -19 210 -27 101 -33 111 -93 181 -99 115 -205 158 -378 152
-136 -4 -225 -36 -313 -112 -164 -144 -256 -208 -395 -276 -125 -62 -169 -76
-330 -107 -95 -19 -172 -28 -240 -28 -106 0 -335 39 -430 73 -70 24 -246 114
-330 167 -119 76 -306 267 -361 370 -79 146 -114 218 -114 229 0 12 246 15
1573 19 l1572 4 73 22 c40 12 92 33 115 48 67 42 137 121 171 192 30 63 31 72
34 216 2 83 -1 200 -8 260 -13 120 -52 329 -74 397 -8 24 -17 57 -20 73 -4 17
-16 50 -27 75 -12 25 -25 56 -31 70 -76 187 -189 380 -323 555 -170 221 -428
446 -662 577 -26 15 -68 40 -93 54 -25 15 -61 32 -80 39 -19 7 -69 28 -110 48
-41 19 -91 38 -110 42 -19 4 -39 11 -45 15 -5 4 -48 16 -95 25 -47 9 -89 21
-95 25 -15 12 -158 38 -265 50 -110 11 -413 11 -515 -1z m444 -989 c146 -20
189 -31 277 -71 22 -11 43 -19 47 -19 13 0 122 -57 192 -100 202 -124 368
-308 478 -528 26 -51 47 -98 47 -103 0 -5 -479 -9 -1236 -9 l-1235 0 6 23 c7
23 33 76 79 162 58 110 197 270 327 376 71 58 278 179 307 179 4 0 21 7 37 16
62 32 146 55 271 73 169 25 222 25 403 1z"/>
<path d="M28155 7704 c-77 -11 -122 -29 -200 -79 -64 -41 -95 -70 -134 -122
-94 -129 -85 77 -89 -2080 -3 -2130 -7 -1993 68 -2108 47 -72 133 -156 187
-183 100 -51 268 -61 389 -24 125 38 246 160 291 294 16 49 18 122 24 893 8
917 13 1156 28 1225 6 25 15 84 21 132 14 112 38 187 102 318 167 341 380 542
698 663 161 61 171 63 466 91 84 8 160 19 170 24 11 6 48 24 84 41 84 39 129
77 185 156 52 72 75 154 75 265 0 145 -23 214 -106 317 -37 45 -154 133 -178
133 -8 0 -17 4 -20 9 -14 23 -131 33 -313 28 -172 -4 -220 -10 -338 -38 -22
-6 -76 -18 -120 -29 -79 -18 -191 -52 -230 -70 -59 -27 -123 -54 -154 -65 -53
-19 -234 -127 -326 -194 l-40 -29 -20 81 c-29 118 -84 194 -195 268 -87 58
-132 74 -240 82 -30 3 -68 3 -85 1z"/>
</g>
</svg>
