<svg width="35" height="29" viewBox="0 0 35 29" fill="none" xmlns="http://www.w3.org/2000/svg">
<path d="M10.9357 28.8499C23.9712 28.8499 31.1025 18.0729 31.1025 8.74513C31.1025 8.44193 31.1025 8.13872 31.0889 7.83631C32.4775 6.83283 33.6756 5.59078 34.627 4.16837C33.3309 4.73808 31.9573 5.11353 30.5509 5.28252C32.033 4.39803 33.1427 3.0073 33.6739 1.36868C32.2809 2.19265 30.7559 2.77119 29.1658 3.0789C28.1935 2.04495 26.9318 1.3264 25.5445 1.01659C24.1572 0.706778 22.7086 0.820033 21.3867 1.34164C20.0648 1.86325 18.9309 2.76909 18.1321 3.94149C17.3334 5.1139 16.9068 6.49866 16.9078 7.91589C16.9114 8.45783 16.9716 8.99792 17.0874 9.52742C14.269 9.38587 11.5118 8.65509 8.99503 7.38251C6.47823 6.10993 4.25797 4.324 2.47838 2.14063C1.57211 3.6978 1.29467 5.54058 1.70246 7.29436C2.11025 9.04815 3.17266 10.5813 4.67373 11.5822C3.54969 11.5433 2.45061 11.2412 1.46533 10.7005V10.796C1.4668 12.4273 2.0331 14.0081 3.06856 15.2713C4.10402 16.5345 5.54516 17.4027 7.14849 17.7291C6.54087 17.8963 5.91317 17.9799 5.28284 17.9774C4.83736 17.9782 4.39281 17.9367 3.95525 17.8533C4.40736 19.2585 5.28947 20.4874 6.47781 21.3675C7.66615 22.2475 9.10107 22.7346 10.5812 22.7603C8.07081 24.7276 4.9691 25.7951 1.77587 25.7908C1.21241 25.7935 0.649317 25.7613 0.0898438 25.6945C3.33135 27.7566 7.09675 28.8517 10.942 28.8507" fill="black"/>
</svg>
